<svg width="66" height="16" viewBox="0 0 66 16" fill="none" xmlns="http://www.w3.org/2000/svg">
<g clip-path="url(#clip0_6010_302)">
<path d="M65.9258 5.0083L65.572 6.99565L64.4181 8.01715L59.4046 7.98933L59.3444 8.72068L63.5095 9.45997C64.0844 9.60303 65.0171 10.3582 64.8443 11.3957L64.4905 13.8997C64.398 14.4284 63.2079 15.9348 62.0059 15.9348H53.6514L53.9409 14.1263L55.2676 13.0372H60.1163L60.261 12.135L56.4577 11.4672C55.4525 11.2288 54.5881 10.6722 54.7571 9.42816L55.1591 7.01552C55.3051 6.45402 55.6337 5.95545 56.0942 5.59642C56.5547 5.23739 57.1216 5.03776 57.7081 5.02817L65.9258 5.0083Z" fill="white"/>
<path d="M47.3801 5.00785L47.0303 6.99521L45.8725 8.01671H40.9353L40.8871 8.74011L44.992 9.48737C45.416 9.5785 45.7883 9.82748 46.0316 10.1827C46.2748 10.5379 46.3705 10.9721 46.2986 11.3952L45.9529 13.9112C45.8081 14.734 44.5578 15.8986 43.4762 15.8986H35.0977L35.3912 14.09L36.7058 13.0169H41.651V12.1067L37.8638 11.3833C37.2969 11.2442 36.1109 10.7433 36.2113 9.61855L36.6134 6.99521C36.7536 6.42607 37.0838 5.92031 37.5507 5.55968C38.0177 5.19905 38.594 5.00463 39.1865 5.00785H47.3801Z" fill="white"/>
<path d="M49.0997 5.0083L47.3789 15.9149H50.9089L52.0145 14.8814L53.5985 5.03215L49.0997 5.0083Z" fill="white"/>
<path d="M35.0973 5.01616L34.7475 7.32944L33.6901 8.07271H29.3762L28.6646 13.0252H33.7745L33.5212 14.9132L32.3513 15.899H25.7578C25.2141 15.8236 24.7214 15.5422 24.3837 15.1142C24.0461 14.6862 23.89 14.1451 23.9486 13.6055L24.9658 7.07903C25.0773 6.51833 25.3752 6.01063 25.8124 5.63679C26.2496 5.26295 26.8007 5.04447 27.378 5.01616C27.6353 4.99628 35.0973 5.01616 35.0973 5.01616Z" fill="white"/>
<path d="M4.42499 5.00795C4.42499 5.00795 2.41478 5.09539 2.0449 6.86414C1.99263 7.1225 0.923196 13.6529 0.923196 13.6529C0.85358 14.1388 0.968246 14.633 1.24512 15.0403C1.52198 15.4475 1.94148 15.7391 2.42282 15.8589C2.42282 15.8589 4.30035 15.9423 6.06533 15.9066C6.39297 15.8688 6.70775 15.7585 6.9862 15.5836C7.26466 15.4088 7.49959 15.1742 7.6735 14.897H7.83834L8.13585 15.8986H11.4004L13.1694 5L4.42499 5.00795ZM7.38805 12.9931H5.34567L6.14975 8.10424H8.15997L7.38805 12.9931Z" fill="white"/>
<path d="M14.8805 5.0159L13.1719 15.8986H16.6656L17.8717 14.8295L18.8969 8.50569H22.9978L23.6289 5H20.0629C19.5925 5 18.7522 5.628 18.7241 6.16062H18.4909C18.4909 6.16062 18.4065 5.61211 18.2416 5.00795L14.8805 5.0159Z" fill="white"/>
<path d="M49.3867 3.29504L49.8894 0H54.4284L54.1107 2.17019L52.8202 3.29504H49.3867Z" fill="#009C60"/>
</g>
<defs>
<clipPath id="clip0_6010_302">
<rect width="65.0968" height="16" fill="white" transform="translate(0.90332)"/>
</clipPath>
</defs>
</svg>
