<svg width="24" height="22" viewBox="0 0 24 22" fill="none" xmlns="http://www.w3.org/2000/svg">
<path fill-rule="evenodd" clip-rule="evenodd" d="M20.7378 4.40001C20.7378 4.40001 21.3939 4.40315 21.8847 4.84641C21.8847 4.84641 22.3754 5.28968 22.4564 5.95237L23.9925 20.044C23.9925 20.044 24.0337 20.4141 23.9227 20.7712C23.9227 20.7712 23.8116 21.1283 23.5673 21.4084C23.5673 21.4084 23.323 21.6885 22.9878 21.8431C22.9878 21.8431 22.6526 21.9977 22.2846 22L1.72225 22C1.72225 22 1.34895 21.9977 1.01376 21.8431C1.01376 21.8431 0.678569 21.6885 0.43427 21.4084C0.43427 21.4084 0.189975 21.1283 0.0789083 20.7712C0.0789083 20.7712 -0.0321599 20.4141 0.00924776 20.042L1.54378 5.96397C1.54378 5.96397 1.62612 5.28968 2.11687 4.84642C2.11687 4.84642 2.60761 4.40315 3.26375 4.40001L20.7337 4.4L20.7378 4.40001ZM3.27187 6.15999L20.7297 6.16C20.7297 6.16 20.7339 6.16016 20.7368 6.16276C20.7368 6.16276 20.7399 6.16552 20.7404 6.16963L22.2738 20.238L22.274 20.24L1.72757 20.24L3.26251 6.15827C3.26251 6.15827 3.26201 6.16301 3.26314 6.16346C3.26314 6.16346 3.26373 6.16369 3.26475 6.16276C3.26475 6.16276 3.2678 6.16001 3.27187 6.15999Z" fill="white"/>
<path d="M15.4594 5.28V8.8C15.4594 9.28601 15.8465 9.68 16.3241 9.68C16.8016 9.68 17.1887 9.28601 17.1887 8.8V5.28C17.1887 3.09295 15.6692 1.54648 15.6692 1.54648C14.1497 0 12.0008 0 12.0008 0C9.85192 0 8.33242 1.54648 8.33242 1.54648C6.81292 3.09295 6.81292 5.28 6.81292 5.28V8.8C6.81292 9.28601 7.20004 9.68 7.67757 9.68C8.1551 9.68 8.54222 9.28601 8.54222 8.8V5.28C8.54222 3.82197 9.55522 2.79098 9.55522 2.79098C10.5682 1.76 12.0008 1.76 12.0008 1.76C13.4334 1.76 14.4464 2.79098 14.4464 2.79098C15.4594 3.82197 15.4594 5.28 15.4594 5.28Z" fill="white"/>
</svg>
