<svg width="14" height="12" viewBox="0 0 14 12" fill="none" xmlns="http://www.w3.org/2000/svg">
<path fill-rule="evenodd" clip-rule="evenodd" d="M12.0971 2.40001C12.0971 2.40001 12.4798 2.40172 12.7661 2.6435C12.7661 2.6435 13.0523 2.88528 13.0996 3.24674L13.9956 10.9331C13.9956 10.9331 14.0197 11.135 13.9549 11.3297C13.9549 11.3297 13.8901 11.5245 13.7476 11.6773C13.7476 11.6773 13.6051 11.8301 13.4096 11.9144C13.4096 11.9144 13.214 11.9987 12.9994 12L1.00465 12C1.00465 12 0.786885 11.9987 0.591357 11.9144C0.591357 11.9144 0.395832 11.8301 0.253324 11.6773C0.253324 11.6773 0.110819 11.5245 0.0460299 11.3298C0.0460299 11.3298 -0.0187599 11.135 0.00539453 10.932L0.90054 3.25307C0.90054 3.25307 0.948572 2.88528 1.23484 2.6435C1.23484 2.6435 1.52111 2.40172 1.90385 2.40001L12.0947 2.4L12.0971 2.40001ZM1.90859 3.35999L12.0923 3.36C12.0923 3.36 12.0948 3.36008 12.0965 3.36151C12.0965 3.36151 12.0983 3.36301 12.0985 3.36525L12.993 11.0389L12.9932 11.04L1.00775 11.04L1.90313 3.35905C1.90313 3.35905 1.90284 3.36164 1.9035 3.36189C1.9035 3.36189 1.90384 3.36201 1.90444 3.36151C1.90444 3.36151 1.90622 3.36001 1.90859 3.35999Z" fill="#141414"/>
<path d="M9.018 2.88V4.8C9.018 5.0651 9.24382 5.28 9.52238 5.28C9.80094 5.28 10.0268 5.0651 10.0268 4.8V2.88C10.0268 1.68707 9.14038 0.843532 9.14038 0.843532C8.254 0 7.00048 0 7.00048 0C5.74695 0 4.86058 0.843532 4.86058 0.843532C3.9742 1.68707 3.9742 2.88 3.9742 2.88V4.8C3.9742 5.0651 4.20002 5.28 4.47858 5.28C4.75714 5.28 4.98296 5.0651 4.98296 4.8V2.88C4.98296 2.08471 5.57388 1.52236 5.57388 1.52236C6.1648 0.96 7.00048 0.96 7.00048 0.96C7.83616 0.96 8.42708 1.52235 8.42708 1.52235C9.018 2.08471 9.018 2.88 9.018 2.88Z" fill="#141414"/>
</svg>
