<svg width="497" height="934" viewBox="0 0 497 934" fill="none" xmlns="http://www.w3.org/2000/svg">
<path d="M504.662 751.771C522.726 819.06 475.981 887.622 415.537 914.394C342.875 946.665 257.178 932.216 184.786 907.229C143.818 893.075 104.632 874.013 68.434 850.148C40.7983 831.977 8.99757 808.463 1.80378 773.942C-1.95298 756.133 2.43169 738.119 13.9028 723.994C26.5746 708.343 46.7689 699.731 65.7177 694.88C104.542 684.868 146.728 684.191 186.541 687.083C230.752 690.325 274.133 700.137 315.621 715.892C349.919 728.965 398.458 751.015 393.001 795.522C392.357 800.794 387.005 804.788 382.043 805.069C320.902 808.966 259.348 798.04 203.126 773.68C175.236 761.616 148.44 746.143 124.388 727.597C102.315 710.655 82.4222 685.264 89.6688 655.674C96.0732 629.392 119.646 612.264 142.975 601.415C168.56 589.494 197.784 584.231 225.627 580.335C283.265 572.174 342.732 575.066 399.369 588.589C426.948 595.178 455.942 604.003 481.233 617.158C498.744 626.292 522.029 650.975 504.8 671.005C499.645 676.962 491.193 676.239 483.927 676.737C476.066 677.355 468.186 677.63 460.306 677.905C444.969 678.346 429.584 677.932 414.25 676.913C383.491 674.796 353.02 670.174 323.148 662.513C293.277 654.853 264.025 644.497 236.086 631.578C213.346 621.024 191.596 608.269 176.353 587.678C162.224 568.569 158.524 542.689 175.217 523.806C195.533 500.683 232.854 501.999 260.952 501.092C386.77 496.616 513.008 517.691 630.713 562.336C645.012 567.79 659.068 573.515 673.063 579.673L660.162 598.857C633.111 580.394 599.667 577.829 567.956 578.597C532.905 579.47 498.038 583.593 462.915 580.179C445.308 578.431 425.128 575.199 409.661 565.777C392.676 555.326 386.433 537.572 389.381 518.438C392.329 499.305 403.173 481.697 411.894 464.467C423.493 442.01 434.388 419.251 444.932 396.339C450.118 384.888 455.294 373.266 460.219 361.744C464.698 351.449 469.943 341.024 473.024 330.294C474.666 324.45 477.819 313.458 473.221 308.055C468.624 302.651 456.767 308.473 451.631 310.223C407.133 324.591 364.995 345.775 326.619 372.755C313.578 381.905 291.218 396.218 295.556 415.196C299.397 431.456 320.32 440.224 334.327 445.094C373.294 458.761 414.967 467.211 455.711 472.881C539.01 484.377 624.734 481.145 706.776 462.932C717.115 460.629 727.355 458.074 737.584 455.348L735.989 477.152C663.244 442.916 590.418 408.77 517.763 374.614C507.71 369.864 510.174 351.272 522.409 352.123C623.458 358.836 724.508 365.548 825.386 372.271L820.75 394.933C768.764 375.654 717.821 353.569 668.252 328.489C645.543 316.99 621.656 305.9 600.897 290.943C584.167 278.933 570.451 259.543 577.65 238.194C585.508 214.834 612.614 207.032 634.626 204.754C659.88 202.12 685.441 201.871 710.87 202.317C761.727 203.209 813.824 207.806 863.197 220.368C915.618 233.7 969.281 259.836 991.724 312.03C995.289 320.41 986.338 327.526 978.732 326.584C875.512 313.386 774.192 286.778 678.942 244.636C654.823 233.989 631.078 222.377 607.788 209.709C596.631 203.647 585.463 197.415 574.448 190.831C564.95 185.276 554.687 179.851 546.37 172.427C532.991 160.484 519.933 139.083 532.789 122.134C539.731 112.9 551.259 110.358 562.267 110.764C575.077 111.153 588.025 112.478 600.67 114.507C656.884 123.591 710.246 148.971 753.45 185.913L739.052 184.756C811.049 124.116 883.046 63.4758 955.042 2.83566C960.042 -1.30983 968.439 1.47505 971.639 6.44289C975.501 12.4888 973.032 18.8938 968.032 23.0394C896.035 83.6794 823.858 144.158 751.861 204.798C747.849 208.201 741.16 206.778 737.464 203.641C703.099 174.265 662.166 153.158 618.212 142.348C607.068 139.547 595.711 137.531 584.383 136.028C579.021 135.302 573.759 134.828 568.417 134.445C563.768 134.194 557.783 133.074 553.422 134.866C549.061 136.658 550.643 140.345 553.3 144.829C556.73 150.813 561.992 155.836 567.61 159.551C587.074 172.865 608.566 184.09 629.363 195.182C650.161 206.275 671.694 216.726 693.521 226.301C736.572 245.401 780.816 261.343 826.164 274.047C877.536 288.555 929.863 298.717 982.945 304.031L969.953 318.586C951.751 279.11 910.718 257.751 870.751 246.115C827.376 233.384 781.096 228.457 736.088 226.29C713.197 225.185 690.283 225.198 667.418 226.065C648.236 226.81 622.056 225.205 605.939 237.62C590.639 249.301 605.51 264.849 616.593 272.631C635.193 285.823 657.029 295.569 677.355 305.916C727.196 331.239 778.591 353.727 831.01 373.067C841.88 377.085 838.176 396.519 826.374 395.73C725.405 388.927 624.356 382.214 523.296 375.331L527.942 352.839C600.687 387.075 673.432 421.311 746.178 455.548C755.175 459.843 754.641 474.635 744.583 477.351C657.599 500.736 567.027 507.762 477.424 498.597C432.884 494.086 388.796 485.43 345.933 472.671C326.031 466.763 305.324 460.299 289.343 446.358C273.362 432.418 266.754 411.251 275.399 391.194C284.045 371.136 306.486 356.732 324.513 344.725C345.272 330.931 367.154 318.791 389.647 308.332C412.139 297.874 434.338 288.29 457.574 283.367C468.175 281.135 479.726 282.025 488.062 289.791C495.133 296.427 498.091 306.215 498.031 315.744C497.802 338.929 485.005 361.454 475.794 382.144C464.996 406.615 453.575 430.692 441.711 454.537C435.618 466.64 429.354 478.753 422.999 490.785C418.816 498.746 414.734 506.959 412.401 515.76C410.565 522.729 409.23 530.958 412.617 537.718C416.886 546.401 427.455 549.663 436.175 552.087C506.646 571.948 582.649 539.573 651.794 567.835C660.23 571.304 667.778 575.768 675.365 580.916C686.7 588.598 673.815 605.034 662.464 600.099C555.198 553.403 438.793 527.136 321.716 523.821C292.575 522.985 263.25 523.447 234.013 525.449C215.202 526.687 180.926 532.15 187.07 558.749C191.307 577.476 210.265 592.449 226.046 601.338C250.159 614.903 276.754 625.324 303.233 633.691C365.01 653.101 430.295 660.212 494.742 654.068L487.388 657.575C491.261 653.235 485.327 646.964 481.882 643.726C474.35 636.515 464.797 633.024 455.144 629.28C431.797 620.134 407.459 613.19 382.885 608.147C333.467 597.819 282.561 596.072 232.474 602.689C208.456 605.94 183.742 610.517 160.971 619.103C142.823 625.969 120.247 637.977 113.383 657.676C105.487 680.352 125.495 698.698 141.64 710.999C162.267 726.65 185.144 739.599 208.74 750.104C262.367 774.096 321.586 784.726 380.251 781.055L369.293 790.602C370.931 777.121 360.035 766.582 350.259 759.155C337.438 749.498 321.823 743.518 306.992 737.751C274.605 725.084 240.317 716.731 205.82 712.251C171.323 707.771 134.422 707.804 99.0607 712.298C71.6216 715.743 23.8844 724.458 23.0047 760.381C22.2918 788.657 50.8448 810.896 71.4943 825.43C103.137 847.665 137.645 865.962 173.561 880.317C237.931 906.102 314.474 924.074 383.222 906.014C417.717 896.849 448.428 878.458 469.972 849.773C490.083 823.057 500.812 788.292 493.183 755.168C491.487 747.97 502.262 744.269 504.31 751.619L504.662 751.771Z" fill="#D2D2D2" fill-opacity="0.2"/>
</svg>
