<svg width="558" height="490" viewBox="0 0 558 490" fill="none" xmlns="http://www.w3.org/2000/svg">
<path d="M867.375 413.998C905.545 472.284 987.822 483.069 1048.05 455.804C1120.51 423.087 1166.8 349.533 1196.36 278.887C1213.08 238.899 1224.96 196.972 1231.26 154.075C1236.11 121.358 1239.74 81.9754 1218.78 53.6201C1208 38.9578 1191.64 30.2331 1173.46 29.3849C1153.35 28.4155 1133.47 37.746 1117.24 48.6519C1083.91 70.9483 1055.32 101.969 1030.96 133.596C1003.94 168.738 982.369 207.635 966.495 249.077C953.409 283.37 937.535 334.264 974.372 359.833C978.734 362.862 985.277 361.529 988.791 358.015C1032.41 314.997 1065.25 261.801 1084.52 203.636C1094.09 174.796 1100.39 144.502 1102.57 114.208C1104.63 86.459 1098.94 54.7106 1072.04 40.4118C1048.17 27.6883 1019.69 33.8683 996.062 44.0471C970.131 55.1954 946.744 73.4931 925.296 91.6695C880.825 129.234 843.382 175.523 815.755 226.781C802.304 251.743 789.581 279.25 782.553 306.879C777.706 326.024 780.614 359.833 807.03 360.317C814.907 360.439 819.996 353.653 825.206 348.563C830.902 343.11 836.354 337.415 841.807 331.72C852.349 320.572 862.286 308.817 871.737 296.7C890.64 272.343 907.484 246.533 921.661 219.147C935.838 191.761 947.592 163.042 956.559 133.596C963.829 109.604 968.798 84.8836 963.587 59.8001C958.74 36.5343 941.897 16.5402 916.693 16.419C885.915 16.1766 862.043 44.8954 842.655 65.253C755.531 156.135 687.189 264.346 642.112 381.887C636.659 396.186 631.57 410.484 626.844 425.025L649.746 428.176C653.987 395.701 674.345 369.042 696.035 345.897C720.027 320.329 746.322 297.063 767.164 268.587C777.585 254.288 788.612 237.081 791.883 219.268C795.397 199.638 786.309 183.158 770.072 172.615C753.835 162.073 733.478 158.438 714.817 153.469C690.34 147.168 666.105 140.14 641.991 132.748C629.995 128.992 617.877 125.114 606.002 121.115C595.339 117.601 584.07 114.572 574.012 109.725C568.56 107.059 558.26 102.091 557.29 95.0625C556.321 88.0343 568.56 83.0659 573.285 80.4001C613.636 56.7707 657.501 39.4426 703.184 28.779C718.694 25.1438 744.262 17.9943 755.531 33.8684C765.104 47.5613 757.712 69.0095 752.017 82.7024C736.265 120.873 714.817 157.589 691.915 191.761C645.02 261.559 585.524 323.359 517.303 372.435C508.7 378.615 499.975 384.553 491.129 390.369L508.457 403.699C531.359 326.63 554.382 249.562 577.284 172.615C580.435 161.952 564.924 151.409 557.412 161.104C495.128 240.959 432.845 320.814 370.682 400.548L390.676 412.181C410.912 360.56 428.361 307.848 442.66 254.167C449.203 229.568 456.837 204.364 459.503 178.916C461.684 158.438 456.352 135.293 435.632 126.447C412.972 116.753 389.101 131.779 372.742 146.684C353.96 163.769 336.753 182.673 320.153 201.94C286.951 240.474 255.688 282.401 232.18 327.6C207.218 375.586 190.981 433.023 214.974 484.523C218.851 492.763 230.12 490.824 234.483 484.523C293.373 398.73 340.995 305.424 372.985 206.302C381.103 181.219 388.253 155.772 394.311 129.961C397.219 117.601 400.006 105.12 402.43 92.5177C404.611 81.733 407.398 70.4638 407.398 59.3155C407.398 41.3815 400.128 17.3885 378.922 15.692C367.411 14.7226 357.838 21.6297 350.81 30.112C342.57 39.9273 334.936 50.4695 328.029 61.2542C297.372 109.24 280.771 165.951 279.559 222.782L288.284 211.271C195.101 224.6 101.918 237.929 8.73521 251.259C2.31309 252.228 -1.20107 260.347 0.374248 266.042C2.31297 272.949 8.73521 275.373 15.1575 274.404C108.34 261.074 201.523 247.502 294.706 234.173C299.917 233.446 303.31 227.508 303.431 222.661C304.4 177.462 315.912 132.869 337.117 92.8812C342.449 82.7024 348.507 72.8873 354.93 63.4355C357.959 58.952 361.11 54.7107 364.381 50.4695C367.289 46.8342 370.44 41.6237 374.681 39.5637C378.922 37.5037 380.619 41.139 382.194 46.1072C384.375 52.6507 384.617 59.9213 383.648 66.586C380.619 89.973 374.681 113.481 369.107 136.383C363.533 159.286 356.99 182.309 349.598 204.969C335.178 249.805 317.608 293.428 296.887 335.719C273.501 383.704 246.237 429.509 214.853 472.648L234.362 472.648C217.034 432.781 228.424 387.946 246.358 350.381C265.746 309.544 292.889 271.738 321.243 236.718C335.663 218.905 350.931 201.819 366.805 185.339C380.134 171.525 396.371 150.925 416.365 147.168C435.268 143.533 436.965 164.981 435.389 178.432C432.845 201.092 425.574 223.873 419.758 245.927C405.459 299.972 388.01 353.289 367.532 405.274C363.291 416.058 380.255 426.237 387.526 416.907C449.688 337.052 511.971 257.196 574.134 177.22L554.261 165.708C531.359 242.776 508.457 319.844 485.555 396.913C482.768 406.485 494.159 415.937 502.883 410.242C578.253 360.923 643.809 298.033 696.641 225.085C722.935 188.853 745.837 150.198 764.862 109.725C773.707 90.9424 782.674 71.1907 782.916 49.9849C783.159 28.779 771.769 9.75434 751.048 2.8473C730.327 -4.05974 704.638 3.08968 683.675 8.54262C659.561 14.8438 635.932 23.0837 613.152 32.899C590.371 42.7143 568.438 52.8931 549.293 66.9495C540.568 73.3719 533.54 82.5812 533.783 93.9718C534.025 103.666 539.357 112.391 546.506 118.692C563.955 133.96 589.28 139.413 610.849 146.32C636.296 154.56 661.864 162.073 687.553 169.101C700.639 172.615 713.847 176.008 727.055 179.28C735.78 181.461 744.626 183.885 752.744 188.005C759.166 191.276 766.195 195.76 768.982 202.788C772.617 211.755 768.012 221.813 764.013 229.932C731.902 295.73 657.138 330.871 632.176 401.275C629.147 409.878 627.45 418.482 626.239 427.57C624.421 441.142 645.263 442.475 649.14 430.721C685.735 319.602 743.656 215.269 819.148 125.72C837.93 103.424 857.802 81.8543 878.765 61.3755C892.216 48.1672 919.116 26.2342 934.869 48.5306C946.017 64.1623 944.563 88.2765 940.685 105.968C934.748 132.991 924.811 159.771 913.421 185.096C886.763 244.109 848.593 297.548 801.093 341.535L808.606 338.384C802.789 338.384 802.062 329.781 801.941 325.055C801.577 314.634 805.334 305.182 808.969 295.488C817.694 271.98 828.72 249.199 841.322 227.508C866.527 183.763 899.122 144.624 937.413 111.664C955.832 95.9106 975.705 80.5212 997.273 69.2519C1014.48 60.2848 1038.47 51.439 1057.74 59.4366C1079.91 68.646 1080.28 95.7895 1078.7 116.026C1076.64 141.836 1071.07 167.526 1063.19 192.125C1045.38 248.108 1013.87 299.366 972.069 340.687L986.489 338.869C975.341 331.114 974.735 315.967 975.705 303.728C977.037 287.733 982.975 272.101 988.549 257.196C1000.67 224.6 1017.27 193.458 1036.9 164.739C1056.53 136.02 1081.13 108.513 1108.03 85.1259C1128.87 66.9494 1167.16 37.1402 1194.54 60.406C1216.11 78.7036 1213.69 114.814 1210.78 139.898C1206.3 178.311 1196.97 216.239 1183.76 252.592C1160.13 317.784 1122.57 386.855 1063.31 426.116C1033.5 445.747 999.334 456.41 963.587 453.381C930.264 450.594 897.184 435.447 877.553 407.697C873.312 401.639 863.376 407.213 867.496 413.635L867.375 413.998Z" fill="#D2D2D2" fill-opacity="0.2"/>
</svg>
