<svg width="268" height="474" viewBox="0 0 268 474" fill="none" xmlns="http://www.w3.org/2000/svg">
<path d="M56.52 466.227C111.715 425.143 161.987 379.083 207.709 328.716C212.259 323.704 218.86 329.316 218.114 334.434C215.317 353.388 215.839 373.118 219.979 391.86C221.732 399.73 223.671 407.813 227.997 414.801C231.316 420.131 236.985 426.449 244.294 425.072L242.019 433.19C217.779 406.507 196.596 378.094 180.149 346.434C178.806 343.893 175.487 339.693 176.233 336.728C176.867 334.222 179.888 332.705 182.424 332.669C189.1 332.634 192.046 339.128 189.92 344.423C188.577 347.776 185.669 350.493 183.207 353.176L172.914 364.541L152.291 387.306C136.702 404.495 121.56 422.037 106.009 439.226L101.123 431.284C104.182 430.614 103.659 426.061 103.548 423.731C103.286 418.331 101.907 413.037 101.832 407.601C101.683 395.389 105.077 383.424 108.582 371.776C116.078 347.14 123.351 322.434 130.063 297.621C143.377 248.455 154.789 198.829 164.523 148.922C170.08 120.474 176.606 91.5666 178.322 62.6598L192.866 62.6598C192.68 68.4129 190.405 74.4131 188.466 79.8133C186.526 85.2134 184.177 90.8254 181.529 96.155C176.382 106.638 169.744 116.379 162.173 125.45C147.219 143.416 127.789 158.275 105.599 167.522L101.534 158.381C149.121 149.204 197.267 153.51 241.572 172.64L235.418 175.005C243.138 136.215 251.119 97.4257 259.249 58.7067L262.382 63.9304C195.514 49.7416 128.423 36.7529 61.2564 23.9054C51.821 22.1054 42.3111 20.6583 32.8757 18.8582C28.0275 17.9405 23.0675 17.2346 18.3312 15.8581C13.5948 14.4816 8.93313 12.8932 4.23409 11.4108C-1.91938 9.46959 -1.35996 -0.766064 5.87505 0.0457344C14.5272 0.998707 23.0302 1.84585 31.4959 3.75179C39.9616 5.65774 48.2781 7.8814 56.6692 9.85793C73.1904 13.7757 89.7861 17.4111 106.345 21.1877C140.058 28.8821 173.809 36.3647 207.635 43.6708C226.654 47.7651 245.712 51.7888 264.769 55.7066C267.267 56.236 268.349 58.7772 267.901 60.9302C259.958 99.6845 251.828 138.404 243.474 177.052C242.877 179.734 239.595 180.44 237.32 179.417C196.633 161.063 147.815 156.334 104.331 167.946C98.662 169.463 94.8954 161.487 100.266 158.804C120.069 148.851 137.671 135.156 151.172 118.144C157.885 109.708 163.553 100.532 168.178 90.9313C170.415 86.2723 172.355 81.4721 173.996 76.6014C175.748 71.413 176.457 65.7305 178.545 60.6832C181.902 52.6006 194.843 55.53 192.568 64.3539C185.892 90.296 182.349 117.015 177.128 143.239C171.907 169.463 166.388 194.7 160.346 220.254C148.076 271.996 133.756 323.21 118.018 374.071C113.691 388.118 109.664 402.378 112.498 417.06C114.064 425.32 115.034 437.92 103.734 440.249C98.7366 441.273 95.5293 435.908 98.8485 432.308C113.542 416.425 128.684 400.895 143.415 384.977L164.859 361.788L175.898 349.858C177.65 347.987 179.515 346.152 181.119 344.175C181.678 343.47 183.021 342.022 183.058 341.105C183.133 338.634 182.275 340.434 183.021 339.269L183.021 335.705C200.139 368.494 222.179 399.907 249.217 426.167C251.902 428.778 250.709 433.332 246.942 434.285C225.834 439.685 214.534 416.531 210.133 401.107C203.57 378.235 202.339 354.552 206.068 331.152L216.473 336.869C170.08 386.918 117.98 432.555 62.3379 473.215C58.0491 476.357 52.2312 469.262 56.52 466.086L56.52 466.227Z" fill="#D1D1D1"/>
</svg>
