<svg width="710" height="550" viewBox="0 0 710 550" fill="none" xmlns="http://www.w3.org/2000/svg">
<path d="M706.542 464.692C737.634 530.115 804.655 542.22 853.712 511.617C912.737 474.893 950.443 392.333 974.527 313.036C988.148 268.152 997.821 221.091 1002.95 172.942C1006.9 136.218 1009.86 92.0133 992.787 60.186C984.003 43.7282 970.677 33.9352 955.872 32.9832C939.486 31.895 923.299 42.368 910.072 54.6094C882.928 79.636 859.634 114.456 839.794 149.955C817.783 189.399 800.213 233.06 787.283 279.577C776.623 318.069 763.692 375.195 793.699 403.894C797.252 407.294 802.582 405.798 805.445 401.854C840.979 353.569 867.728 293.858 883.422 228.571C891.22 196.2 896.352 162.197 898.129 128.193C899.807 97.0458 895.168 61.41 873.255 45.3603C853.81 31.0788 830.615 38.0155 811.367 49.4408C790.244 61.9541 771.194 82.4923 753.723 102.894C717.498 145.059 686.998 197.016 664.493 254.55C653.537 282.569 643.173 313.444 637.448 344.456C633.5 365.946 635.869 403.894 657.387 404.438C663.802 404.574 667.948 396.957 672.192 391.244C676.832 385.124 681.273 378.731 685.715 372.339C694.302 359.825 702.396 346.632 710.095 333.03C725.493 305.692 739.213 276.72 750.762 245.981C762.31 215.242 771.885 183.007 779.189 149.955C785.111 123.024 789.158 95.2776 784.914 67.1226C780.966 41.0079 767.246 18.5656 746.715 18.4295C721.644 18.1575 702.199 50.3928 686.406 73.2432C615.437 175.254 559.767 296.715 523.049 428.648C518.607 444.698 514.461 460.748 510.612 477.069L529.267 480.606C532.722 444.154 549.304 414.231 566.972 388.252C586.516 359.553 607.935 333.438 624.913 301.475C633.401 285.425 642.383 266.111 645.048 246.117C647.911 224.083 640.508 205.585 627.281 193.752C614.055 181.919 597.472 177.838 582.272 172.262C562.333 165.189 542.592 157.3 522.95 149.003C513.178 144.787 503.307 140.434 493.634 135.946C484.948 132.001 475.769 128.601 467.576 123.16C463.134 120.168 454.744 114.592 453.955 106.703C453.165 98.814 463.134 93.2374 466.984 90.245C499.853 63.7223 535.584 44.2723 572.796 32.3031C585.43 28.2226 606.257 20.1978 615.437 38.0156C623.234 53.3852 617.214 77.4597 612.574 92.8293C599.743 135.674 582.272 176.886 563.616 215.242C525.417 293.586 476.953 362.954 421.382 418.039C414.374 424.976 407.267 431.641 400.062 438.169L414.177 453.131C432.832 366.626 451.586 280.121 470.241 193.752C472.807 181.783 460.173 169.949 454.053 180.831C403.319 270.464 352.584 360.097 301.949 449.595L318.235 462.652C334.719 404.71 348.932 345.544 360.579 285.289C365.91 257.678 372.128 229.388 374.299 200.825C376.076 177.838 371.733 151.86 354.855 141.931C336.397 131.049 316.952 147.915 303.627 164.645C288.327 183.823 274.311 205.041 260.788 226.667C233.743 269.92 208.277 316.981 189.128 367.714C168.795 421.576 155.568 486.046 175.112 543.852C178.271 553.101 187.45 550.925 191.004 543.852C238.975 447.554 277.766 342.823 303.824 231.564C310.437 203.409 316.261 174.846 321.196 145.875C323.565 132.001 325.835 117.992 327.809 103.846C329.586 91.7412 331.856 79.092 331.856 66.5787C331.856 46.4486 325.934 19.5177 308.66 17.6135C299.283 16.5254 291.486 24.2783 285.761 33.7993C279.049 44.8164 272.83 56.6495 267.204 68.7548C242.232 122.616 228.709 186.271 227.722 250.062L234.829 237.14C158.924 252.102 83.02 267.064 7.11552 282.025C1.88413 283.113 -0.978355 292.226 0.304849 298.619C1.88413 306.372 7.11552 309.092 12.3469 308.004C88.2513 293.042 164.156 277.809 240.06 262.847C244.305 262.031 247.068 255.366 247.167 249.926C247.957 199.193 257.334 149.139 274.607 104.254C278.95 92.8293 283.885 81.8123 289.117 71.2031C291.584 66.1706 294.151 61.41 296.816 56.6495C299.185 52.5691 301.751 46.7206 305.206 44.4083C308.66 42.0961 310.042 46.1764 311.326 51.753C313.102 59.0978 313.3 67.2587 312.51 74.7394C310.042 100.99 305.206 127.377 300.665 153.084C296.125 178.79 290.795 204.633 284.774 230.068C273.028 280.393 258.715 329.358 241.837 376.827C222.787 430.689 200.578 482.102 175.013 530.523L190.905 530.523C176.79 485.774 186.068 435.449 200.677 393.285C216.47 347.448 238.58 305.012 261.677 265.703C273.423 245.709 285.86 226.531 298.79 208.033C309.647 192.528 322.874 169.405 339.16 165.189C354.558 161.109 355.94 185.183 354.657 200.28C352.584 225.715 346.662 251.286 341.924 276.04C330.277 336.703 316.063 396.549 299.382 454.899C295.927 467.004 309.746 478.43 315.669 467.957C366.304 378.323 417.039 288.69 467.675 198.92L451.487 185.999C432.832 272.504 414.177 359.009 395.521 445.514C393.251 456.259 402.529 466.868 409.636 460.476C471.031 405.118 524.43 334.527 567.466 252.646C588.885 211.978 607.54 168.589 623.037 123.16C630.243 102.078 637.547 79.908 637.744 56.1055C637.942 32.3031 628.663 10.9488 611.785 3.19602C594.906 -4.55679 573.98 3.46806 556.904 9.58872C537.262 16.6614 518.015 25.9103 499.458 36.9275C480.901 47.9446 463.036 59.3698 447.44 75.1474C440.333 82.3562 434.608 92.6932 434.806 105.479C435.003 116.36 439.346 126.153 445.17 133.226C459.384 150.363 480.013 156.484 497.583 164.237C518.311 173.486 539.138 181.919 560.063 189.808C570.723 193.752 581.482 197.56 592.241 201.233C599.348 203.681 606.553 206.401 613.167 211.026C618.398 214.698 624.123 219.731 626.393 227.619C629.354 237.685 625.603 248.974 622.346 258.086C596.189 331.942 535.288 371.386 514.955 450.411C512.487 460.068 511.105 469.725 510.118 479.926C508.638 495.159 525.615 496.655 528.773 483.462C558.583 358.737 605.764 241.629 667.257 141.114C682.556 116.088 698.744 91.8773 715.82 68.8909C726.776 54.0653 748.689 29.4466 761.521 54.4732C770.602 72.019 769.417 99.086 766.259 118.944C761.422 149.275 753.328 179.334 744.05 207.761C722.335 274 691.242 333.982 652.55 383.356L658.67 379.819C653.932 379.819 653.34 370.162 653.241 364.858C652.945 353.16 656.005 342.551 658.966 331.67C666.073 305.283 675.055 279.713 685.32 255.366C705.851 206.265 732.403 162.333 763.593 125.337C778.597 107.655 794.784 90.381 812.354 77.7317C826.37 67.6667 845.914 57.7377 861.608 66.7146C879.671 77.0517 879.967 107.519 878.684 130.233C877.006 159.204 872.466 188.039 866.05 215.65C851.54 278.489 825.877 336.023 791.823 382.403L803.569 380.363C794.488 371.658 793.995 354.657 794.784 340.919C795.87 322.965 800.707 305.419 805.247 288.69C815.118 252.102 828.64 217.146 844.631 184.911C860.621 152.676 880.658 121.8 902.571 95.5495C919.548 75.1474 950.739 41.688 973.046 67.8027C990.616 88.3409 988.642 128.873 986.273 157.028C982.621 200.145 975.02 242.717 964.262 283.521C945.014 356.697 914.415 434.225 866.148 478.293C841.867 500.328 814.032 512.297 784.914 508.897C757.77 505.768 730.823 488.767 714.833 457.619C711.378 450.819 703.285 457.075 706.641 464.284L706.542 464.692Z" fill="#D1D1D1"/>
</svg>
