<svg width="32" height="32" viewBox="0 0 32 32" fill="none" xmlns="http://www.w3.org/2000/svg">
<path fill-rule="evenodd" clip-rule="evenodd" d="M32 16C32 24.8365 24.8365 32 16 32C7.16347 32 0 24.8365 0 16C0 7.16347 7.16347 0 16 0C24.8365 0 32 7.16347 32 16ZM10.9536 14.7502C9.37566 15.4434 7.75437 16.1556 6.27186 16.9773L6.27176 16.9774C5.4976 17.5477 6.52663 17.9511 7.49193 18.3295C7.64539 18.3897 7.79723 18.4492 7.93996 18.5086C8.05873 18.5454 8.17951 18.5841 8.3019 18.6233C9.37548 18.9675 10.5726 19.3513 11.6149 18.774C13.327 17.7844 14.9428 16.6402 16.5573 15.497C17.0863 15.1224 17.6151 14.7479 18.1471 14.379C18.1721 14.363 18.2002 14.3446 18.231 14.3245C18.6843 14.0289 19.7035 13.3642 19.3265 14.2802C18.4348 15.2614 17.4798 16.1299 16.5196 17.0031C15.8725 17.5916 15.223 18.1823 14.5889 18.811C14.0367 19.2624 13.4633 20.1703 14.0816 20.8025C15.5045 21.8048 16.9496 22.7828 18.3938 23.7602C18.8656 24.0795 19.3373 24.3987 19.8082 24.7187C20.6038 25.3578 21.8472 24.8408 22.0222 23.8421C22.0999 23.3831 22.1779 22.9241 22.2559 22.465C22.6876 19.9255 23.1194 17.3851 23.5009 14.8372C23.5527 14.4378 23.6115 14.0384 23.6703 13.6388C23.8128 12.6697 23.9555 11.6995 24 10.7252C23.8851 9.75306 22.7138 9.96684 22.0618 10.1854C18.711 11.4684 15.3937 12.8464 12.0895 14.2487C11.7151 14.4156 11.3356 14.5823 10.9536 14.7502Z" fill="black"/>
</svg>
