<svg width="32" height="32" viewBox="0 0 32 32" fill="none" xmlns="http://www.w3.org/2000/svg">
<path d="M16 32C24.8366 32 32 24.8366 32 16C32 7.16344 24.8366 0 16 0C7.16344 0 0 7.16344 0 16C0 24.8366 7.16344 32 16 32Z" fill="#141414"/>
<path fill-rule="evenodd" clip-rule="evenodd" d="M16.5398 24.8367H16.5359C14.9526 24.8362 13.3968 24.4408 12.015 23.6908L7 25L8.34211 20.1213C7.51423 18.6934 7.07861 17.0738 7.07932 15.4144C7.08139 10.2233 11.3253 6 16.5397 6C19.0704 6.00109 21.4457 6.98158 23.2318 8.76121C25.0179 10.5407 26.001 12.9062 26 15.4218C25.9979 20.6117 21.7557 24.8346 16.5398 24.8367ZM12.633 22.712L12.9251 22.8853C14.1534 23.6139 15.5614 23.9994 16.9969 24H17.0001C21.4095 24 24.9982 20.4125 25 16.0029C25.0008 13.866 24.1695 11.8568 22.6591 10.3452C21.1487 8.83362 19.1401 8.00074 17.0033 8C12.5906 8 9.00175 11.5872 9 15.9964C8.99938 17.5075 9.42233 18.9791 10.2231 20.2523L10.4134 20.5549L9.60518 23.506L12.633 22.712ZM20.6272 17.4711C20.7988 17.5515 20.9147 17.6058 20.9642 17.6859C21.0257 17.7853 21.0257 18.2629 20.8207 18.8201C20.6156 19.3773 19.6327 19.8858 19.16 19.9542C18.7361 20.0157 18.1997 20.0413 17.6103 19.8597C17.2529 19.7498 16.7947 19.603 16.2077 19.3573C13.9011 18.3917 12.3424 16.2245 12.0478 15.8149C12.0271 15.7862 12.0127 15.7661 12.0046 15.7557L12.0027 15.7531C11.8724 15.5847 11 14.4562 11 13.2883C11 12.1896 11.5567 11.6137 11.813 11.3487C11.8305 11.3305 11.8467 11.3138 11.8611 11.2985C12.0866 11.0597 12.3532 11 12.5172 11C12.6812 11 12.8454 11.0015 12.9888 11.0084C13.0065 11.0093 13.0249 11.0092 13.0439 11.0091C13.1873 11.0083 13.366 11.0073 13.5423 11.4179C13.6102 11.5759 13.7094 11.8102 13.8141 12.0573C14.0258 12.557 14.2598 13.109 14.3009 13.1889C14.3624 13.3083 14.4034 13.4476 14.3214 13.6068C14.3091 13.6307 14.2977 13.6532 14.2869 13.6748C14.2253 13.7967 14.18 13.8864 14.0754 14.0047C14.0343 14.0512 13.9918 14.1014 13.9493 14.1515C13.8647 14.2515 13.78 14.3514 13.7063 14.4226C13.5832 14.5415 13.4549 14.6706 13.5985 14.9094C13.742 15.1482 14.2358 15.9292 14.9672 16.5617C15.7534 17.2416 16.4368 17.5289 16.7832 17.6746C16.8508 17.703 16.9056 17.7261 16.9458 17.7456C17.1917 17.865 17.3353 17.845 17.4788 17.6859C17.6223 17.5267 18.0939 16.9894 18.2579 16.7506C18.4218 16.5119 18.5859 16.5517 18.8114 16.6312C19.037 16.7109 20.2466 17.2879 20.4927 17.4072C20.5407 17.4306 20.5856 17.4516 20.6272 17.4711Z" fill="#F3F3F3"/>
</svg>
