<svg width="147" height="171" viewBox="0 0 147 171" fill="none" xmlns="http://www.w3.org/2000/svg">
<mask id="path-1-inside-1_4196_3511" fill="white">
<path d="M1.2607 143.157C0.616236 143.78 0.598073 144.809 1.23359 145.441C10.747 154.909 22.3733 161.994 35.1648 166.109C48.4717 170.389 62.6289 171.321 76.3822 168.823C90.1354 166.325 103.06 160.473 114.012 151.787C124.964 143.101 133.604 131.847 139.168 119.024C144.732 106.201 147.047 92.203 145.909 78.2711C144.771 64.3392 140.215 50.9029 132.644 39.1525C125.072 27.4021 114.72 17.7003 102.504 10.9064C90.761 4.37566 77.644 0.725712 64.2311 0.245764C63.3351 0.213708 62.5961 0.929932 62.5811 1.8264C62.5662 2.72286 63.281 3.46002 64.177 3.49276C77.056 3.96338 89.6496 7.47272 100.926 13.7439C112.676 20.2783 122.632 29.6096 129.914 40.9111C137.196 52.2127 141.579 65.1357 142.673 78.5354C143.768 91.9352 141.541 105.398 136.189 117.732C130.838 130.065 122.528 140.889 111.994 149.243C101.461 157.598 89.0298 163.226 75.8019 165.628C62.5739 168.031 48.9576 167.134 36.1589 163.018C23.8758 159.067 12.7097 152.268 3.56783 143.184C2.93184 142.552 1.90517 142.533 1.2607 143.157Z"/>
</mask>
<path d="M1.2607 143.157C0.616236 143.78 0.598073 144.809 1.23359 145.441C10.747 154.909 22.3733 161.994 35.1648 166.109C48.4717 170.389 62.6289 171.321 76.3822 168.823C90.1354 166.325 103.06 160.473 114.012 151.787C124.964 143.101 133.604 131.847 139.168 119.024C144.732 106.201 147.047 92.203 145.909 78.2711C144.771 64.3392 140.215 50.9029 132.644 39.1525C125.072 27.4021 114.72 17.7003 102.504 10.9064C90.761 4.37566 77.644 0.725712 64.2311 0.245764C63.3351 0.213708 62.5961 0.929932 62.5811 1.8264C62.5662 2.72286 63.281 3.46002 64.177 3.49276C77.056 3.96338 89.6496 7.47272 100.926 13.7439C112.676 20.2783 122.632 29.6096 129.914 40.9111C137.196 52.2127 141.579 65.1357 142.673 78.5354C143.768 91.9352 141.541 105.398 136.189 117.732C130.838 130.065 122.528 140.889 111.994 149.243C101.461 157.598 89.0298 163.226 75.8019 165.628C62.5739 168.031 48.9576 167.134 36.1589 163.018C23.8758 159.067 12.7097 152.268 3.56783 143.184C2.93184 142.552 1.90517 142.533 1.2607 143.157Z" stroke="#B5B5B5" stroke-opacity="0.4" stroke-width="6" stroke-linejoin="round" mask="url(#path-1-inside-1_4196_3511)"/>
</svg>
