<svg width="16" height="16" viewBox="0 0 16 16" fill="none" xmlns="http://www.w3.org/2000/svg">
<path fill-rule="evenodd" clip-rule="evenodd" d="M13.7111 3.04418C13.7607 2.99459 13.8 2.93572 13.8268 2.87093C13.8537 2.80614 13.8675 2.7367 13.8675 2.66658C13.8675 2.59645 13.8537 2.52701 13.8268 2.46222C13.8 2.39743 13.7607 2.33856 13.7111 2.28898C13.6615 2.23939 13.6026 2.20005 13.5378 2.17322C13.4731 2.14638 13.4036 2.13257 13.3335 2.13257C13.2634 2.13257 13.1939 2.14638 13.1291 2.17322C13.0643 2.20005 13.0055 2.23939 12.9559 2.28898L8.00015 7.24578L3.04442 2.28898C2.99483 2.23939 2.93596 2.20005 2.87118 2.17322C2.80639 2.14638 2.73695 2.13257 2.66682 2.13257C2.59669 2.13257 2.52725 2.14638 2.46246 2.17322C2.39768 2.20005 2.33881 2.23939 2.28922 2.28898C2.23963 2.33856 2.2003 2.39743 2.17346 2.46222C2.14663 2.52701 2.13281 2.59645 2.13281 2.66658C2.13281 2.7367 2.14663 2.80614 2.17346 2.87093C2.2003 2.93572 2.23963 2.99459 2.28922 3.04418L7.24602 7.99991L2.28922 12.9556C2.18907 13.0558 2.13281 13.1916 2.13281 13.3332C2.13281 13.4749 2.18907 13.6107 2.28922 13.7108C2.38937 13.811 2.52519 13.8672 2.66682 13.8672C2.80845 13.8672 2.94427 13.811 3.04442 13.7108L8.00015 8.75404L12.9559 13.7108C13.056 13.811 13.1919 13.8672 13.3335 13.8672C13.4751 13.8672 13.6109 13.811 13.7111 13.7108C13.8112 13.6107 13.8675 13.4749 13.8675 13.3332C13.8675 13.1916 13.8112 13.0558 13.7111 12.9556L8.75429 7.99991L13.7111 3.04418Z" fill="black"/>
</svg>
