<svg width="32" height="32" viewBox="0 0 32 32" fill="none" xmlns="http://www.w3.org/2000/svg">
<path d="M8.29 19.71C8.1017 19.5217 7.99591 19.2663 7.99591 19C7.99591 18.7337 8.1017 18.4783 8.29 18.29C8.4783 18.1017 8.7337 17.9959 9 17.9959C9.2663 17.9959 9.5217 18.1017 9.71 18.29L15 23.59V3C15 2.73478 15.1054 2.48043 15.2929 2.29289C15.4804 2.10536 15.7348 2 16 2C16.2652 2 16.5196 2.10536 16.7071 2.29289C16.8946 2.48043 17 2.73478 17 3V23.59L22.29 18.29C22.3832 18.1968 22.4939 18.1228 22.6158 18.0723C22.7376 18.0219 22.8681 17.9959 23 17.9959C23.1319 17.9959 23.2624 18.0219 23.3842 18.0723C23.5061 18.1228 23.6168 18.1968 23.71 18.29C23.8032 18.3832 23.8772 18.4939 23.9277 18.6158C23.9781 18.7376 24.0041 18.8681 24.0041 19C24.0041 19.1319 23.9781 19.2624 23.9277 19.3842C23.8772 19.5061 23.8032 19.6168 23.71 19.71L16.71 26.71C16.617 26.8037 16.5064 26.8781 16.3846 26.9289C16.2627 26.9797 16.132 27.0058 16 27.0058C15.868 27.0058 15.7373 26.9797 15.6154 26.9289C15.4936 26.8781 15.383 26.8037 15.29 26.71L8.29 19.71ZM29 25C28.7348 25 28.4804 25.1054 28.2929 25.2929C28.1054 25.4804 28 25.7348 28 26V29H4V26C4 25.7348 3.89464 25.4804 3.70711 25.2929C3.51957 25.1054 3.26522 25 3 25C2.73478 25 2.48043 25.1054 2.29289 25.2929C2.10536 25.4804 2 25.7348 2 26V30C2 30.2652 2.10536 30.5196 2.29289 30.7071C2.48043 30.8946 2.73478 31 3 31H29C29.2652 31 29.5196 30.8946 29.7071 30.7071C29.8946 30.5196 30 30.2652 30 30V26C30 25.7348 29.8946 25.4804 29.7071 25.2929C29.5196 25.1054 29.2652 25 29 25Z" fill="black"/>
</svg>
