<svg width="16" height="16" viewBox="0 0 16 16" fill="none" xmlns="http://www.w3.org/2000/svg">
<path d="M5.38806 15.5809V12.5938C5.8422 12.4973 6.25123 12.2336 6.54524 11.8475C6.83926 11.4614 7 10.977 7 10.4771C7 9.97722 6.83926 9.49284 6.54524 9.10677C6.25123 8.72069 5.8422 8.45689 5.38806 8.36046L5.38806 0.419141C5.38806 0.307978 5.34717 0.201368 5.2744 0.122764C5.20162 0.0441599 5.10292 0 5 0C4.89708 0 4.79838 0.0441599 4.7256 0.122764C4.65283 0.201368 4.61194 0.307978 4.61194 0.419141L4.61194 8.36046C4.1578 8.45689 3.74877 8.72069 3.45476 9.10677C3.16074 9.49284 3 9.97722 3 10.4771C3 10.977 3.16074 11.4614 3.45476 11.8475C3.74877 12.2336 4.1578 12.4973 4.61194 12.5938V15.5809C4.61194 15.692 4.65283 15.7986 4.7256 15.8772C4.79838 15.9558 4.89708 16 5 16C5.10292 16 5.20162 15.9558 5.2744 15.8772C5.34717 15.7986 5.38806 15.692 5.38806 15.5809ZM3.77891 10.4785C3.77891 10.2177 3.85052 9.96267 3.9847 9.74578C4.11887 9.52889 4.30958 9.35984 4.53271 9.26002C4.75583 9.16019 5.00135 9.13408 5.23822 9.18497C5.47509 9.23586 5.69267 9.36147 5.86344 9.54592C6.03422 9.73037 6.15051 9.96537 6.19763 10.2212C6.24475 10.4771 6.22056 10.7422 6.12814 10.9832C6.03572 11.2242 5.87921 11.4302 5.6784 11.5751C5.4776 11.7201 5.24151 11.7974 5 11.7974C4.67636 11.7967 4.36616 11.6575 4.13731 11.4103C3.90846 11.1631 3.77959 10.8281 3.77891 10.4785Z" fill="black"/>
<path d="M10.6107 0.419141V3.45093C10.1565 3.54875 9.74778 3.81296 9.45413 4.19861C9.16048 4.58426 9 5.06752 9 5.56619C9 6.06486 9.16048 6.54812 9.45413 6.93377C9.74778 7.31942 10.1565 7.58363 10.6107 7.68145V15.5809C10.6107 15.692 10.6517 15.7986 10.7247 15.8772C10.7977 15.9558 10.8967 16 11 16C11.1033 16 11.2023 15.9558 11.2753 15.8772C11.3483 15.7986 11.3893 15.692 11.3893 15.5809V7.68145C11.8435 7.58363 12.2522 7.31942 12.5459 6.93377C12.8395 6.54812 13 6.06486 13 5.56619C13 5.06752 12.8395 4.58426 12.5459 4.19861C12.2522 3.81296 11.8435 3.54875 11.3893 3.45093V0.419141C11.3893 0.307978 11.3483 0.201368 11.2753 0.122764C11.2023 0.0441599 11.1033 0 11 0C10.8967 0 10.7977 0.0441599 10.7247 0.122764C10.6517 0.201368 10.6107 0.307978 10.6107 0.419141ZM12.2251 5.56619C12.2251 5.82704 12.1532 6.08204 12.0186 6.29893C11.884 6.51582 11.6927 6.68487 11.4688 6.78469C11.245 6.88451 10.9986 6.91063 10.761 6.85974C10.5234 6.80885 10.3051 6.68324 10.1337 6.49879C9.9624 6.31434 9.84572 6.07933 9.79845 5.82349C9.75118 5.56765 9.77544 5.30247 9.86817 5.06147C9.96089 4.82047 10.1179 4.61449 10.3194 4.46957C10.5208 4.32465 10.7577 4.24729 11 4.24729C11.3247 4.24803 11.6359 4.38722 11.8655 4.6344C12.0951 4.88159 12.2244 5.21662 12.2251 5.56619Z" fill="black"/>
</svg>
