<svg width="14" height="12" viewBox="0 0 14 12" fill="none" xmlns="http://www.w3.org/2000/svg">
<path fill-rule="evenodd" clip-rule="evenodd" d="M8.28329 0.431676C8.28329 0.431676 7.50092 0.833692 7 1.48276C7 1.48276 6.49908 0.833691 5.71671 0.431676C5.71671 0.431676 4.48954 -0.198909 3.12621 0.0642071C3.12621 0.0642071 1.76289 0.327323 0.881447 1.36487C0.881447 1.36487 0 2.40241 0 3.74404C0 3.74404 0 6.62505 3.41239 9.58866C3.41239 9.58866 4.45218 10.4917 5.69766 11.301C5.69766 11.301 6.32297 11.7073 6.74665 11.9362C6.90405 12.0213 7.09595 12.0213 7.25343 11.9362C7.25343 11.9362 7.67881 11.7062 8.30446 11.2996C8.30446 11.2996 9.54995 10.4901 10.5895 9.58702C10.5895 9.58702 14 6.6242 14 3.74404C14 3.74404 14 2.40241 13.1186 1.36487C13.1186 1.36487 12.2371 0.327323 10.8738 0.0642072C10.8738 0.0642072 9.51046 -0.198909 8.28329 0.431676ZM5.22929 1.31497C5.22929 1.31497 6.12923 1.7774 6.52137 2.68559C6.57397 2.80741 6.67432 2.90425 6.8006 2.95503L6.80239 2.95574C6.92886 3.00599 7.07096 3.00606 7.19743 2.95581L7.19943 2.95501C7.32568 2.90425 7.42603 2.80741 7.47863 2.68559C7.47863 2.68559 7.87077 1.7774 8.77071 1.31497C8.77071 1.31497 9.67064 0.852545 10.6704 1.0455C10.6704 1.0455 11.6702 1.23845 12.3166 1.99931C12.3166 1.99931 12.963 2.76018 12.963 3.74404C12.963 3.74404 12.963 6.1786 9.89566 8.84328C9.89566 8.84328 8.91023 9.69935 7.72515 10.4696C7.72515 10.4696 7.31341 10.7372 6.99998 10.9202C6.99998 10.9202 6.68777 10.7379 6.27687 10.4709C6.27687 10.4709 5.0918 9.70087 4.10613 8.84483C4.10613 8.84483 1.03704 6.17937 1.03704 3.74404C1.03704 3.74404 1.03704 2.76018 1.68343 1.99931C1.68343 1.99931 2.32983 1.23845 3.32959 1.0455C3.32959 1.0455 4.32936 0.852545 5.22929 1.31497Z" fill="#141414"/>
</svg>
