<svg width="22" height="20" viewBox="0 0 22 20" fill="none" xmlns="http://www.w3.org/2000/svg">
<path fill-rule="evenodd" clip-rule="evenodd" d="M13.0166 0.71946C13.0166 0.71946 11.7872 1.38949 11 2.47127C11 2.47127 10.2128 1.38949 8.98341 0.71946C8.98341 0.71946 7.05499 -0.331515 4.91262 0.107012C4.91262 0.107012 2.77026 0.545539 1.38513 2.27478C1.38513 2.27478 0 4.00401 0 6.24007C0 6.24007 0 11.0418 5.36233 15.9811C5.36233 15.9811 6.99628 17.4862 8.95347 18.8349C8.95347 18.8349 9.9361 19.5121 10.6019 19.8937C10.8492 20.0354 11.1508 20.0354 11.3982 19.8936C11.3982 19.8936 12.0667 19.5103 13.0499 18.8326C13.0499 18.8326 15.0071 17.4835 16.6407 15.9784C16.6407 15.9784 22 11.0403 22 6.24007C22 6.24007 22 4.00401 20.6149 2.27478C20.6149 2.27478 19.2297 0.545539 17.0874 0.107012C17.0874 0.107012 14.945 -0.331515 13.0166 0.71946ZM8.21746 2.19162C8.21746 2.19162 9.63164 2.96234 10.2479 4.47598C10.3305 4.67902 10.4882 4.84042 10.6867 4.92504L10.6895 4.92624C10.8882 5.00999 11.1115 5.01011 11.3102 4.92635L11.3134 4.92502C11.5118 4.84042 11.6695 4.67902 11.7521 4.47598C11.7521 4.47598 12.3684 2.96234 13.7825 2.19162C13.7825 2.19162 15.1967 1.42091 16.7678 1.74249C16.7678 1.74249 18.3388 2.06408 19.3546 3.33219C19.3546 3.33219 20.3704 4.60029 20.3704 6.24007C20.3704 6.24007 20.3704 10.2977 15.5503 14.7388C15.5503 14.7388 14.0018 16.1656 12.1395 17.4493C12.1395 17.4493 11.4925 17.8953 11 18.2004C11 18.2004 10.5094 17.8964 9.86366 17.4515C9.86366 17.4515 8.00139 16.1681 6.45249 14.7414C6.45249 14.7414 1.62963 10.299 1.62963 6.24007C1.62963 6.24007 1.62963 4.6003 2.64539 3.33219C2.64539 3.33219 3.66116 2.06408 5.23222 1.74249C5.23222 1.74249 6.80328 1.42091 8.21746 2.19162Z" fill="white"/>
</svg>
