<svg width="32" height="33" viewBox="0 0 32 33" fill="none" xmlns="http://www.w3.org/2000/svg">
<g clip-path="url(#clip0_6001_4978)">
<path d="M2.56371 14.4549C2.73026 14.5216 2.92341 14.5216 3.08996 14.4416L8.29236 12.0769C8.6254 11.917 8.76528 11.5174 8.60542 11.1843C8.45223 10.8646 8.07254 10.718 7.74612 10.8646L4.10244 12.5232C5.84101 7.32082 10.6837 3.84369 16.2591 3.84369C22.101 3.84369 27.2101 7.74716 28.6822 13.3359C28.7754 13.6889 29.1418 13.9021 29.4948 13.8088C29.8478 13.7156 30.061 13.3492 29.9677 12.9961C28.3424 6.82792 22.707 2.51147 16.259 2.51147C10.1108 2.51147 4.76183 6.34831 2.83011 12.0903L1.29806 8.26011C1.18484 7.91371 0.805158 7.72056 0.458756 7.83378C0.112354 7.94699 -0.0807995 8.32668 0.0324197 8.67308C0.0391017 8.69975 0.0524032 8.72635 0.0657048 8.75302L2.19064 14.0819C2.25727 14.2485 2.39048 14.3884 2.56371 14.4549Z" fill="black"/>
<path d="M31.9595 24.2867C31.9528 24.2734 31.9462 24.2601 31.9462 24.2468L29.8213 18.9179C29.7546 18.7513 29.6214 18.6114 29.4483 18.5449C29.2817 18.4782 29.0886 18.4849 28.922 18.5582L23.7196 20.9229C23.3799 21.0628 23.22 21.4558 23.3599 21.7955C23.4998 22.1352 23.8928 22.2951 24.2325 22.1552C24.2458 22.1485 24.2592 22.1419 24.2725 22.1352L27.9162 20.4766C26.1643 25.679 21.3149 29.1561 15.7462 29.1561C9.90432 29.1561 4.79522 25.2526 3.32312 19.6639C3.22988 19.3109 2.8635 19.0977 2.51048 19.191C2.15745 19.2842 1.94425 19.6506 2.03755 20.0036C3.65622 26.1786 9.29826 30.4883 15.7463 30.4883C21.8945 30.4883 27.2368 26.6515 29.1752 20.9095L30.7072 24.7397C30.8338 25.0861 31.2135 25.2659 31.5598 25.1394C31.9062 25.0128 32.086 24.6331 31.9595 24.2867Z" fill="black"/>
</g>
<defs>
<clipPath id="clip0_6001_4978">
<rect width="32" height="32" fill="white" transform="translate(0 0.5)"/>
</clipPath>
</defs>
</svg>
