<svg width="33" height="33" viewBox="0 0 33 33" fill="none" xmlns="http://www.w3.org/2000/svg">
<g clip-path="url(#clip0_4254_4916)">
<path d="M31.233 7.56072L16.7038 0.546594C16.575 0.484469 16.425 0.484469 16.2962 0.546594L1.76689 7.56072C1.60489 7.63891 1.50195 7.80297 1.50195 7.98284V25.0172C1.50195 25.197 1.60489 25.3611 1.76689 25.4393L16.2961 32.4534C16.3605 32.4845 16.4303 32.5 16.5 32.5C16.5696 32.5 16.6393 32.4845 16.7038 32.4534L31.233 25.4393C31.395 25.3611 31.498 25.197 31.498 25.0172V7.98291C31.498 7.80291 31.395 7.63897 31.233 7.56072ZM16.5 1.48928L29.951 7.98284L26.0518 9.86522C26.0271 9.84641 26.0011 9.82903 25.9725 9.81522L12.6128 3.36584L16.5 1.48928ZM11.5541 3.89584L24.9856 10.38L22.2347 11.708L8.80877 5.22653L11.5541 3.89584ZM25.2999 11.2692V16.1783L22.7303 17.4188V12.5097L25.2999 11.2692ZM30.5605 24.723L16.9687 31.2844V15.2912L20.2108 13.726C20.4439 13.6135 20.5416 13.3333 20.4291 13.1001C20.3165 12.867 20.0363 12.7692 19.8031 12.8818L16.5 14.4765L15.2002 13.849C14.967 13.7363 14.6868 13.8342 14.5743 14.0673C14.4617 14.3004 14.5595 14.5807 14.7926 14.6932L16.0312 15.2912V31.2844L2.43945 24.7229V8.72966L12.7895 13.7262C12.8551 13.758 12.9246 13.773 12.9929 13.773C13.1671 13.773 13.3345 13.6753 13.4153 13.5079C13.5279 13.2748 13.4301 12.9945 13.197 12.882L3.04889 7.98284L7.70545 5.73484L21.7863 12.5325C21.7884 12.5354 21.7907 12.538 21.7928 12.5408V18.1657C21.7928 18.327 21.8758 18.477 22.0124 18.5628C22.0883 18.6104 22.1748 18.6345 22.2616 18.6345C22.3311 18.6345 22.4008 18.619 22.4654 18.5878L25.9725 16.8948C26.1345 16.8166 26.2374 16.6526 26.2374 16.4727V10.8167L30.5605 8.72972V24.723Z" fill="black"/>
<path d="M6.30877 22.905L4.17658 21.8756C3.94333 21.763 3.6632 21.8608 3.55064 22.094C3.43808 22.3271 3.53583 22.6073 3.76895 22.7199L5.90114 23.7492C5.96683 23.781 6.03626 23.796 6.10458 23.796C6.27883 23.796 6.4462 23.6983 6.52701 23.5309C6.63964 23.2977 6.54189 23.0176 6.30877 22.905Z" fill="black"/>
<path d="M8.27005 21.6277L4.17849 19.6524C3.9453 19.5399 3.66512 19.6376 3.55255 19.8708C3.44005 20.1039 3.5378 20.3842 3.77093 20.4968L7.86249 22.472C7.92818 22.5037 7.99762 22.5188 8.06593 22.5188C8.24018 22.5188 8.40755 22.4211 8.48837 22.2537C8.60093 22.0204 8.50318 21.7402 8.27005 21.6277Z" fill="black"/>
</g>
<defs>
<clipPath id="clip0_4254_4916">
<rect width="32" height="32" fill="white" transform="translate(0.5 0.5)"/>
</clipPath>
</defs>
</svg>
