<svg width="38" height="38" viewBox="0 0 38 38" fill="none" xmlns="http://www.w3.org/2000/svg">
<path fill-rule="evenodd" clip-rule="evenodd" d="M38 19C38 29.4934 29.4934 38 19 38C8.50662 38 0 29.4934 0 19C0 8.50662 8.50662 0 19 0C29.4934 0 38 8.50662 38 19ZM13.0544 16.7002C11.1258 17.5321 9.14424 18.3868 7.33228 19.3728L7.33215 19.3729C6.38595 20.0573 7.64365 20.5413 8.82346 20.9954C9.01102 21.0676 9.19661 21.139 9.37107 21.2104C9.51623 21.2544 9.66386 21.3009 9.81345 21.348C11.1256 21.761 12.5887 22.2216 13.8626 21.5288C15.9552 20.3412 17.9301 18.9683 19.9034 17.5964C20.5499 17.1469 21.1962 16.6975 21.8465 16.2548C21.877 16.2356 21.9114 16.2135 21.949 16.1894C22.5031 15.8346 23.7487 15.037 23.2879 16.1363C22.1981 17.3136 21.0309 18.3558 19.8573 19.4037C19.0663 20.1099 18.2725 20.8187 17.4976 21.5732C16.8226 22.1149 16.1218 23.2044 16.8775 23.963C18.6165 25.1657 20.3827 26.3393 22.1478 27.5121C22.7245 27.8953 23.3011 28.2784 23.8766 28.6624C24.8491 29.4294 26.3688 28.809 26.5826 27.6105C26.6776 27.0597 26.773 26.5089 26.8683 25.9581C27.3959 22.9106 27.9237 19.8621 28.39 16.8047C28.4533 16.3254 28.5251 15.8461 28.597 15.3665C28.7712 14.2037 28.9456 13.0394 29 11.8702C28.8596 10.7037 27.4279 10.9602 26.6311 11.2225C22.5357 12.762 18.4812 14.4157 14.4427 16.0985C13.9851 16.2987 13.5213 16.4988 13.0544 16.7002Z" fill="#7A7A7A"/>
</svg>
