<svg width="39" height="39" viewBox="0 0 39 39" fill="none" xmlns="http://www.w3.org/2000/svg">
<path d="M19.5 39C30.2696 39 39 30.2696 39 19.5C39 8.73045 30.2696 0 19.5 0C8.73045 0 0 8.73045 0 19.5C0 30.2696 8.73045 39 19.5 39Z" fill="#7A7A7A"/>
<path fill-rule="evenodd" clip-rule="evenodd" d="M20.5482 29.8024H20.5434C18.6268 29.8017 16.7435 29.3231 15.0708 28.4151L9 30L10.6247 24.0941C9.62249 22.3657 9.09515 20.4051 9.09601 18.3964C9.09853 12.1125 14.2359 7 20.548 7C23.6116 7.00132 26.4869 8.18823 28.649 10.3425C30.8111 12.4967 32.0012 15.3601 32 18.4054C31.9975 24.6879 26.8622 29.7998 20.5482 29.8024ZM15.3142 26.4705L15.6611 26.6763C17.1197 27.5415 18.7916 27.9993 20.4963 28H20.5002C25.7363 28 29.9979 23.7398 30 18.5034C30.001 15.9659 29.0138 13.58 27.2202 11.785C25.4266 9.98992 23.0414 9.00088 20.5039 9C15.2638 9 11.0021 13.2598 11 18.4957C10.9993 20.2901 11.5015 22.0377 12.4525 23.5496L12.6784 23.909L11.7187 27.4133L15.3142 26.4705ZM25.5527 20.9091C25.7586 21.0074 25.8976 21.0738 25.957 21.1716C26.0308 21.2932 26.0308 21.8769 25.7849 22.5579C25.5388 23.2389 24.3593 23.8604 23.792 23.9441C23.2833 24.0192 22.6396 24.0505 21.9324 23.8285C21.5035 23.6942 20.9536 23.5148 20.2492 23.2144C17.4813 22.0344 15.6108 19.3855 15.2573 18.8849C15.2325 18.8498 15.2152 18.8253 15.2056 18.8125L15.2032 18.8094C15.0469 18.6036 14 17.2243 14 15.7968C14 14.454 14.668 13.7501 14.9755 13.4262C14.9966 13.404 15.016 13.3835 15.0333 13.3648C15.304 13.073 15.6238 13 15.8207 13C16.0175 13 16.2145 13.0018 16.3865 13.0103C16.4078 13.0114 16.4298 13.0113 16.4527 13.0111C16.6247 13.0101 16.8392 13.0089 17.0508 13.5108C17.1322 13.7039 17.2513 13.9902 17.377 14.2922C17.631 14.9029 17.9117 15.5777 17.9611 15.6754C18.0349 15.8213 18.0841 15.9915 17.9857 16.1861C17.9709 16.2153 17.9573 16.2428 17.9442 16.2692C17.8703 16.4182 17.8159 16.5278 17.6905 16.6724C17.6412 16.7293 17.5902 16.7906 17.5392 16.8519C17.4376 16.974 17.336 17.0962 17.2476 17.1832C17.0998 17.3285 16.9459 17.4862 17.1182 17.7781C17.2904 18.07 17.8829 19.0246 18.7606 19.7976C19.7041 20.6286 20.5242 20.9798 20.9398 21.1578C21.021 21.1926 21.0867 21.2207 21.135 21.2446C21.4301 21.3905 21.6023 21.3661 21.7746 21.1716C21.9468 20.9771 22.5126 20.3203 22.7094 20.0285C22.9062 19.7368 23.1031 19.7854 23.3737 19.8826C23.6444 19.98 25.0959 20.6852 25.3912 20.8311C25.4488 20.8596 25.5027 20.8853 25.5527 20.9091Z" fill="#F3F3F3"/>
</svg>
