<svg width="59" height="60" viewBox="0 0 59 60" fill="none" xmlns="http://www.w3.org/2000/svg">
<g clip-path="url(#clip0_4096_1539)">
<ellipse cx="29.5" cy="30" rx="29.5" ry="30" fill="black"/>
<path fill-rule="evenodd" clip-rule="evenodd" d="M35.7649 14H23.2351C18.1428 14 14 18.1428 14 23.2351V35.7649C14 40.8572 18.1428 45 23.2351 45H35.7649C40.8572 45 45 40.8572 45 35.7649V23.2351C44.9999 18.1428 40.8571 14 35.7649 14ZM41.8814 35.7649C41.8814 39.1429 39.1429 41.8814 35.7649 41.8814H23.2351C19.8571 41.8814 17.1186 39.1429 17.1186 35.7649V23.2351C17.1186 19.857 19.8571 17.1186 23.2351 17.1186H35.7649C39.1429 17.1186 41.8814 19.857 41.8814 23.2351V35.7649ZM29 21C24.5888 21 21 24.5888 21 29C21 33.4111 24.5888 37 29 37C33.4112 37 37 33.4112 37 29C37 24.5887 33.4112 21 29 21ZM29 33.8883C26.3003 33.8883 24.1117 31.6998 24.1117 29C24.1117 26.3003 26.3003 24.1117 29 24.1117C31.6997 24.1117 33.8883 26.3003 33.8883 29C33.8883 31.6997 31.6997 33.8883 29 33.8883ZM40 22C40 23.1046 39.1046 24 38 24C36.8954 24 36 23.1046 36 22C36 20.8954 36.8954 20 38 20C39.1046 20 40 20.8954 40 22Z" fill="#F3F3F3"/>
</g>
<defs>
<clipPath id="clip0_4096_1539">
<rect width="59" height="60" fill="white"/>
</clipPath>
</defs>
</svg>
