<svg width="30" height="27" viewBox="0 0 30 27" fill="#000" xmlns="http://www.w3.org/2000/svg">
<path d="M14.5073 3.73991L15 4.405L15.4927 3.73991C16.2124 2.76822 17.1453 1.98023 18.2168 1.43776C19.2883 0.89531 20.4694 0.613095 21.6667 0.613095C23.7117 0.613095 25.6746 1.43557 27.123 2.9021C28.5717 4.36888 29.3869 6.35986 29.3869 8.43745C29.3869 12.4946 27.0681 16.7581 22.2817 21.1184C20.1124 23.0929 17.7505 24.839 15.2326 26.3297C15.1644 26.3687 15.0878 26.3882 15.0106 26.3868L15.0022 26.3867L14.9938 26.3868C14.9135 26.3876 14.8339 26.3672 14.7629 26.3271C14.7625 26.3269 14.762 26.3266 14.7616 26.3264L14.7564 26.3234C14.4173 26.1273 10.8853 24.0853 7.42833 20.8648C3.91246 17.5894 0.613095 13.2234 0.613095 8.43745C0.613095 6.79345 1.12402 5.19185 2.07245 3.85954C3.0208 2.52734 4.35815 1.53228 5.89416 1.01389C7.43007 0.495517 9.08788 0.479598 10.6332 0.968345C12.1786 1.45712 13.5343 2.42625 14.5073 3.73991Z" stroke="black" stroke-width="1.22619"/>
</svg>
