<svg width="153" height="18" viewBox="0 0 153 18" fill="none" xmlns="http://www.w3.org/2000/svg">
<path d="M9.66596 7.9679C9.45744 14.9125 16.9234 9.20323 17.666 14.9679C18.4136 20.7326 19.6889 12.5297 23.666 13.9679C27.643 15.4061 30.5973 13.1088 34.666 12.9679C38.7295 12.8329 41.5973 14.4551 45.666 13.9679C49.7346 13.4807 53.6126 12.6509 57.666 12.9679C61.7193 13.2849 67.6278 12.8211 71.666 12.9679C75.7041 13.1088 79.2534 12.6216 82.666 12.9679C86.0785 13.3201 89.2636 12.2459 92.666 12.9679C96.0683 13.6841 100.274 12.5687 103.666 12.9679C107.058 13.3671 112.48 15.4493 116.666 14.9679C120.857 14.4865 124.638 16.8719 128.666 15.9679C132.694 15.058 134.496 16.9424 138.666 15.9679C142.836 14.9934 147.004 17.8444 150.666 14.9679C154.328 12.0856 151.538 6.9582 146.666 7.9679C141.794 8.9776 137.411 5.66852 132.666 5.9679C127.921 6.26729 124.375 4.95616 119.666 4.9679C114.957 4.97964 109.319 3.19098 104.666 2.9679C100.012 2.74483 96.2686 2.24968 91.666 1.9679C87.0633 1.68613 82.7498 2.08531 78.666 1.9679C74.5821 1.8505 69.3652 1.66852 64.666 1.9679C59.9667 2.26729 55.472 1.76244 50.666 1.9679C45.8599 2.17336 39.4466 1.71548 34.666 1.9679C29.8853 2.22033 25.2177 0.838755 20.666 0.967903C16.1142 1.09705 11.4021 0.158052 8.66596 3.9679C6.26547 2.4651 5.55977 4.14401 2.66596 3.9679C3.38305 6.32191 0.46761 5.94264 0.665956 7.9679C2.8681 8.84845 6.71112 8.26729 9.66596 7.9679Z" fill="white"/>
</svg>
