<svg width="105" height="116" viewBox="0 0 105 116" fill="none" xmlns="http://www.w3.org/2000/svg">
<path d="M52.8461 11.0182C51.8539 11.5795 50.897 11.6513 50.0152 12.0113C49.1358 12.3751 48.3289 13.6631 47.8464 14.8916C48.186 14.5604 49.1585 13.6367 49.4026 13.2859C49.6445 12.9372 49.9047 13.0038 50.3463 12.9549L51.2899 12.6239C51.2673 12.9511 51.452 12.567 51.2899 12.6239C51.3137 12.2975 51.5431 11.3716 51.9025 11.3493C53.2559 10.7708 54.3651 10.5914 55.677 10.0252C56.9884 9.46029 58.3429 9.1972 59.4515 8.70111C59.8925 8.65358 59.9978 7.76784 60.0641 7.42647C60.1256 7.08563 60.5992 7.23874 61.0077 7.09545C61.237 7.22709 60.9523 7.85654 61.3387 8.03908C61.7216 8.22286 62.5727 7.07779 62.895 6.43342C62.4865 6.57671 62.0187 6.95635 61.9513 6.76444C61.9029 6.88745 61.8374 6.70067 61.9513 6.76444C60.4025 7.30775 58.8311 7.75525 57.2332 8.41953C55.6351 9.08616 54.0992 10.1568 52.8461 11.0182ZM49.8969 44.9049C50.3045 44.7619 50.2703 45.0389 50.8406 44.5738C51.4099 44.109 51.5005 43.176 51.1221 42.3556C50.749 43.1215 50.6911 43.7791 49.8969 44.9049ZM46.9028 15.2226C46.6272 15.2144 46.2172 15.251 45.9592 15.5536C45.6979 15.8585 45.252 15.6426 45.0155 15.8847C44.7799 16.1264 44.6151 16.9811 44.4029 17.1593C44.1931 17.3412 44.2183 16.3776 44.0719 16.2157C43.7335 17.0778 42.8727 18.5979 41.9031 19.096C40.9324 19.5967 40.1842 20.6521 39.7342 21.9763C40.3864 21.7475 40.5128 20.3778 40.9594 19.427C41.4018 18.4754 42.793 17.9396 43.4593 17.4903C43.2954 17.5478 43.6544 17.5302 43.4593 17.4903C43.6546 17.5279 43.9945 17.3026 44.4029 17.1593C44.6484 17.0732 45.1206 17.4919 45.3465 16.8283C45.5727 16.1681 46.1053 15.715 46.2902 16.4973C46.4021 16.0362 46.5776 15.3367 46.9028 15.2226C47.2288 15.1082 47.5686 15.4132 47.8464 14.8916L47.5154 13.948C47.6295 14.0151 47.5636 13.8273 47.5154 13.948C47.4503 14.2901 47.1473 15.1368 46.9028 15.2226ZM42.7284 51.6585C43.0565 52.0747 43.6173 51.8239 43.672 51.3275C43.7259 50.8314 43.8744 50.1968 44.2846 50.0529C44.4289 49.6841 45.1458 49.7507 45.2282 49.7218C45.8136 49.3056 46.553 48.8889 46.7845 48.1162C47.017 47.3465 46.7573 46.3255 47.0661 45.8979L48.0097 45.5669C47.5053 45.9559 47.9103 45.2836 48.0097 45.5669L48.6223 44.2922C48.8963 43.7743 49.0248 43.4624 49.2349 43.0176C49.4441 42.5731 50.4518 42.2744 50.7911 41.4119C49.1998 43.1389 47.1599 44.4889 46.1224 46.2289C45.087 47.9718 43.9621 49.9533 42.7284 51.6585ZM43.3904 53.5458C43.0795 53.9729 42.8134 53.4865 42.4468 53.8768C42.0807 54.2714 41.8357 55.6805 42.1652 56.0951C42.4734 55.6688 42.7141 55.1608 42.7778 54.8204C42.8418 54.481 43.2453 54.4455 43.7214 54.4894C44.9232 53.2207 45.4963 51.6407 46.5029 50.3344C47.5078 49.0265 49.4198 47.7202 50.2279 45.8485C49.1399 47.1833 47.4284 49.0555 46.5029 50.3344C45.5786 51.6141 44.7418 52.9674 43.7214 54.4894L43.3904 53.5458ZM49.4476 76.8548C50.1653 76.8186 50.7703 76.2882 51.3349 76.1927C51.8964 76.1029 51.9235 76.4127 52.2785 75.8617C51.5934 75.9995 51.7319 75.8921 51.3349 76.1927C50.9355 76.4896 50.1653 76.8186 49.4476 76.8548ZM38.4401 60.581C39.2347 59.4563 40.0566 58.4777 40.609 57.7007C41.1599 56.9254 40.7147 56.2887 40.8906 55.4824C40.7147 56.2887 40.5595 57.1879 39.6654 58.0317C38.7707 58.8769 38.5496 59.5883 38.4401 60.581ZM32.0519 36.3284C31.4519 37.4943 30.3998 38.0748 29.5521 38.265C29.7451 37.7743 29.8977 37.401 30.1647 36.9904C30.4318 36.5774 31.333 36.3696 32.0519 36.3284ZM37.877 65.0175C37.7113 65.0757 37.191 65.0449 36.9333 65.3486C36.6726 65.6521 37.2613 65.7643 37.2644 66.2922C37.5891 65.6493 37.6315 65.1036 37.877 65.0175C38.1215 64.9318 38.0094 65.3952 37.877 65.0175ZM36.9828 68.5105C36.9846 69.0434 37.2756 69.7337 37.3138 69.4541C37.3536 69.1762 36.7055 68.5029 36.9828 68.5105C36.7888 69.0015 36.793 69.4247 36.3702 69.7851C36.16 69.966 35.8873 70.9105 35.7576 71.0597C35.6258 70.6841 35.9799 70.2413 36.3702 69.7851C36.759 69.3306 36.7068 69.0314 36.9828 68.5105C37.2408 68.2079 37.261 68.5177 36.9828 68.5105C37.194 68.3326 36.8507 68.6617 36.9828 68.5105ZM30.99 69.5529C30.8752 69.4895 31.1862 69.5902 30.99 69.5529C31.1041 69.6201 31.2062 70.4331 31.321 70.4966C31.6318 70.5996 32.4488 69.8906 32.8773 68.8909C33.3046 67.8939 32.8829 67.1936 33.1588 66.6726C33.4034 66.5869 33.9704 66.4928 34.1025 66.3416C34.4942 66.4174 34.5092 66.199 34.1025 66.3416C33.353 66.8177 33.0733 67.2345 32.5462 67.9473C32.0191 68.6658 31.6243 69.0123 30.99 69.5529ZM31.7015 74.6021C31.3596 74.9352 30.5583 75.6917 30.1452 76.2077C29.7292 76.7237 29.9555 77.122 29.5326 77.4824C30.1044 77.8131 30.2907 77.5357 30.4763 77.1514C30.6622 76.768 30.7549 77.6904 30.8073 78.095C30.6713 77.1884 30.6569 76.0836 31.0889 75.8767C31.5205 75.6746 31.834 74.9797 31.7015 74.6021ZM40.94 58.6443L39.9964 58.9754C39.7539 59.5917 40.3336 59.8119 40.3274 59.919C40.3183 60.0293 40.5929 60.6758 40.6584 60.8626C39.7475 61.3977 38.7071 61.4923 38.1586 62.7993C37.6084 64.1045 36.3527 66.0818 35.3771 66.9542C35.1018 67.4772 35.7148 67.5255 35.7081 67.8979C35.703 68.2719 35.1558 68.306 34.7645 68.2289C34.2639 69.1479 33.2299 70.5686 32.5957 71.1092C31.9609 71.6511 31.6222 71.7693 31.0394 72.7148L31.9831 72.3838C31.837 72.7532 31.7614 73.2044 31.3705 73.6585C30.9816 74.113 30.2031 74.8096 29.8142 75.2641C29.424 75.7203 29.4522 76.0786 29.2016 76.5388C28.952 76.9986 28.4572 77.4378 28.589 77.8134C28.8639 77.2951 29.6836 76.8491 30.1452 76.2077C30.6079 75.5694 31.1801 75.2091 31.7015 74.6021C32.0435 74.2723 31.7318 73.1058 31.9831 72.3838C32.2314 71.6593 32.4021 71.6012 32.5957 71.1092C33.0695 71.155 33.7922 70.5857 33.5393 70.7782C33.2857 70.9743 32.5651 71.544 32.5957 71.1092C33.0695 71.155 34.061 71.0712 34.4829 70.4471C34.9029 69.8204 34.6539 69.2214 35.0955 69.1725C34.8519 69.258 34.8394 69.9003 34.4829 70.4471C34.3057 70.7248 34.5466 70.1067 34.4829 70.4471C34.7911 70.0209 35.3401 69.4613 36.0391 68.8415C36.7373 68.2277 37.2213 67.4771 37.2644 66.2922C36.6787 66.7132 35.7296 67.3094 35.7081 67.8979C35.6856 68.4889 35.175 68.6162 34.7645 68.2289C35.5409 66.7913 36.7614 65.3576 37.5459 64.0739C38.333 62.7916 39.8156 62.1137 40.6584 60.8626C40.9181 60.5618 41.0208 60.0491 41.271 59.588C41.521 59.1291 41.3096 57.9874 41.5526 57.3697C41.831 57.3804 42.3977 57.2853 42.4962 57.0387C42.5297 57.1341 42.5432 56.9173 42.4962 57.0387C42.8379 56.7079 42.9851 56.9744 43.4398 56.7077C43.8974 56.4434 43.9362 55.3684 43.7214 54.4894C43.0875 55.031 42.6338 55.3486 42.1652 56.0951C41.6947 56.8444 41.0812 57.7477 40.94 58.6443ZM32.5118 85.975C32.0273 87.2065 30.7494 88.0794 29.0683 88.2427C29.41 87.9119 30.1641 87.8064 30.9556 87.5807C31.746 87.3576 32.2693 86.5914 32.5118 85.975ZM25.7581 78.8065C25.7092 78.9308 26.0824 78.6927 25.7581 78.8065C25.7916 78.9019 25.8048 78.6841 25.7581 78.8065C26.667 77.7465 28.0225 75.7872 28.5396 74.6515C29.057 73.5168 29.198 72.8324 29.7648 72.1022C27.7315 73.877 26.627 76.064 25.7581 78.8065ZM28.3074 80.0317C28.1643 80.9313 27.7398 81.7152 27.0822 82.581C26.4263 83.4484 25.7285 85.1782 25.2444 86.4049C25.321 85.3211 25.4168 83.8556 26.1386 82.912C26.8602 81.9708 27.8862 80.9217 28.3074 80.0317ZM22.9767 82.9614C23.2176 82.349 23.1588 82.1559 23.5893 81.6868C24.0198 81.2176 24.8059 80.9425 25.1455 80.0811L24.2019 80.4121C24.1412 81.2829 24.0686 81.3596 23.5893 81.6868C23.1074 82.0149 22.7931 82.1798 22.9767 82.9614ZM11.06 48.9909C11.3665 48.5653 11.3088 48.3753 11.6726 47.7163C12.0373 47.0594 12.3022 46.7538 12.2853 46.4416C11.943 46.7738 11.8589 47.334 11.6726 47.7163C11.4849 48.1002 11.3639 48.036 11.06 48.9909ZM25.526 84.1866C25.2169 84.6131 24.9979 84.267 24.5824 84.5176C24.1666 84.7707 23.9004 85.0755 23.9697 85.7923C23.7734 85.7574 23.1393 86.1908 23.0261 86.1233C22.7954 85.9933 23.3667 85.9001 23.9697 85.7923C23.8045 85.3212 24.3153 84.9306 24.5824 84.5176C24.8498 84.1057 24.8891 84.1979 25.526 84.1866ZM26.6673 96.5032C27.1087 96.4567 27.5853 95.9714 27.6109 96.1721C27.5793 96.6097 27.6348 96.3793 27.6109 96.1721C27.3467 95.4189 26.9861 95.1737 27.2799 95.2285C27.5754 95.2851 28.0585 94.427 27.8925 93.9539C27.4841 94.0972 26.5557 95.2716 26.3363 95.5595C26.1162 95.8511 26.6143 95.5692 26.3363 95.5595C26.1707 95.0875 26.2386 94.4811 26.9489 94.2849C27.6573 94.0917 27.5498 94.2873 27.8925 93.9539L28.2235 94.8975C28.257 94.9929 28.1384 94.3995 28.2235 94.8975C28.0953 95.3148 28.1266 95.1459 28.2235 94.8975C28.3516 94.4826 29.0838 94.0679 29.1672 94.5665L28.5546 95.8411C28.5388 96.0599 28.6539 96.1244 28.5546 95.8411C28.5222 95.7488 28.2396 95.21 28.2235 94.8975C28.1585 95.2396 28.3574 95.8066 28.5546 95.8411C28.7506 95.8807 28.1843 96.5017 27.942 97.1158C27.6119 96.7025 27.4876 95.9538 27.6109 96.1721C27.734 96.3952 27.357 97.4282 26.9983 97.4468C27.1816 98.2331 27.7853 98.1244 27.3294 98.3904C26.8727 98.6543 25.7838 98.7217 25.4421 99.0524C25.0645 98.7619 25.2718 99.2194 25.4421 99.0524C25.6123 98.8879 26.0729 98.0907 26.0547 97.7778C26.4125 97.7595 26.8284 97.8787 26.9983 97.4468C27.1672 97.0176 26.767 96.7874 26.6673 96.5032ZM22.6112 100.046C22.8396 100.177 23.0544 100.79 22.9423 100.989C22.828 101.188 23.1368 100.761 22.9423 100.989C22.7483 101.216 22.1506 101.107 21.9986 101.32C21.8445 101.533 22.2634 102.075 22.3296 102.264C22.2481 102.292 22.4294 102.548 22.3296 102.264C22.2972 102.171 21.9841 101.54 21.9986 101.32C21.8347 101.378 21.4395 102.098 21.386 102.595C21.3307 103.092 21.2927 103.265 20.4424 102.926C21.0108 102.197 21.2284 101.062 22.6112 100.046ZM16.9001 98.8697C17.4535 98.3598 18.4547 98.6978 18.7873 98.2077C19.1183 97.7216 19.1401 97.2363 19.3999 96.933C18.7962 97.0388 18.7707 96.7308 18.4563 97.2641C18.1395 97.7993 17.1428 98.2567 16.9001 98.8697ZM44.7145 57.3203C44.1408 56.9925 42.9872 57.3972 42.8272 57.9823C42.6671 58.5698 42.8215 59.682 42.5457 60.2006L43.4893 59.8695C43.6922 59.7984 44.0373 58.9357 44.1019 58.5949C44.0373 58.9357 43.8296 59.5404 43.4893 59.8695C43.2786 60.0518 42.7078 60.1437 42.5457 60.2006C41.8077 59.9293 41.6554 60.0369 41.602 60.5316C41.5455 61.0286 41.0991 60.814 40.6584 60.8626C40.742 61.3646 40.957 61.7139 40.9894 61.8062L41.3204 62.7499C40.8277 62.3948 40.7178 62.4841 40.3768 63.0809C40.0373 63.676 39.2725 63.9978 39.7642 64.3555C39.4381 64.4699 39.8219 64.3894 39.7642 64.3555C39.7064 64.3239 39.5992 63.885 39.4332 63.4119C38.5888 64.6613 37.8887 66.9202 36.9828 68.5105C36.076 70.101 35.0439 71.4167 34.2013 72.6654C34.5938 72.7432 35.1299 72.5552 35.1449 72.3344C34.7343 71.9494 35.1588 72.1186 35.1449 72.3344C34.8511 72.5435 34.6368 73.2543 34.5323 73.609C34.4279 73.9638 34.0648 74.517 33.9197 74.8837C33.7745 75.2527 34.2362 74.6113 33.9197 74.8837C33.6031 75.1526 32.5542 75.4699 32.0325 75.5457C32.5207 75.3744 32.5826 76.2004 32.3635 76.4893C32.1427 76.7789 32.361 75.963 32.0325 75.5457L32.3635 76.4893L31.4199 76.8203C31.0114 76.9636 30.9949 76.9164 31.4199 76.8203C31.8444 76.7256 31.7474 77.235 31.7509 77.764C31.2278 77.8414 30.8973 77.9574 30.8073 78.095C30.7186 78.231 30.8208 77.8782 30.8073 78.095C30.7911 78.3127 31.1272 78.8823 31.1383 79.0386C31.1463 79.1948 30.5198 79.2556 30.1947 79.3696C29.8677 79.4843 30.0961 79.6163 30.1947 79.3696L29.8636 78.426C29.4215 78.4762 29.8857 78.1002 29.8636 78.426C29.84 78.7501 29.6425 79.7754 29.251 79.7007C29.2016 79.8263 29.3664 79.7685 29.251 79.7007C29.3308 79.6727 29.1978 79.2935 28.92 78.757C28.3189 79.392 27.6616 79.5183 27.3638 80.3627C27.0644 81.2111 26.4102 81.8653 25.8076 81.9683L27.6948 81.3063C27.7096 81.0902 27.3816 80.6745 27.3638 80.3627C27.4436 79.8045 27.6987 79.0794 27.9764 79.088C27.5441 79.2939 27.8108 78.616 27.9764 79.088C28.4073 78.8839 28.1369 78.5045 27.6454 78.1444C27.2369 78.2877 27.2904 78.5876 27.0328 79.4191C26.7755 80.2515 26.4386 80.8993 25.4765 81.0247L24.5329 81.3557C24.5834 81.7633 24.5171 81.5745 24.5329 81.3557C24.5477 81.1397 25.0022 80.9802 25.4765 81.0247C25.3338 81.9254 24.7393 83.1412 24.2513 83.574C23.7639 84.0112 23.0024 84.7538 22.6951 85.1797C22.0555 84.6641 21.7 84.998 21.1389 86.7853C21.4966 86.767 22.0275 86.6891 22.0825 86.4543C22.1385 86.2226 22.5847 86.1756 23.0261 86.1233C22.7692 86.9568 21.8906 87.1042 21.4699 87.729C21.0462 88.3536 20.7243 89.6882 20.2447 90.2782C19.7658 90.8704 19.0025 91.3496 18.6884 91.8839C18.3717 92.4191 18.1217 92.5063 18.0758 93.1585C17.6011 93.113 17.4834 93.8441 17.4632 94.4332C17.4411 95.0253 17.2399 94.727 16.5196 94.7642L16.8506 95.7078C16.7516 95.4256 16.9639 95.7753 16.8506 95.7078C16.6556 95.6737 17.2441 96.3103 17.1816 96.6515C17.1171 96.9922 16.7113 97.0297 16.238 96.9825C16.2677 96.5479 15.7423 95.5694 15.576 95.0952L15.907 96.0388C15.7949 96.5023 16.1718 96.7936 16.238 96.9825C16.0992 96.9782 16.2222 97.2012 16.238 96.9825C16.3769 96.9868 16.8708 97.0786 17.1816 96.6515C17.6502 96.169 18.2359 95.9664 18.7379 95.0458C19.2404 94.1296 19.147 92.516 19.6321 91.5529C20.1182 90.5871 21.2991 89.5909 21.8009 88.6726C22.3018 87.7546 22.6206 86.7969 23.0261 86.1233C23.1275 86.9372 23.1343 87.8867 22.7445 88.3416C22.3552 88.7974 22.1463 89.3991 22.1319 89.6162C22.1463 89.3991 22.5202 89.2679 23.0755 89.2852C23.6316 89.3045 23.7101 89.3807 24.0192 88.9542L24.6318 87.6795C24.8754 87.594 25.3428 88.3873 25.9064 88.2921C26.4689 88.202 26.4407 88.1047 26.85 87.9611C26.7183 87.5855 27.2105 86.881 27.4627 86.6865C27.7148 86.492 27.931 85.7806 28.0753 85.4118C28.5163 85.3643 28.7626 86.1798 29.3499 86.0244C29.9369 85.8738 30.3197 84.8377 30.9061 84.4188C30.9036 83.8895 31.5228 84.2024 31.8498 84.0878C32.1749 83.9737 32.1556 83.7684 32.7934 83.7567C33.1677 83.5217 34.388 83.3045 34.6806 83.0947C35.4299 82.6209 35.3147 82.6614 35.6243 82.7637C35.8011 81.9629 36.0503 80.5489 36.8495 80.2144C37.6454 79.8822 38.3315 80.2241 39.0677 80.496C39.2111 79.5997 40.4497 78.8984 41.5676 78.5593C42.6841 78.2218 43.5666 78.0713 44.3985 77.5663C45.3905 77.0073 46.1328 76.0572 46.8983 75.6296C47.6629 75.2023 48.8183 75.1716 49.7292 74.6365C50.1697 74.5903 50.3857 74.4062 50.6728 74.3055C50.9581 74.2054 51.306 73.8725 51.6164 73.9745C52.2183 73.3415 52.6157 73.5214 53.5037 73.3124C54.3943 73.1084 55.6348 72.6732 56.3346 72.3194C57.2977 72.1971 58.2504 71.5943 59.1654 71.3263C60.0803 71.0607 60.386 71.1125 61.0527 70.6643C61.3304 70.6729 61.8988 70.583 61.9963 70.3333C62.044 70.214 61.7326 69.5816 61.6653 69.3897C62.1067 69.3432 62.2829 69.173 62.6089 69.0586C63.4108 68.9929 64.9058 69.4198 65.7708 69.0092C66.6342 68.6026 66.9395 68.3895 67.6581 68.3472C68.0162 68.3299 68.9804 67.7796 69.5453 67.6851C70.1081 67.596 69.8861 67.4596 70.4889 67.3541L71.4326 67.0231C71.5132 66.9948 72.1519 67.6185 72.7072 67.6357C73.4748 67.4725 73.657 67.0386 74.5944 66.9737C75.534 66.9092 76.9091 67.1189 77.7563 66.9242C79.2753 66.8178 80.3749 66.7473 81.8619 66.5438C83.3465 66.3423 84.8371 65.8176 85.9674 66.1633C89.5278 66.3989 92.719 66.7084 95.7841 66.9587C98.8459 67.2112 101.915 68.5154 104.376 70.3033C101.123 69.6429 97.5216 68.9476 94.2278 68.5643C90.9369 68.1836 87.9553 67.6944 84.4111 67.769L85.6858 68.3816C84.5602 68.5655 83.3738 68.5052 82.5239 68.431C81.6752 68.3576 80.9766 68.7629 80.6366 69.0931C79.8362 69.1629 79.3675 69.6962 78.7494 69.7551C78.1282 69.814 77.1009 69.2737 76.5311 69.4735C76.3546 69.7475 76.1531 70.7731 75.9185 70.7482C75.6818 70.7286 75.7434 69.8547 75.5875 69.8045C75.4321 69.753 75.5227 69.8837 75.5875 69.8045C75.2767 69.7015 75.6505 69.7317 75.5875 69.8045C75.3905 69.7676 75.7004 69.871 75.5875 69.8045C75.4711 69.7393 75.669 69.776 75.5875 69.8045L74.6439 70.1356C74.187 70.4019 73.6031 70.6067 72.7566 70.7976C71.9075 70.9894 71.6356 71.298 70.8694 71.4596C70.1021 71.6239 69.4961 71.8906 68.9821 72.1217C68.4696 72.3568 67.8733 71.9816 68.0385 72.4527L67.7075 71.5091C67.1398 72.2395 66.1289 73.3346 65.2076 73.4457C64.2855 73.5572 64.4432 73.5018 64.264 73.7768C64.2775 73.56 63.8178 73.8295 63.3204 74.1078C62.8244 74.3901 62.5216 74.0687 62.3768 74.4388C62.0013 74.1487 61.816 74.6897 61.4331 74.7698C61.0497 74.8513 60.8074 74.8326 60.4895 75.1008C60.1715 75.3715 58.9596 75.4796 58.6023 75.7629C58.2429 76.0491 58.0173 76.0753 57.6586 76.0939C57.0556 76.2017 56.3828 76.5415 55.7714 76.7559C55.16 76.9704 54.7506 77.5364 54.2152 78.3616L53.8841 77.418C53.5257 77.44 53.2324 77.5429 52.9405 77.749C52.6479 77.9588 52.3727 78.3712 51.9969 78.08C51.6691 78.195 51.765 77.9493 51.9969 78.08C52.1094 78.1454 52.1787 78.865 52.3279 79.0236C51.66 79.4712 50.8548 79.4366 50.4407 79.6857C50.0249 79.9387 50.4949 80.5154 49.8281 80.9603C49.7294 80.6791 49.6592 79.9598 49.497 80.0167C49.4481 80.141 49.9574 80.81 49.8281 80.9603C49.6624 80.4882 49.2685 80.151 49.497 80.0167C49.7257 79.8857 50.0435 79.081 50.1096 78.742C49.5223 79.1613 48.7232 80.1821 48.5534 80.3477C48.3827 80.5136 47.918 80.2525 47.6098 80.6787C47.2501 80.7 47.4866 80.7219 47.6098 80.6787C47.7321 80.6358 47.6069 80.1513 47.2788 79.7351L47.6098 80.6787C47.5134 80.9258 46.8618 81.0483 46.6662 81.0097C47.1518 80.3092 48.2277 79.4022 49.166 79.0731C50.1017 78.7448 51.086 78.6151 51.9969 78.08C51.2771 78.1216 49.9892 78.6794 49.166 79.0731C48.3445 79.4684 47.6643 78.7522 46.9477 78.7915C46.6836 78.566 46.7821 78.3194 46.9477 78.7915C47.2096 79.0189 47.8934 78.9911 47.8914 78.4604C47.3377 78.9728 46.4819 79.6988 46.3351 80.0661C46.19 80.4351 46.1923 80.3283 45.3915 80.3971C45.2432 80.2382 45.6994 79.9699 45.3915 80.3971C45.5386 80.5611 45.7281 79.6434 46.0041 79.1225C45.0068 79.1531 44.447 80.3596 43.5043 81.0592C42.5603 81.7637 41.6365 81.9299 40.6734 82.0522C41.8599 81.0009 43.4225 80.1341 45.0605 79.4535C46.6976 78.7732 48.0944 77.4367 49.4476 76.8548C49.5053 76.8887 49.4789 76.422 49.4476 76.8548C49.3894 76.8222 48.9098 77.0434 48.504 77.1858C48.6661 77.1289 49.3088 76.8505 49.4476 76.8548C49.2837 76.9123 49.5877 76.8598 49.4476 76.8548C49.3661 76.8834 49.6432 76.8933 49.4476 76.8548C48.3186 76.5098 47.3682 76.2087 46.2857 76.9042C45.2031 77.6021 43.9176 78.5838 42.8422 79.1719C42.5768 78.9458 42.3206 79.1428 41.8986 79.5029C41.7205 79.7809 41.0518 79.5879 40.955 79.8339C40.563 79.7605 40.5787 79.5441 40.955 79.8339C40.6442 79.7309 39.5881 80.1555 39.0677 80.496C38.5472 80.8388 38.4819 80.8087 38.1241 80.827C37.4567 81.2732 37.3583 82.2096 36.5679 82.4327C35.7751 82.6577 34.9226 82.4796 34.6806 83.0947C34.0127 83.5422 33.2949 84.5368 33.1244 84.7004C32.9536 84.8686 32.7667 84.6138 32.1808 85.0314C31.7061 84.9858 31.4398 85.0297 31.2372 85.3624C31.0341 85.6999 30.7665 85.7396 30.2935 85.6934L29.3499 86.0244L29.6809 86.9681C29.5161 87.0259 28.876 87.3058 28.7373 87.2991C28.5988 87.2958 28.8994 87.2422 28.7373 87.2991C28.1169 87.6239 26.9689 88.7141 26.2374 89.2358C25.5042 89.7581 24.8559 90.0402 24.6812 90.8414C24.1057 90.5143 23.6182 90.052 23.4066 90.2288C23.195 90.4114 23.883 91.3317 24.0686 92.1161C23.1039 92.2424 21.9202 92.4479 21.2377 93.1091C20.5549 93.7751 20.3016 94.3947 19.6815 94.7148C19.2597 95.0783 19.6835 95.2454 19.6815 94.7148C20.1047 94.3554 20.6917 94.5736 20.6251 94.3838C22.3517 93.5672 23.4712 91.9563 24.6812 90.8414C25.8925 89.7273 27.524 89.3181 29.0683 88.2427C27.2146 89.7436 25.5977 90.7337 24.0686 92.1161C22.5409 93.5025 20.8124 95.4821 19.3999 96.933C19.6314 97.5929 19.9944 97.3088 20.3435 96.602C20.6907 95.8982 20.6776 95.3191 20.9561 95.3274C21.0686 95.3928 22.0345 95.9051 22.2308 95.94C22.1984 95.8476 22.5747 96.1374 22.2308 95.94C22.1311 95.6557 21.8929 95.371 21.8998 94.9964C21.9056 94.6243 22.5661 94.6577 22.8434 94.6653C22.9932 95.3562 22.493 95.9045 22.2308 95.94C21.9695 95.9809 21.6269 95.9375 21.2872 96.271C20.8787 96.4143 20.5222 96.3284 20.3435 96.602C20.1654 96.88 20.0388 97.4494 19.7309 97.8767C19.4078 98.5213 19.6646 99.015 19.1183 99.1513C18.5709 99.2926 17.5728 99.4826 17.2311 99.8133C17.101 99.9673 17.2449 99.5976 17.2311 99.8133C17.0855 100.181 16.7839 101.56 16.9495 102.032L16.6185 101.088C16.3419 101.082 15.9168 100.804 15.6748 101.419C15.6098 101.761 16.1018 102.117 16.0059 102.363C16.4164 102.75 16.462 102.469 16.9495 102.032C17.4371 101.598 18.4931 101.703 18.8367 101.37C18.4283 101.513 18.8511 101.152 18.8367 101.37C18.8208 101.591 19.1184 102.173 19.1678 102.313C19.2178 102.456 18.3298 102.554 18.2241 102.644C18.1179 102.736 18.5819 102.626 18.2241 102.644C18.4372 102.994 18.6978 102.692 18.2241 102.644C18.01 102.298 18.3624 101.325 18.8367 101.37C18.117 101.411 18.0648 102.065 18.2241 102.644C18.3798 103.227 17.8552 103.833 17.6115 103.919C17.9877 104.211 18.156 104.152 18.5551 103.588C18.9525 103.024 19.1707 102.843 19.1678 102.313C19.5792 102.7 20.0561 102.216 20.1114 101.982C20.1678 101.751 19.7404 101.319 19.7804 101.039C19.8206 100.762 20.5531 100.876 20.724 100.708C20.8945 100.544 21.093 100.049 21.6676 100.377C21.6196 100.501 21.2171 101.594 21.055 101.651C20.7272 101.766 20.9859 100.935 20.724 100.708C21.1349 101.096 21.1347 101.623 21.055 101.651C21.0057 101.774 21.1688 101.717 21.055 101.651C20.8587 101.616 20.3458 101.74 20.1114 101.982C19.8749 102.224 19.6766 102.984 19.4988 103.257C19.2715 103.656 18.7338 103.314 18.5551 103.588C18.6238 104.308 18.235 104.655 17.9425 104.862C17.6487 105.072 17.4122 106 16.3863 106.468C16.4518 106.655 16.91 106.92 16.7173 107.412L15.7737 107.743C15.5292 107.829 15.8731 108.026 15.7737 107.743L15.4427 106.799C15.1655 107.319 15.1379 107.647 14.8301 108.074C14.521 108.5 14.3301 108.884 14.2175 109.348C13.908 109.774 13.1669 110.83 12.6612 110.954C12.1552 111.077 11.6314 110.784 11.7176 111.285C11.276 111.334 11.8275 111.987 12.0486 112.229C12.2712 112.469 11.6609 112.576 11.105 112.56C11.243 112.564 11.3827 112.568 11.105 112.56C10.9655 112.553 11.373 112.41 11.105 112.56C10.8345 112.708 10.4191 112.587 10.1614 112.891C9.89943 113.194 9.49496 113.757 9.54878 114.165C9.20761 114.495 9.17908 115.089 8.93617 115.44C8.69344 115.789 7.99194 115.242 7.66153 114.827C7.62841 114.733 7.77597 114.89 7.66153 114.827C7.31726 114.629 6.88271 115.101 6.71791 115.158C6.65476 115.498 7.05217 115.198 6.71791 115.158C6.3822 115.115 5.66437 114.788 5.44326 114.546C5.2211 114.307 5.22142 114.041 5.11225 113.602C5.00485 113.163 5.41663 112.754 5.72485 112.328C5.79331 113.045 5.58713 114.017 6.38689 114.215C7.18895 114.411 7.80067 113.505 7.94312 112.609C7.73129 112.524 7.87688 112.42 7.94312 112.609C8.15797 112.694 7.58172 112.098 7.6121 111.666C7.03908 111.334 7.61259 111.4 7.6121 111.666C7.61605 111.929 7.07694 111.853 6.66848 111.997C6.42241 111.55 5.80287 111.503 5.39383 111.384C4.98549 111.261 4.81901 111.847 4.45021 111.715C4.08227 111.577 4.38336 110.997 4.11919 110.771C3.85644 110.544 3.40973 109.535 3.45716 108.884C3.04958 109.027 2.64144 109.968 2.84455 110.159C3.04999 110.353 3.00556 109.574 2.51353 109.215L3.45716 108.884C2.68871 108.517 1.52342 107.975 0.907871 107.659C0.296062 107.345 0.852824 106.302 1.18946 105.441C0.716038 105.66 1.0901 105.157 1.18946 105.441C1.66111 105.222 2.43783 104.262 2.74569 103.835C2.85812 103.373 3.43749 103.699 3.68931 103.504C3.94399 103.311 3.29479 102.898 3.3583 102.56C3.22581 102.183 3.32478 102.201 3.3583 102.56C3.29479 102.898 3.3952 102.921 3.3583 102.56C3.89374 101.735 5.01038 100.553 5.52713 99.68C6.04621 98.811 6.25091 98.0501 6.75235 97.1308L6.42133 96.1871C6.36931 95.7835 6.31653 95.48 7.03393 94.9125C7.74849 94.3426 9.03163 93.8931 9.53379 92.9758C9.5147 92.6633 9.97866 92.3974 10.1464 91.7012C10.3149 91.007 10.4477 90.3248 10.759 90.4265C11.5347 88.9869 11.9571 87.7802 12.5968 86.6026C13.2344 85.4246 13.6883 83.7827 14.4346 82.7787C14.8566 82.4186 15.0566 81.9249 15.0472 81.504C15.0378 81.0855 15.3839 80.7503 15.6599 80.2294L16.6035 79.8984C16.7028 80.1816 16.848 79.8126 16.6035 79.8984C17.0111 79.7554 17.177 78.9037 17.2161 78.6237C17.2557 78.3482 17.6677 77.9369 17.8287 77.3491C18.3967 76.6196 18.2741 75.7084 19.0539 74.7998C19.833 73.8891 21.0197 73.6867 21.5538 72.8631C23.4506 70.1831 24.8399 66.6779 26.7856 63.6096C28.7304 60.5416 31.3057 58.0513 33.2921 54.9687C35.2777 51.8864 37.4484 48.3734 39.4676 45.3842C41.4858 42.3976 42.8219 39.654 45.0305 37.0743C46.1178 35.7374 47.7281 34.4874 48.7556 32.5883C49.7855 30.6907 50.9792 28.5225 52.1496 27.1587C52.9922 25.91 53.573 25.2822 54.3185 24.2784C55.0652 23.2754 55.9196 22.1286 56.4873 21.3981C56.7615 20.8778 56.874 20.7871 57.0999 20.1235C57.3261 19.4633 57.5753 18.0493 58.3251 17.5742C58.7301 16.9019 59.2813 16.8705 59.8814 15.9685C60.4804 15.0692 61.4733 13.9257 62.0502 13.0882C62.625 12.2504 62.9263 11.2457 63.2754 10.5389C63.6229 9.83614 63.9546 9.45415 63.888 9.26429C63.8022 8.76424 62.8588 8.56559 62.6134 8.65168L64.5006 7.98965C62.1336 8.29098 59.7933 9.06004 57.8953 10.3068C56 11.556 53.8878 13.514 51.9519 14.5112C51.8655 14.0124 52.0987 13.3469 52.5645 13.2365C53.028 13.1281 53.2607 12.4639 53.1771 11.9619C53.0114 12.02 52.7106 12.8672 52.5645 13.2365C52.5156 13.3609 52.5318 13.1431 52.5645 13.2365C52.1891 12.9464 51.8032 12.3908 51.2899 12.6239C50.7764 12.8593 50.1395 14.0872 49.7336 14.2296C49.6838 14.3542 49.8469 14.297 49.7336 14.2296C49.3779 14.7785 49.2113 15.37 49.121 15.5042C49.0317 15.6439 48.5191 15.5044 48.1774 15.8352C48.0012 16.6404 47.5725 16.8963 46.6212 17.4409C45.6674 17.9898 44.4279 18.4247 43.7903 18.4339C43.7592 18.8701 44.0889 19.2852 44.1213 19.3776L44.4524 20.3212C44.2069 20.4073 43.4731 20.0314 43.1777 19.7086C43.0294 19.5497 42.9133 18.9548 42.8467 18.765C42.6013 18.8511 42.4106 19.5017 42.2341 20.0396C42.0571 20.5789 43.0331 20.607 43.5087 20.6522C43.1987 21.0791 42.1783 21.8605 41.9525 22.2579C41.7258 22.6555 41.4147 22.4465 41.0089 22.5889C40.9727 21.9665 41.351 21.4622 41.6215 21.3142C41.8906 21.168 42.453 21.4467 42.5651 20.9832C42.453 21.4467 41.9467 21.2002 41.6215 21.3142C41.2936 21.4292 41.2507 21.9762 41.0089 22.5889C40.6356 23.3572 40.4738 24.3682 39.7837 25.1382C39.0935 25.9139 38.4274 27.2032 37.6148 28.0185C36.8022 28.8337 35.8124 29.0754 35.115 29.9552C34.4156 30.8378 34.2748 31.5199 33.8898 32.5044C33.8401 32.6267 33.8566 32.41 33.8898 32.5044C33.5628 32.6191 33.9367 32.3831 33.8898 32.5044C33.5474 32.8389 33.5521 33.2608 33.2771 33.7791C33.0012 34.3 32.8428 34.7791 32.6645 35.0537C32.5006 35.1112 32.7366 35.1345 32.6645 35.0537C32.5889 34.9742 32.4467 34.1776 32.3335 34.1101C32.218 34.0446 31.4561 34.6299 31.3899 34.4411C31.1462 34.5266 31.0583 35.087 30.7773 35.7158C30.494 36.3465 30.424 36.6885 30.1647 36.9904C30.424 36.6885 30.4105 35.8444 30.7773 35.7158C31.1441 35.5871 31.4784 36.0011 31.7209 35.3847C31.5447 36.19 30.8626 36.1094 30.1647 36.9904C29.4671 37.8725 29.606 39.0938 28.9395 39.5397C28.7435 39.5058 28.9564 39.8518 28.9395 39.5397C28.9414 40.0727 29.136 39.5779 28.9395 39.5397C29.0731 40.4483 28.7416 40.564 28.3269 40.8143C27.9108 41.0663 28.0551 41.7585 27.7143 42.089C27.6164 42.3377 27.6646 41.9473 27.7143 42.089L28.0453 43.0326C27.979 42.8438 28.1585 43.1001 28.0453 43.0326C27.8146 42.9026 27.2465 42.9936 27.1017 43.3636C27.3304 43.4966 27.692 44.0054 27.4327 44.3072L26.489 44.6383C26.3599 44.7919 26.9733 45.3691 26.8201 45.5819C26.6663 45.796 25.9727 45.6682 25.8764 45.9129C25.3885 46.6154 25.0133 47.5399 24.6512 48.4622C24.2886 49.3858 23.9273 50.0945 23.426 51.0115C23.2498 51.8167 23.3129 52.5356 23.1444 53.2297C22.9767 53.9259 22.7576 54.1071 22.5318 54.5044L21.9192 55.779C21.6101 56.2056 21.23 56.7106 21.3066 57.0537C21.3812 57.3998 21.4724 57.5262 21.6376 57.9973C21.0373 59.1622 20.259 60.6539 19.7998 61.8212C19.3395 62.9912 19.9906 64.0841 19.8492 64.9831C19.8655 65.2932 18.9686 65.2413 18.9056 65.3141C18.84 65.3936 18.5652 65.5407 17.962 65.6451L18.9056 65.3141C19.0043 65.5953 19.0678 65.2572 18.9056 65.3141C18.1017 64.855 17.3512 64.4315 17.3 63.7579C17.2472 63.0883 16.6844 61.7478 16.3069 60.927C16.3089 61.4576 16.9631 61.7566 16.6379 61.8706C16.966 62.2869 17.0987 62.665 16.9689 62.8143C16.8376 62.9675 16.3371 63.7787 16.3563 64.0889C15.9966 64.1102 15.9111 63.3444 16.0253 63.1453C16.1381 62.9478 16.3359 63.2507 16.0253 63.1453C15.8597 62.6732 14.7958 61.8812 14.4196 61.5891C14.0425 61.2995 14.4171 61.0627 14.0886 60.6454C13.4954 59.4762 12.5435 57.957 11.8209 57.202C11.0982 56.4493 10.4264 55.4674 9.88426 54.7021C9.37679 54.5632 9.29707 54.4834 8.60961 54.0895C7.92179 53.6946 7.44525 53.1219 7.94758 52.2022C8.17704 52.3373 8.72001 52.0385 8.8912 51.8712C8.73621 52.0846 9.06135 51.7067 8.8912 51.8712C9.0439 51.6598 9.37301 50.7485 9.50381 50.5966C9.63319 50.4463 9.65342 51.2869 9.83483 51.5402C9.53915 51.2221 9.31006 51.091 9.50381 50.5966C9.60096 50.3516 9.87187 49.4077 10.1164 49.3219C10.4578 48.9901 10.6572 48.4978 10.729 48.0473C10.8002 47.6005 11.066 47.2946 11.3416 46.7727C11.1546 46.8947 11.2419 46.4884 11.3416 46.7727C11.5283 46.6553 11.6311 46.1427 11.9542 45.498C12.3133 45.4804 13.3156 44.3837 13.5105 43.8923L14.4541 43.5613C14.7605 43.1357 14.1137 42.727 14.1231 42.6177C14.1305 42.5114 14.7372 41.875 14.7357 41.3431L15.0667 42.2867C15.5976 40.9352 16.1602 38.6726 17.5171 37.1881C18.8718 35.7056 20.2081 34.8658 20.6296 33.9768C20.855 33.5784 21.1789 33.0436 21.2422 32.7022C21.1936 32.8275 21.2573 32.4871 21.2422 32.7022C21.1567 32.2031 20.6844 31.8922 20.9112 31.7585C21.1395 31.6266 21.1816 30.816 21.5238 30.4839C21.6999 29.681 23.0202 28.9517 23.6926 27.6036C24.3638 26.2548 24.752 25.2226 25.5304 23.7797C26.3068 22.3421 27.2353 20.215 27.9809 18.6811C28.7237 17.1481 29.4963 16.0317 29.8187 14.8572C30.061 14.2431 29.5046 14.2257 29.4877 13.9135C29.4686 13.601 29.1537 12.4425 28.8256 12.0263C29.4271 11.9225 29.9949 12.73 30.1003 12.6389C30.2072 12.5495 30.4038 11.7908 30.7129 11.3643C30.8788 11.8374 31.7344 11.9078 31.9875 11.9769C32.2389 12.0466 32.0234 12.601 32.3185 12.9205C32.8924 13.2516 33.629 13.8933 33.9242 14.4767C34.2208 15.0642 34.5946 15.1964 35.1988 15.0893C35.6064 14.9463 35.3898 14.1758 35.8114 13.8147C36.2343 13.4543 37.3558 13.4885 37.6987 13.1526C39.3731 11.9291 40.6542 10.6314 42.6984 9.27928C44.741 7.92538 47.6274 6.86389 49.9164 5.68751C52.2034 4.51412 54.6481 2.9679 57.1344 2.09574C59.6197 1.2239 61.474 0.890901 64.0707 0.722242C65.0345 0.596211 65.7573 0.926401 66.289 1.00383C66.8184 1.08322 67.1346 0.920974 67.5637 1.61644C67.9742 2.00376 68.5193 2.23605 68.8383 2.22904C69.158 2.22409 69.7019 2.45567 70.1129 2.84165L70.444 3.78527C70.8545 4.1726 70.6858 4.86621 70.775 4.7289C70.8636 4.59293 70.9697 4.76487 71.106 5.67252C71.4003 5.99228 72.3053 6.20666 72.3806 6.28513C72.215 5.81305 72.4522 6.3672 72.3806 6.28513L73.0427 8.17238L73.3737 9.116C73.3431 9.55086 73.8341 9.90936 73.7047 10.0596C73.573 10.2119 72.6614 10.1064 72.7611 10.3906C72.7042 12.3192 72.6236 14.3614 71.5853 16.1018C70.5498 17.8447 69.7271 18.9797 68.8039 20.2568C68.8874 20.7588 68.861 20.556 68.8039 20.2568C68.7065 20.5041 68.7453 19.9592 68.8039 20.2568C68.8718 20.9752 68.4663 21.0108 68.1913 21.5314C67.9156 22.0534 67.3632 23.5195 66.966 24.0807C66.5673 24.6459 66.7732 24.7309 66.3534 25.3553C65.9306 25.9797 65.3867 27.0729 65.1282 27.9046C64.6535 27.8591 64.4596 27.9813 64.1846 28.2356C63.9086 28.4927 63.8963 29.3965 63.572 29.5103C63.5881 29.8228 63.7712 30.0783 63.903 30.4539C63.5594 30.7877 62.8749 31.8743 62.3468 32.0596C61.8143 32.2464 61.2714 32.015 61.4032 32.3906C61.2714 32.015 61.6146 32.2104 61.4032 32.3906C61.1914 32.5698 60.8671 32.5786 60.4595 32.7216C60.1987 33.0275 60.5103 33.1302 60.4595 32.7216C60.7183 32.4211 61.0107 32.3185 61.4032 32.3906C61.2786 33.6041 60.8024 34.2437 60.1779 34.9399C59.5517 35.6367 60.0707 36.3559 59.8964 37.1581C59.5361 37.1808 58.2675 37.5186 58.0091 37.8202L58.3401 38.7638C57.6748 39.7406 57.1316 39.9282 56.7839 40.3695C56.434 40.8103 55.2773 41.7479 54.284 42.3061C54.3838 42.5904 54.6294 43.0326 54.6151 43.2498C54.5374 43.8083 54.894 43.2591 54.6151 43.2498C54.4689 43.3552 54.6289 43.034 54.6151 43.2498C54.7615 43.1454 54.9393 43.136 54.6151 43.2498C54.3708 43.8668 53.8664 44.945 53.3898 45.7991C52.9108 46.6575 52.6663 47.4324 52.1646 48.3483C51.9665 48.3141 50.9569 47.9266 50.89 47.7357C50.6279 47.5107 51.4251 47.548 51.8336 47.4047C51.5583 47.9277 50.9373 47.6154 50.89 47.7357C50.8423 47.8608 51.0561 48.2093 51.221 48.6794C51.1232 48.9281 50.8763 49.807 50.6084 49.954C50.3391 50.1026 49.5621 49.4733 49.3338 49.3414C48.882 50.6662 49.1595 51.6274 48.4396 52.8343C47.7173 54.0431 46.8905 55.3935 46.2707 55.7146C45.9157 56.2656 44.7998 56.3919 44.3835 56.3766C43.9673 56.3647 44.6452 56.6035 44.7145 57.3203Z" fill="black"/>
</svg>
