<svg width="252" height="200" viewBox="0 0 252 200" fill="none" xmlns="http://www.w3.org/2000/svg">
<path d="M9.01496 36.8142C9.44931 40.9588 13.2909 43.676 18.2477 43.676C23.2356 43.676 26.6434 40.9937 26.6434 37.3019C26.6434 34.0277 24.5058 32.2171 19.1152 30.8591L13.2909 29.4305C5.04952 27.4451 0.99076 22.7437 0.99076 15.3936C0.99076 6.12999 8.11693 0 18.0927 0C28.5023 0 35.0392 6.02574 35.1941 15.1151H26.4268C26.1163 10.8664 22.8018 8.28968 18.1238 8.28968C13.5075 8.28968 10.4096 10.7621 10.4096 14.4889C10.4096 17.5889 12.5783 19.3296 17.7212 20.6539L23.1423 21.9426C32.0962 24.1016 36 28.4203 36 36.0831C36 45.835 28.9672 52 17.8762 52C7.12557 52 0.278801 46.2527 0 36.8142H9.01496Z" fill="black"/>
<path d="M70 51H41V-3.8147e-06H70V8.79974H50.1607V21.1001H68.877V29.2999H50.1607V42.1641H70V51Z" fill="black"/>
<path d="M76 25.9822C76 9.78754 84.0427 0 96.7288 0C107.259 0 115.272 7.66283 115.97 18.9119H107.047C106.197 12.7483 102.07 8.70669 96.7288 8.70669C89.809 8.70669 85.3478 15.36 85.3478 25.9479C85.3478 36.675 89.7481 43.2926 96.7587 43.2926C102.191 43.2926 106.106 39.6351 107.077 33.68H116C114.968 44.8954 107.471 52 96.7288 52C83.9823 52 76 42.2131 76 25.9822Z" fill="black"/>
<path d="M130.514 26.0172C130.514 36.5358 135.179 43.1877 142.5 43.1877C149.79 43.1877 154.455 36.5358 154.455 26.0172C154.455 15.4642 149.79 8.77731 142.5 8.77731C135.209 8.77731 130.514 15.4642 130.514 26.0172ZM164 26.0172C164 42.0046 155.69 52 142.5 52C129.279 52 121 42.0046 121 26.0172C121 9.99604 129.279 0 142.5 0C155.69 0 164 9.99604 164 26.0172Z" fill="black"/>
<path d="M169 51V-3.8147e-06H176.624L197.015 33.2231H197.257V-3.8147e-06H206V51H198.437L178.016 17.6002H177.744V51H169Z" fill="black"/>
<path d="M223.226 42.1641H229.885C238.133 42.1641 242.592 36.3688 242.592 25.342C242.592 14.6674 238.01 8.80042 229.885 8.80042H223.226V42.1641ZM230.984 -3.8147e-06C244.211 -3.8147e-06 252 9.11848 252 25.3058C252 41.4932 244.211 51 230.984 51H214V-3.8147e-06H230.984Z" fill="black"/>
<path d="M137.955 147.23C137.251 147.356 136.601 147.435 136.004 147.465C135.408 147.497 134.839 147.827 134.298 148.453C134.568 148.327 134.812 148.186 135.029 148.03C135.245 147.874 135.489 147.827 135.76 147.889L136.249 148.076C136.357 148.076 136.452 147.983 136.533 147.794C136.615 147.606 136.763 147.544 136.98 147.606C137.901 147.544 138.809 147.481 139.703 147.418C140.597 147.356 141.423 147.294 142.182 147.23C142.453 147.294 142.642 147.23 142.752 147.042C142.859 146.854 143.048 146.76 143.32 146.76C143.428 146.886 143.576 147.042 143.767 147.23C143.956 147.418 144.215 147.356 144.539 147.042C144.268 147.042 144.132 146.981 144.132 146.854C144.078 146.792 144.078 146.729 144.132 146.666C143.103 146.666 142.046 146.699 140.962 146.76C139.878 146.823 138.876 146.981 137.955 147.23ZM128.771 166.972C129.042 166.972 129.393 166.894 129.827 166.737C130.261 166.581 130.45 166.22 130.396 165.656C130.016 166.032 129.475 166.471 128.771 166.972ZM133.403 148.358C133.242 148.296 133.051 148.327 132.835 148.453C132.617 148.579 132.415 148.688 132.225 148.782C132.035 148.876 131.859 148.955 131.697 149.016C131.535 149.08 131.425 149.049 131.372 148.923C130.992 149.362 130.464 149.628 129.787 149.721C129.108 149.816 128.499 150.207 127.958 150.897C128.391 150.897 128.838 150.661 129.3 150.192C129.759 149.721 130.234 149.425 130.722 149.298C130.829 149.362 130.938 149.393 131.047 149.393C131.154 149.455 131.344 149.487 131.616 149.487C131.779 149.487 131.994 149.314 132.266 148.969C132.537 148.626 132.645 148.703 132.592 149.204C132.754 148.955 132.943 148.828 133.159 148.828C133.376 148.828 133.619 148.703 133.892 148.453L134.054 148.265C134.108 148.203 134.108 148.139 134.054 148.076C133.944 148.265 133.81 148.358 133.648 148.358H133.403ZM123.65 169.323C123.758 169.637 123.88 169.651 124.016 169.369C124.151 169.087 124.353 168.946 124.626 168.946C124.788 168.758 124.896 168.664 124.95 168.664H125.113C125.546 168.539 125.913 168.274 126.21 167.865C126.508 167.458 126.793 167.16 127.064 166.972L127.47 167.066C127.47 166.878 127.66 166.722 128.039 166.596L128.527 166.408C128.797 166.158 129.042 165.923 129.258 165.703C129.475 165.484 129.773 165.155 130.152 164.716C128.852 165.406 127.714 166.158 126.739 166.972C125.764 167.787 124.734 168.571 123.65 169.323ZM123.569 170.356C123.297 170.544 123.013 170.719 122.715 170.873C122.417 171.031 122.322 171.266 122.431 171.579C122.702 171.391 122.891 171.202 123 171.014C123.108 170.827 123.297 170.796 123.569 170.92L123.407 171.202C124.382 170.701 125.303 170.168 126.17 169.605C127.036 169.04 127.904 168.287 128.771 167.348C127.85 167.912 126.983 168.476 126.17 169.04C125.357 169.605 124.489 170.232 123.569 170.92V170.356ZM122.106 185.397C122.539 185.524 122.931 185.618 123.285 185.679C123.636 185.742 123.976 185.649 124.3 185.397C123.866 185.336 123.5 185.35 123.203 185.445C122.905 185.538 122.539 185.524 122.106 185.397ZM118.773 173.458C119.477 172.958 120.074 172.535 120.562 172.19C121.049 171.846 121.428 171.454 121.699 171.014C121.428 171.454 120.941 171.829 120.236 172.142C119.531 172.456 119.044 172.894 118.773 173.458ZM120.236 158.041C119.639 158.606 119.071 158.856 118.529 158.793C118.745 158.543 118.977 158.323 119.22 158.136C119.464 157.947 119.802 157.916 120.236 158.041ZM117.798 176.091C117.688 176.091 117.526 176.153 117.311 176.279C117.093 176.405 116.93 176.623 116.822 176.936C117.148 176.623 117.391 176.467 117.554 176.467C117.717 176.467 117.798 176.341 117.798 176.091ZM116.254 178.252C116.144 178.568 116.132 178.645 116.213 178.488C116.294 178.332 116.416 178.286 116.578 178.348C116.362 178.598 116.091 178.786 115.766 178.911C115.604 178.974 115.468 179.038 115.36 179.099C115.36 178.85 115.522 178.629 115.848 178.44C116.172 178.252 116.47 178.034 116.741 177.784C116.904 177.846 116.876 177.94 116.66 178.066C116.551 178.128 116.416 178.191 116.254 178.252ZM112.433 177.501C112.542 177.564 112.622 177.628 112.677 177.689C112.731 177.752 112.785 177.816 112.84 177.877V178.066C113.003 178.191 113.314 178.003 113.775 177.501C114.235 177 114.6 176.623 114.872 176.373C115.034 176.373 115.169 176.341 115.279 176.279C115.549 176.279 115.576 176.217 115.36 176.091C114.817 176.217 114.316 176.436 113.856 176.748C113.394 177.063 112.921 177.313 112.433 177.501ZM111.946 180.885C111.675 181.011 111.363 181.184 111.011 181.403C110.658 181.622 110.32 181.794 109.995 181.919C110.265 182.233 110.496 182.296 110.686 182.107C110.875 181.919 110.942 181.951 110.889 182.201C110.997 181.637 111.2 181.34 111.499 181.308C111.796 181.278 111.946 181.136 111.946 180.885ZM120.968 173.27L120.48 173.176C120.208 173.49 120.059 173.678 120.034 173.74C120.005 173.804 119.992 173.898 119.992 174.022C119.342 174.149 118.719 174.54 118.123 175.198C117.526 175.856 116.849 176.341 116.091 176.655C115.819 176.907 115.644 177.141 115.562 177.36C115.482 177.58 115.331 177.628 115.115 177.501C114.628 177.94 114.141 178.252 113.653 178.44C113.165 178.629 112.649 178.943 112.108 179.381L112.596 179.475C112.433 179.663 112.19 179.852 111.864 180.039C111.54 180.227 111.214 180.415 110.889 180.603C110.564 180.792 110.279 180.995 110.035 181.215C109.792 181.435 109.67 181.67 109.67 181.919C109.941 181.67 110.279 181.403 110.686 181.12C111.092 180.838 111.511 180.572 111.946 180.321C112.217 180.197 112.501 179.944 112.799 179.57C113.097 179.193 113.354 178.88 113.571 178.629C113.842 178.754 113.883 178.85 113.693 178.911C113.502 178.974 113.463 178.88 113.571 178.629C113.842 178.754 114.168 178.676 114.547 178.395C114.926 178.111 115.25 178.003 115.522 178.066C115.36 178.066 115.115 178.191 114.791 178.44C114.628 178.568 114.492 178.723 114.384 178.911C114.655 178.723 115.061 178.521 115.604 178.299C116.144 178.081 116.551 177.628 116.822 176.936C116.388 177.063 116.104 177.299 115.969 177.642C115.833 177.987 115.684 178.003 115.522 177.689C116.28 177 117.026 176.358 117.757 175.762C118.489 175.167 119.234 174.587 119.992 174.022C120.208 173.898 120.44 173.726 120.684 173.505C120.927 173.286 121.184 173.02 121.456 172.706C121.619 172.77 121.753 172.738 121.862 172.613C121.915 172.551 121.943 172.488 121.943 172.424C122.214 172.3 122.513 172.206 122.837 172.142C123.163 172.081 123.351 171.766 123.407 171.202C122.919 171.391 122.457 171.657 122.025 172.001C121.591 172.347 121.238 172.77 120.968 173.27ZM110.157 187.372C109.615 187.999 108.829 188.187 107.8 187.935C108.071 187.811 108.463 187.764 108.979 187.795C109.493 187.827 109.886 187.686 110.157 187.372ZM107.476 181.919C107.691 181.919 107.827 181.889 107.882 181.825C107.935 181.763 107.963 181.701 107.963 181.637C108.721 181.199 109.372 180.697 109.913 180.133C110.455 179.57 110.971 179.131 111.458 178.817C109.886 179.444 108.559 180.479 107.476 181.919ZM108.939 183.141C108.667 183.643 108.247 184.082 107.678 184.457C107.11 184.834 106.554 185.336 106.012 185.961C106.283 185.336 106.73 184.819 107.354 184.411C107.976 184.004 108.505 183.58 108.939 183.141ZM105.037 183.987C105.307 183.675 105.619 183.423 105.971 183.235C106.323 183.047 106.689 182.735 107.069 182.296L106.5 182.201C106.283 182.703 105.998 183 105.647 183.094C105.293 183.188 105.091 183.487 105.037 183.987ZM105.037 161.426C105.307 161.238 105.619 160.987 105.971 160.673C106.323 160.36 106.527 160.11 106.581 159.922C106.31 160.047 106.08 160.204 105.891 160.391C105.7 160.579 105.415 160.924 105.037 161.426ZM106.581 184.74C106.31 184.928 106.025 185.054 105.727 185.116C105.429 185.179 105.226 185.43 105.118 185.868C105.009 185.806 104.928 185.742 104.875 185.679C104.765 185.554 104.902 185.524 105.281 185.586C105.281 185.273 105.403 185.022 105.647 184.834C105.891 184.646 106.202 184.614 106.581 184.74ZM104.549 192.354C104.82 192.418 104.942 192.512 104.915 192.636C104.886 192.763 104.928 192.7 105.037 192.448C105.037 191.948 105.118 191.743 105.281 191.837C105.444 191.931 105.525 191.822 105.525 191.508C105.253 191.508 105.024 191.571 104.834 191.696C104.643 191.822 104.468 191.854 104.306 191.79C104.306 191.477 104.535 191.336 104.996 191.367C105.456 191.4 105.822 191.353 106.094 191.227V191.602C106.094 191.666 106.066 191.854 106.012 192.166C105.904 192.292 105.931 192.245 106.094 192.025C106.256 191.807 106.31 191.854 106.256 192.166L105.849 192.448C105.849 192.636 105.876 192.668 105.931 192.542C105.931 192.481 105.957 192.354 106.012 192.166L105.525 192.072C105.415 192.261 105.415 192.386 105.525 192.448C105.633 192.512 105.552 192.7 105.281 193.012C105.171 192.7 105.131 192.622 105.159 192.777C105.186 192.934 105.091 192.981 104.875 192.918C104.82 193.42 104.631 193.703 104.306 193.765C103.98 193.826 103.682 193.922 103.411 194.047C103.248 193.797 103.235 193.64 103.37 193.576C103.505 193.514 103.601 193.388 103.655 193.2C103.871 193.263 104.075 193.185 104.265 192.965C104.454 192.747 104.549 192.542 104.549 192.354ZM101.705 193.765C101.812 193.891 101.812 193.999 101.705 194.094C101.596 194.188 101.461 194.281 101.298 194.376C101.136 194.47 100.985 194.563 100.851 194.658C100.716 194.752 100.648 194.862 100.648 194.987C100.594 194.987 100.567 194.893 100.567 194.704C100.567 194.643 100.594 194.549 100.648 194.422C100.539 194.422 100.417 194.563 100.282 194.846C100.146 195.128 99.8616 195.081 99.4287 194.704C99.9164 194.391 100.675 194.079 101.705 193.765ZM98.534 192.166C98.9675 191.979 99.3333 191.775 99.6319 191.555C99.9287 191.336 100.187 191.164 100.404 191.039C100.025 190.976 99.6849 191.07 99.3881 191.32C99.0894 191.571 98.8049 191.854 98.534 192.166ZM123.163 173.176C122.891 172.864 122.647 172.864 122.431 173.176C122.214 173.49 121.97 173.772 121.699 174.022H122.228C122.362 174.022 122.484 173.928 122.593 173.74C122.484 173.928 122.295 174.086 122.025 174.21C121.862 174.274 121.726 174.305 121.619 174.305C121.238 173.992 120.981 173.976 120.846 174.258C120.71 174.54 120.507 174.649 120.236 174.587C120.181 174.901 120.155 175.089 120.155 175.151V175.526C119.938 175.214 119.668 175.198 119.342 175.48C119.018 175.762 118.963 176.059 119.179 176.373C118.963 176.373 118.841 176.358 118.814 176.326C118.786 176.295 118.773 176.123 118.773 175.809C118.014 176.373 117.201 177.031 116.335 177.784C115.468 178.536 114.655 179.193 113.897 179.756C114.113 179.884 114.248 179.884 114.303 179.756C114.356 179.632 114.465 179.726 114.628 180.039C114.411 180.102 114.235 180.227 114.099 180.415C113.964 180.603 113.815 180.792 113.653 180.979C113.49 181.167 113.287 181.308 113.043 181.403C112.799 181.496 112.514 181.512 112.19 181.449C112.514 181.449 112.582 181.512 112.392 181.637C112.202 181.763 112.054 181.67 111.946 181.355L111.864 181.731H111.458C111.186 181.731 111.186 181.747 111.458 181.778C111.729 181.81 111.81 181.983 111.702 182.296C111.376 182.233 111.174 182.233 111.092 182.296C111.011 182.358 110.942 182.453 110.889 182.578C110.835 182.703 110.793 182.812 110.767 182.906C110.74 183 110.618 183.047 110.402 183.047C110.184 183.047 110.13 182.985 110.239 182.859L110.483 182.578C110.211 182.516 110.035 182.578 109.955 182.766C109.873 182.953 109.723 182.985 109.507 182.859C109.561 182.923 109.615 182.923 109.67 182.859C109.723 182.859 109.723 182.671 109.67 182.296C109.182 182.547 108.762 182.892 108.41 183.329C108.057 183.769 107.691 183.957 107.313 183.893L108.045 183.611C108.098 183.487 108.152 183.329 108.207 183.141C108.37 182.828 108.532 182.703 108.695 182.766C108.695 182.453 108.843 182.28 109.142 182.248C109.439 182.217 109.479 182.046 109.263 181.731C108.992 181.731 108.695 181.951 108.37 182.389C108.045 182.828 107.583 182.985 106.988 182.859L106.825 183.329L106.338 183.141C106.283 183.393 106.283 183.455 106.338 183.329C106.391 183.205 106.554 183.205 106.825 183.329C106.554 183.832 106.228 184.161 105.849 184.316C105.47 184.473 105.145 184.646 104.875 184.834C104.603 184.396 104.115 184.646 103.411 185.586C103.627 185.649 103.777 185.618 103.859 185.491C103.94 185.366 104.115 185.336 104.387 185.397C104.062 185.836 103.709 186.197 103.33 186.479C102.95 186.76 102.558 187.029 102.152 187.278C101.745 187.529 101.392 187.78 101.095 188.031C100.796 188.281 100.567 188.594 100.404 188.97C100.133 188.845 99.9287 188.955 99.7945 189.299C99.6584 189.644 99.3745 189.755 98.9404 189.627L99.1036 189.816C99.1566 189.879 99.1843 190.004 99.1843 190.191C99.0759 190.131 98.9675 190.191 98.8597 190.38C98.7508 190.568 98.5611 190.6 98.2907 190.474C98.3985 190.223 98.4533 189.942 98.4533 189.627V190.098C98.2907 190.349 98.2095 190.537 98.2095 190.662C98.1547 190.788 98.1688 190.867 98.2501 190.898C98.3314 190.929 98.5063 190.85 98.779 190.662C99.1566 190.474 99.5907 190.161 100.079 189.721C100.567 189.284 101.054 188.828 101.541 188.36C102.03 187.89 102.517 187.435 103.005 186.996C103.492 186.558 103.926 186.182 104.306 185.868C104.197 186.37 103.98 186.713 103.655 186.901C103.33 187.09 103.14 187.247 103.086 187.372C103.14 187.247 103.33 187.247 103.655 187.372C103.98 187.499 104.277 187.466 104.549 187.278L105.037 187.09C105.199 187.09 105.456 187.123 105.809 187.183C106.161 187.247 106.472 187.278 106.744 187.278C106.744 187.029 106.838 186.871 107.028 186.808C107.218 186.746 107.394 186.62 107.556 186.432C107.827 186.495 108.152 186.542 108.532 186.572C108.911 186.605 109.317 186.558 109.751 186.432C109.86 186.118 110.022 185.961 110.239 185.961C110.455 185.961 110.753 186.024 111.133 186.15C111.404 186.088 111.647 186.024 111.864 185.961C112.406 185.836 112.759 185.836 112.921 185.961C113.192 185.524 113.598 185.289 114.141 185.257C114.681 185.225 115.143 185.366 115.522 185.679C115.793 185.179 116.294 184.943 117.026 184.975C117.757 185.007 118.42 184.96 119.018 184.834C119.721 184.709 120.345 184.599 120.886 184.505C121.428 184.411 122.025 184.302 122.675 184.175C122.946 184.239 123.175 184.27 123.365 184.27C123.555 184.27 123.731 184.332 123.894 184.457C124.382 184.208 124.91 184.114 125.479 184.175C126.048 184.239 126.577 184.239 127.064 184.175C127.66 184.302 128.255 184.379 128.852 184.411C129.449 184.443 129.991 184.396 130.478 184.27C130.641 184.332 130.775 184.302 130.885 184.175C130.938 184.114 130.965 184.02 130.965 183.893C131.236 183.957 131.48 183.987 131.697 183.987C132.185 184.114 132.725 184.145 133.322 184.082C133.918 184.02 134.433 184.051 134.867 184.175C135.082 184.239 135.367 184.302 135.721 184.364C136.072 184.428 136.438 184.489 136.817 184.552H137.143C137.196 184.552 137.387 184.614 137.712 184.74C138.2 184.802 138.728 184.913 139.296 185.069C139.866 185.225 140.42 185.336 140.962 185.397C141.884 185.649 142.804 185.868 143.727 186.056C144.647 186.244 145.405 186.558 146.002 186.996C148.061 187.874 149.97 188.704 151.733 189.487C153.493 190.271 154.915 191.446 156 193.012C154.212 191.948 152.383 190.96 150.513 190.05C148.644 189.143 146.653 188.345 144.539 187.654L145.027 188.217C144.323 188.093 143.727 187.921 143.239 187.701C142.752 187.482 142.371 187.435 142.101 187.56C141.613 187.435 141.179 187.324 140.8 187.231C140.42 187.137 140.041 187.09 139.662 187.09C139.5 187.215 139.35 187.247 139.216 187.183C139.08 187.123 138.972 187.058 138.89 186.996C138.809 186.934 138.795 186.888 138.85 186.854C138.903 186.824 139.012 186.871 139.175 186.996C139.066 186.934 138.984 186.871 138.931 186.808C138.876 186.746 138.823 186.713 138.768 186.713H138.687V186.808C138.361 186.871 137.927 186.871 137.387 186.808C136.844 186.746 136.33 186.683 135.843 186.62C135.355 186.558 134.934 186.542 134.582 186.572C134.23 186.605 134.054 186.777 134.054 187.09V186.526C133.566 186.84 133.038 186.934 132.47 186.808C131.901 186.683 131.535 186.683 131.372 186.808C131.425 186.683 131.276 186.652 130.924 186.713C130.572 186.777 130.315 186.901 130.152 187.09C129.991 186.84 129.787 186.699 129.543 186.667C129.3 186.636 129.056 186.667 128.812 186.76C128.568 186.854 128.31 186.949 128.039 187.042C127.767 187.137 127.524 187.153 127.308 187.09C126.928 187.029 126.535 186.996 126.129 186.996C125.723 186.996 125.276 187.183 124.788 187.56V187.09C124.571 187.029 124.353 187.029 124.138 187.09C123.921 187.153 123.731 187.058 123.569 186.808C123.351 186.808 123.297 186.871 123.407 186.996C123.46 187.058 123.514 187.153 123.569 187.278C123.081 187.404 122.688 187.499 122.391 187.56C122.092 187.623 121.699 187.717 121.212 187.842L121.619 187.935C121.619 187.749 121.564 187.654 121.456 187.654C121.401 187.717 121.32 187.78 121.212 187.842C121.212 187.529 121.293 187.356 121.456 187.324C121.619 187.294 121.753 187.183 121.862 186.996C121.428 187.123 121.143 187.215 121.008 187.278C120.873 187.341 120.67 187.466 120.399 187.654C120.181 187.592 120.114 187.56 120.196 187.56C120.277 187.56 120.263 187.404 120.155 187.09L119.992 187.278C119.884 187.404 119.776 187.435 119.668 187.372C120.101 187.058 120.628 186.901 121.252 186.901C121.874 186.901 122.513 186.84 123.163 186.713C122.728 186.588 122.228 186.558 121.659 186.62C121.09 186.683 120.588 186.652 120.155 186.526C120.155 186.213 120.208 186.15 120.318 186.338C120.426 186.526 120.534 186.464 120.643 186.15C120.208 186.338 119.912 186.526 119.748 186.713C119.586 186.901 119.261 186.934 118.773 186.808C119.044 186.62 119.207 186.588 119.261 186.713C119.314 186.84 119.477 186.777 119.748 186.526C119.152 186.338 118.502 186.354 117.798 186.572C117.093 186.793 116.443 186.84 115.848 186.713C116.768 186.338 117.784 186.118 118.895 186.056C120.005 185.993 121.021 185.931 121.943 185.868C122.051 185.618 122.092 185.477 122.065 185.445C122.037 185.414 121.888 185.397 121.619 185.397C121.726 185.397 121.821 185.414 121.902 185.445C121.984 185.477 122.078 185.491 122.187 185.491C122.295 185.554 122.377 185.586 122.431 185.586C121.834 185.148 121.143 185.022 120.358 185.209C119.572 185.397 118.8 185.554 118.042 185.679L117.798 185.586C117.688 185.397 117.473 185.366 117.148 185.491C116.985 185.618 116.849 185.742 116.741 185.868L116.416 185.679C116.199 185.554 116.172 185.618 116.335 185.868C116.172 185.742 115.901 185.727 115.522 185.82C115.143 185.915 114.844 185.931 114.628 185.868C114.141 185.993 113.639 186.041 113.125 186.009C112.609 185.977 112.217 186.118 111.946 186.432C111.458 186.558 111.146 186.652 111.011 186.713C110.875 186.777 110.591 186.871 110.157 186.996C109.886 186.871 109.656 186.888 109.467 187.042C109.277 187.2 109.046 187.215 108.776 187.09H108.452L108.288 187.654C108.179 187.654 108.085 187.64 108.004 187.607C107.923 187.576 107.827 187.56 107.719 187.56H107.476C107.041 187.623 106.554 187.733 106.012 187.89C105.47 188.046 105.064 188.345 104.794 188.782C104.521 188.469 104.306 188.345 104.144 188.405C103.98 188.469 103.871 188.751 103.818 189.253C103.221 189.127 102.652 189.19 102.111 189.439C101.569 189.691 101.081 189.849 100.648 189.909C100.539 190.223 100.648 190.319 100.973 190.191C101.298 190.067 101.461 189.942 101.461 189.816C102.652 189.691 103.723 189.425 104.671 189.017C105.619 188.61 106.663 188.251 107.8 187.935C106.391 188.438 105.091 188.939 103.899 189.439C102.706 189.942 101.541 190.474 100.404 191.039C100.404 191.477 100.579 191.525 100.932 191.179C101.284 190.835 101.541 190.694 101.705 190.757C101.758 190.819 101.839 190.882 101.948 190.944C102.111 191.132 102.192 191.259 102.192 191.32C102.192 191.132 102.233 190.929 102.315 190.709C102.395 190.491 102.517 190.412 102.68 190.474C102.625 190.914 102.517 191.118 102.355 191.085C102.192 191.055 101.975 191.1 101.705 191.227C101.433 191.227 101.217 191.289 101.054 191.414C100.891 191.541 100.675 191.696 100.404 191.884C100.079 192.198 99.7397 192.339 99.3881 192.307C99.0347 192.277 98.7243 192.323 98.4533 192.448C98.3443 192.512 98.2625 192.606 98.2095 192.73C98.0469 192.918 97.9656 193.17 97.9656 193.483V192.918C97.8031 192.857 97.5863 192.981 97.3154 193.294C97.2058 193.483 97.098 193.64 96.9902 193.765C97.1528 194.079 97.4237 194.156 97.8031 193.999C98.1818 193.844 98.5063 193.703 98.779 193.576L99.1843 193.765C98.9127 193.765 98.7508 193.826 98.6972 193.952C98.6418 194.079 98.6159 194.188 98.6159 194.281C98.6159 194.376 98.5752 194.438 98.494 194.47C98.4121 194.502 98.2625 194.485 98.0469 194.422C98.3173 194.549 98.4256 194.485 98.372 194.235C98.3173 193.985 98.4256 193.922 98.6972 194.047C98.2625 193.922 98.0328 194.047 98.0069 194.422C97.978 194.799 97.8838 194.987 97.7218 194.987C97.8838 195.238 98.1406 195.238 98.494 194.987C98.8462 194.737 99.0759 194.454 99.1843 194.14C99.3474 194.454 99.4693 194.549 99.5506 194.422C99.6319 194.297 99.7126 194.156 99.7945 193.999C99.8757 193.844 99.9835 193.734 100.12 193.67C100.254 193.609 100.457 193.734 100.729 194.047C100.675 194.11 100.594 194.14 100.486 194.14C100.268 194.14 100.105 194.047 99.9977 193.858C100.16 194.173 100.213 194.329 100.16 194.329C100.105 194.391 100.051 194.391 99.9977 194.329C99.8887 194.267 99.7397 194.281 99.5506 194.376C99.3604 194.47 99.1843 194.579 99.0223 194.704C98.8049 194.893 98.6159 195.049 98.4533 195.174C98.3443 195.614 98.1818 195.864 97.9656 195.926C97.7483 195.989 97.2877 196.051 96.5833 196.115C96.5833 196.239 96.4749 196.427 96.2587 196.678L96.0149 196.961C95.8523 196.961 95.771 196.866 95.771 196.678V196.396C95.4989 196.646 95.2291 196.866 94.9582 197.055C94.6867 197.243 94.4711 197.462 94.308 197.713C94.0364 197.9 93.739 197.979 93.4139 197.947C93.0887 197.915 92.8979 198.056 92.8449 198.37C92.5734 198.308 92.4797 198.37 92.5604 198.559C92.6423 198.747 92.5204 198.777 92.1946 198.652C92.3572 198.715 92.3973 198.731 92.3166 198.7C92.2353 198.667 92.0998 198.667 91.9102 198.7C91.7193 198.731 91.5167 198.808 91.3011 198.934C91.0832 199.059 90.9471 199.247 90.8941 199.5C90.6238 199.624 90.3799 199.765 90.1632 199.922C89.947 200.078 89.7845 200 89.6749 199.686C89.6749 199.624 89.6484 199.56 89.5936 199.5C89.4311 199.311 89.2968 199.217 89.1872 199.217C89.0794 199.404 88.9304 199.451 88.7408 199.359C88.5511 199.263 88.4151 199.123 88.3344 198.934C88.2525 198.747 88.226 198.511 88.2525 198.229C88.2802 197.947 88.4292 197.713 88.7001 197.525C88.5918 197.963 88.7549 198.323 89.1872 198.606C89.6213 198.888 89.9735 198.777 90.2439 198.277L89.9182 198.088C89.9182 197.963 89.9735 197.947 90.0813 198.041C90.1909 198.136 90.2987 198.056 90.4065 197.807C90.1361 197.492 89.9735 197.414 89.9182 197.571C89.8658 197.727 89.7026 197.807 89.4311 197.807C89.3781 197.492 89.242 197.257 89.0247 197.102C88.8085 196.944 88.6059 196.787 88.4151 196.632C88.226 196.474 88.0776 196.303 87.968 196.115C87.8596 195.926 87.8867 195.644 88.0499 195.269C87.7789 195.269 87.6841 195.348 87.7648 195.503C87.8461 195.66 87.7789 195.583 87.5622 195.269L88.2124 194.893C87.8337 194.517 87.4945 194.173 87.1958 193.858C86.899 193.545 86.9396 193.17 87.3178 192.73C87.3178 192.542 87.4803 192.433 87.806 192.402C88.1306 192.371 88.4292 192.261 88.7001 192.072C88.8627 191.822 89.0382 191.666 89.2279 191.602C89.4187 191.541 89.5671 191.414 89.6749 191.227C89.6749 190.976 89.6484 190.96 89.5936 191.179C89.5406 191.4 89.5671 191.414 89.6749 191.227C90.1632 190.85 90.6509 190.459 91.138 190.05C91.6257 189.644 92.1134 189.221 92.601 188.782V188.405C92.6541 188.156 92.9527 187.935 93.4951 187.749C94.0364 187.56 94.5518 187.247 95.0395 186.808C95.0931 186.62 95.2427 186.338 95.4865 185.961C95.7304 185.586 95.933 185.461 96.0962 185.586L96.5026 185.304C97.2606 184.614 97.9521 183.987 98.5752 183.423C99.1972 182.859 99.8357 182.358 100.486 181.919C100.81 181.794 101.013 181.606 101.095 181.355C101.176 181.106 101.352 180.854 101.623 180.603H101.867C102.03 180.603 102.111 180.509 102.111 180.321C102.382 180.321 102.558 180.243 102.639 180.085C102.72 179.931 102.869 179.695 103.086 179.381C103.574 179.068 104.144 178.723 104.794 178.348C105.444 177.971 106.012 177.595 106.5 177.219C108.179 176.028 109.913 174.728 111.702 173.317C113.49 171.907 115.291 170.497 117.107 169.087C118.922 167.677 120.737 166.299 122.553 164.951C124.367 163.604 126.196 162.399 128.039 161.332C128.96 160.767 129.922 160.031 130.924 159.122C131.928 158.214 132.916 157.477 133.892 156.913C134.65 156.35 135.355 155.848 136.004 155.409C136.654 154.971 137.224 154.595 137.712 154.281C137.982 154.03 138.253 153.733 138.524 153.387C138.795 153.044 139.201 152.808 139.744 152.683C140.123 152.37 140.583 152.011 141.125 151.602C141.667 151.195 142.195 150.802 142.71 150.427C143.225 150.051 143.658 149.69 144.011 149.345C144.363 149.002 144.539 148.767 144.539 148.641C144.592 148.327 144.539 148.171 144.376 148.171H145.109C143.645 147.858 142.223 147.874 140.84 148.217C139.459 148.562 138.09 148.828 136.737 149.016C136.789 148.703 136.966 148.562 137.265 148.594C137.561 148.626 137.739 148.485 137.794 148.171C137.683 148.171 137.55 148.265 137.387 148.453C137.332 148.516 137.305 148.579 137.305 148.641C137.143 148.391 136.885 148.28 136.533 148.312C136.18 148.344 135.869 148.358 135.599 148.358L135.436 148.735C135.381 148.798 135.326 148.798 135.273 148.735C134.949 148.985 134.745 149.143 134.664 149.204C134.582 149.268 134.407 149.362 134.136 149.487V149.016C133.864 149.455 133.39 149.737 132.713 149.862C132.035 149.989 131.507 149.989 131.128 149.862C131.019 150.113 130.965 150.271 130.965 150.332V150.897C130.802 150.897 130.667 150.772 130.559 150.52C130.504 150.395 130.478 150.271 130.478 150.145C130.315 150.145 130.125 150.286 129.909 150.567C129.692 150.849 129.718 151.053 129.991 151.179C129.718 151.367 129.475 151.555 129.258 151.743C129.042 151.931 128.797 152.024 128.527 152.024C128.635 151.649 128.783 151.445 128.974 151.414C129.164 151.383 129.339 151.242 129.502 150.991C129.339 151.242 129.15 151.367 128.934 151.367C128.716 151.367 128.472 151.524 128.202 151.836L128.527 152.024C128.147 152.401 127.673 152.746 127.105 153.058C126.535 153.374 125.926 153.686 125.276 153.999C124.626 154.312 124.002 154.657 123.407 155.033C122.809 155.409 122.295 155.848 121.862 156.35C121.862 156.287 121.888 156.223 121.943 156.161C121.996 156.099 122.133 156.067 122.35 156.067C122.078 156.193 121.807 156.382 121.537 156.631C121.265 156.882 121.049 157.07 120.886 157.195C120.777 157.195 120.71 157.164 120.684 157.101C120.656 157.039 120.615 156.977 120.562 156.913C120.507 156.851 120.48 156.757 120.48 156.631C120.318 156.631 120.087 156.788 119.79 157.101C119.491 157.415 119.234 157.634 119.018 157.759C119.234 157.634 119.464 157.571 119.708 157.571C119.952 157.571 120.208 157.415 120.48 157.101C120.208 157.541 119.776 157.947 119.179 158.323C118.583 158.7 118.042 158.95 117.554 159.075C117.5 159.263 117.526 159.39 117.635 159.451C117.744 159.514 117.851 159.39 117.961 159.075C117.851 159.64 117.648 159.954 117.351 160.016C117.052 160.078 116.768 160.172 116.498 160.297C116.388 160.424 116.335 160.532 116.335 160.626V161.332C116.335 161.207 116.307 161.113 116.254 161.049C116.144 160.924 116.01 160.955 115.848 161.144L116.01 161.332C116.118 161.458 116.064 161.583 115.848 161.707L115.522 161.895C115.413 161.959 115.291 162.036 115.156 162.13C115.021 162.225 114.899 162.335 114.791 162.459C114.356 162.773 113.937 163.164 113.531 163.634C113.125 164.105 112.677 164.56 112.19 164.998C111.918 165.437 111.662 165.844 111.418 166.22C111.174 166.596 110.942 166.878 110.726 167.066L110.157 167.536C109.886 167.724 109.737 167.928 109.711 168.147C109.683 168.367 109.67 168.633 109.67 168.946C109.073 169.51 108.518 170.091 108.004 170.686C107.489 171.282 107.096 171.829 106.825 172.331C106.771 172.518 106.715 172.629 106.663 172.659C106.607 172.692 106.391 172.676 106.012 172.613H106.175C106.283 172.613 106.338 172.518 106.338 172.331C105.957 171.893 105.822 171.47 105.931 171.061C106.039 170.654 106.066 170.168 106.012 169.605C105.904 169.919 105.741 170.075 105.525 170.075C105.633 170.389 105.633 170.577 105.525 170.638C105.415 170.701 105.334 170.827 105.281 171.014C105.064 170.952 105.009 170.873 105.118 170.779C105.226 170.686 105.199 170.577 105.037 170.45C105.037 170.137 104.956 169.855 104.794 169.605C104.631 169.355 104.495 169.073 104.387 168.758L104.549 168.383C104.44 167.569 104.251 166.863 103.98 166.267C103.709 165.672 103.492 165.092 103.33 164.528C103.059 164.34 102.761 164.057 102.436 163.681C102.111 163.305 102.192 162.899 102.68 162.459C102.788 162.587 102.91 162.617 103.046 162.553C103.181 162.491 103.316 162.412 103.452 162.318C103.586 162.225 103.709 162.147 103.818 162.084C103.926 162.022 104.007 162.084 104.062 162.271C103.953 162.022 104.007 161.771 104.224 161.519C104.333 161.395 104.468 161.332 104.631 161.332C104.902 161.207 105.104 161.019 105.24 160.767C105.375 160.518 105.578 160.267 105.849 160.016C105.849 159.827 105.917 159.719 106.053 159.686C106.188 159.655 106.419 159.483 106.744 159.169C106.96 159.233 107.177 159.138 107.394 158.888L107.719 158.512L108.045 158.606C108.314 158.418 108.463 158.292 108.492 158.23C108.518 158.168 108.585 157.98 108.695 157.665L109.02 157.759C109.615 157.07 110.469 156.428 111.58 155.832C112.69 155.237 113.463 154.719 113.897 154.281C114.113 154.092 114.276 153.905 114.384 153.716C114.437 153.592 114.492 153.498 114.547 153.434C114.6 153.122 114.71 152.95 114.872 152.918C115.034 152.887 115.25 152.808 115.522 152.683C115.793 152.245 116.266 151.695 116.944 151.038C117.622 150.38 118.338 149.707 119.099 149.016C119.857 148.327 120.615 147.606 121.375 146.854C122.133 146.102 122.728 145.413 123.163 144.786C123.434 144.473 123.595 144.222 123.65 144.034C123.704 143.845 123.677 143.596 123.569 143.282C123.947 143.345 124.178 143.361 124.26 143.329C124.341 143.298 124.516 143.188 124.788 143C124.788 143.314 124.856 143.518 124.991 143.611C125.125 143.704 125.249 143.877 125.357 144.127C125.628 144.442 125.791 144.803 125.845 145.209C125.898 145.617 126.115 145.852 126.495 145.914C126.766 145.914 127.064 145.852 127.389 145.726C127.714 145.601 128.011 145.477 128.284 145.35C129.529 144.974 130.897 144.597 132.388 144.222C133.878 143.845 135.422 143.55 137.021 143.329C138.619 143.11 140.244 143 141.897 143C143.549 143 145.161 143.22 146.733 143.659C147.33 143.784 147.776 143.925 148.075 144.081C148.372 144.238 148.575 144.568 148.685 145.068C148.847 145.382 149.022 145.57 149.212 145.632C149.403 145.695 149.578 145.883 149.741 146.196L149.66 146.76C149.823 147.074 149.945 147.199 150.026 147.136C150.107 147.074 150.092 147.324 149.985 147.889C150.092 148.139 150.161 148.296 150.189 148.358C150.214 148.421 150.228 148.609 150.228 148.923L150.147 149.769L150.391 150.427C150.283 150.677 150.174 150.835 150.066 150.897C149.957 150.959 149.904 151.084 149.904 151.273C149.47 152.401 148.766 153.374 147.79 154.187C146.815 155.003 145.921 155.691 145.109 156.255C145.054 156.569 145.039 156.631 145.068 156.443C145.095 156.255 145.161 156.099 145.27 155.973C145.161 156.412 144.973 156.757 144.702 157.007C144.43 157.259 144.119 157.509 143.767 157.759C143.414 158.01 143.048 158.277 142.67 158.559C142.29 158.84 141.938 159.202 141.613 159.64V160.204C141.341 160.078 141.097 160.063 140.882 160.156C140.665 160.251 140.447 160.297 140.231 160.297C140.176 160.485 140.151 160.706 140.151 160.955V161.332C139.878 161.458 139.567 161.519 139.216 161.519C138.862 161.519 138.687 161.646 138.687 161.895C138.687 161.646 138.606 161.551 138.443 161.614C138.281 161.676 138.064 161.707 137.794 161.707C137.739 161.959 137.819 162.022 138.037 161.895C138.253 161.771 138.47 161.771 138.687 161.895C138.361 162.587 137.941 163.07 137.427 163.352C136.912 163.634 136.519 163.995 136.249 164.434C136.031 164.372 135.815 164.403 135.599 164.528L135.273 164.716C134.677 165.155 134.23 165.468 133.932 165.656C133.633 165.844 133.132 166.002 132.428 166.126C132.428 166.314 132.401 166.471 132.347 166.596C132.185 166.91 132.023 167.035 131.859 166.972C131.912 166.847 131.994 166.769 132.103 166.737C132.211 166.706 132.157 166.69 131.941 166.69C131.669 167.004 131.303 167.365 130.844 167.771C130.382 168.179 129.909 168.603 129.422 169.04C129.311 168.979 129.258 168.885 129.258 168.758C129.15 168.571 129.23 168.476 129.502 168.476C129.23 168.728 129.068 168.885 129.015 168.946C128.96 169.01 128.934 169.198 128.934 169.51C128.824 169.637 128.675 169.714 128.486 169.746C128.296 169.778 128.147 169.73 128.039 169.605C127.497 170.294 126.887 170.92 126.21 171.484C125.532 172.049 124.978 172.363 124.544 172.424C124.22 172.676 123.934 172.754 123.691 172.659C123.447 172.565 123.271 172.738 123.163 173.176Z" fill="black"/>
<path d="M51.7682 101.602C52.2855 106.624 56.8744 109.916 62.7956 109.916C68.7534 109.916 72.8237 106.667 72.8237 102.193C72.8237 98.2264 70.2712 96.0324 63.8315 94.3872L56.8744 92.6571C47.0311 90.2516 42.1835 84.555 42.1835 75.6508C42.1835 64.4267 50.6951 57 62.6107 57C75.0449 57 82.8531 64.3001 83.0379 75.3128H72.5651C72.1954 70.1657 68.2361 67.0436 62.6474 67.0436C57.133 67.0436 53.4336 70.0391 53.4336 74.5538C53.4336 78.3096 56.0239 80.4194 62.166 82.0236L68.643 83.5846C79.3367 86.2002 84 91.4328 84 100.717C84 112.532 75.6001 120 62.3515 120C49.5103 120 41.3319 113.037 41 101.602H51.7682Z" fill="black"/>
<path d="M91 119V58H102.084V85.8152H102.414L122.309 58H134.642L115.041 85.0549L136 119H122.75L107.04 93.5096L102.084 100.357V119H91Z" fill="black"/>
<path d="M141 58H152V119H141V58Z" fill="black"/>
<path d="M161 119V58H170.272L195.072 97.7363H195.367V58H206V119H196.802L171.965 79.0512H171.634V119H161Z" fill="black"/>
</svg>
