<svg width="92" height="73" viewBox="0 0 92 73" fill="none" xmlns="http://www.w3.org/2000/svg">
<path d="M3.2554 13.4514C3.41225 14.9657 4.79949 15.9585 6.58944 15.9585C8.39063 15.9585 9.62124 14.9785 9.62124 13.6295C9.62124 12.4332 8.8493 11.7716 6.90271 11.2755L4.79949 10.7535C1.82344 10.028 0.357774 8.31018 0.357774 5.62458C0.357774 2.23981 2.93111 0 6.53349 0C10.2925 0 12.653 2.20171 12.709 5.52284H9.54303C9.4309 3.97041 8.234 3.02892 6.54472 3.02892C4.8777 3.02892 3.75901 3.93231 3.75901 5.29404C3.75901 6.42672 4.54218 7.06273 6.39932 7.54662L8.35693 8.01749C11.5903 8.80636 13 10.3843 13 13.1842C13 16.7474 10.4604 19 6.45528 19C2.57312 19 0.100678 16.9 0 13.4514H3.2554Z" fill="white"/>
<path d="M26 19H15V1H26V4.10579H18.4748V8.44711H25.574V11.3412H18.4748V15.8814H26V19Z" fill="white"/>
<path d="M28 9.49349C28 3.57622 31.016 0 35.7733 0C39.7222 0 42.7268 2.79988 42.9886 6.91012H39.6427C39.324 4.65803 37.7761 3.18129 35.7733 3.18129C33.1784 3.18129 31.5054 5.61229 31.5054 9.48096C31.5054 13.4005 33.1555 15.8185 35.7845 15.8185C37.8216 15.8185 39.2897 14.4821 39.6539 12.3061H43C42.613 16.4041 39.8018 19 35.7733 19C30.9934 19 28 15.424 28 9.49349Z" fill="white"/>
<path d="M47.5401 9.50627C47.5401 13.3496 49.2759 15.7801 51.9999 15.7801C54.7125 15.7801 56.4483 13.3496 56.4483 9.50627C56.4483 5.65038 54.7125 3.20709 51.9999 3.20709C49.2872 3.20709 47.5401 5.65038 47.5401 9.50627ZM60 9.50627C60 15.3478 56.908 19 51.9999 19C47.0804 19 44 15.3478 44 9.50627C44 3.6524 47.0804 0 51.9999 0C56.908 0 60 3.6524 60 9.50627Z" fill="white"/>
<path d="M62 19V1H64.8848L72.6003 12.7258H72.6918V1H76V19H73.1384L65.4116 7.21182H65.3084V19H62Z" fill="white"/>
<path d="M81.399 15.8814H83.8522C86.8911 15.8814 88.5338 13.836 88.5338 9.94423C88.5338 6.17672 86.8459 4.10603 83.8522 4.10603H81.399V15.8814ZM84.2573 1C89.1304 1 92 4.21829 92 9.93147C92 15.6446 89.1304 19 84.2573 19H78V1H84.2573Z" fill="white"/>
<path d="M50.4619 53.5586C50.2069 53.605 49.9713 53.6339 49.7551 53.6449C49.5392 53.657 49.333 53.7782 49.1371 54.0088C49.2349 53.9627 49.3232 53.9107 49.4019 53.853C49.4801 53.7955 49.5684 53.7782 49.6668 53.8013L49.8439 53.87C49.883 53.87 49.9173 53.8357 49.9468 53.7661C49.9764 53.6969 50.03 53.6743 50.1087 53.6969C50.4425 53.6743 50.7714 53.6509 51.0953 53.6279C51.419 53.605 51.7185 53.5819 51.9935 53.5586C52.0917 53.5819 52.16 53.5586 52.1999 53.4893C52.2387 53.4198 52.3072 53.3854 52.4056 53.3854C52.4449 53.4316 52.4987 53.4893 52.5678 53.5586C52.6361 53.6279 52.73 53.605 52.8476 53.4893C52.7492 53.4893 52.7001 53.4667 52.7001 53.4198C52.6805 53.3972 52.6805 53.3739 52.7001 53.3508C52.3271 53.3508 51.9442 53.3628 51.5516 53.3854C51.1587 53.4085 50.7955 53.4667 50.4619 53.5586ZM47.1343 60.8317C47.2325 60.8317 47.3599 60.8031 47.5172 60.7454C47.6742 60.6876 47.7427 60.5546 47.7233 60.3471C47.5857 60.4854 47.3893 60.6472 47.1343 60.8317ZM48.8127 53.974C48.7543 53.9511 48.6851 53.9627 48.607 54.0088C48.5281 54.0553 48.4546 54.0954 48.3857 54.1301C48.317 54.1647 48.2534 54.1938 48.1945 54.2164C48.1358 54.24 48.0959 54.2284 48.0767 54.182C47.9393 54.3439 47.7479 54.4418 47.5024 54.4762C47.2566 54.511 47.0359 54.6554 46.8398 54.9093C46.9969 54.9093 47.1586 54.8225 47.326 54.6496C47.4924 54.4762 47.6646 54.3672 47.8413 54.3203C47.8802 54.3439 47.9194 54.3552 47.9589 54.3552C47.998 54.3783 48.0667 54.3898 48.1651 54.3898C48.2242 54.3898 48.3023 54.3263 48.4007 54.1991C48.4988 54.0726 48.5379 54.1012 48.5187 54.2857C48.5774 54.1938 48.6461 54.1471 48.7244 54.1471C48.8029 54.1471 48.8911 54.1012 48.9899 54.0088L49.0486 53.9396C49.068 53.917 49.068 53.8934 49.0486 53.87C49.0089 53.9396 48.9602 53.974 48.9013 53.974H48.8127ZM45.279 61.6978C45.318 61.8135 45.3624 61.8188 45.4115 61.7149C45.4604 61.611 45.5338 61.559 45.6326 61.559C45.6913 61.4898 45.7303 61.4551 45.7502 61.4551H45.8091C45.9659 61.4092 46.0989 61.3113 46.2066 61.1607C46.3144 61.0109 46.4177 60.9012 46.5161 60.8317L46.6631 60.8666C46.6631 60.7973 46.7318 60.7396 46.8693 60.6934L47.0462 60.6239C47.1439 60.532 47.2325 60.4452 47.311 60.3644C47.3893 60.2836 47.4973 60.1623 47.635 60.0005C47.1638 60.255 46.7515 60.532 46.3981 60.8317C46.0449 61.1321 45.6719 61.4208 45.279 61.6978ZM45.2497 62.0786C45.1509 62.1478 45.0483 62.2121 44.9403 62.2691C44.8321 62.327 44.7978 62.4136 44.8372 62.5291C44.9354 62.4598 45.0041 62.3903 45.0434 62.321C45.0826 62.252 45.1509 62.2405 45.2497 62.2864L45.1908 62.3903C45.544 62.2058 45.8778 62.0093 46.1919 61.8017C46.5058 61.5937 46.8202 61.3163 47.1343 60.9705C46.8006 61.1781 46.4866 61.3859 46.1919 61.5937C45.8974 61.8017 45.5831 62.0329 45.2497 62.2864V62.0786ZM44.7196 67.6199C44.8763 67.6669 45.0184 67.7015 45.1467 67.7238C45.2739 67.7472 45.397 67.7128 45.5146 67.6199C45.3573 67.5976 45.2248 67.6026 45.117 67.6378C45.009 67.6719 44.8763 67.6669 44.7196 67.6199ZM43.512 63.2215C43.767 63.0373 43.9832 62.8812 44.1601 62.7542C44.3366 62.6275 44.4738 62.4831 44.5722 62.321C44.4738 62.4831 44.2973 62.6212 44.0421 62.7366C43.7866 62.8523 43.6102 63.0137 43.512 63.2215ZM44.0421 57.5414C43.8257 57.7494 43.6198 57.8418 43.4236 57.8184C43.502 57.7263 43.5858 57.6453 43.674 57.5763C43.7623 57.5067 43.8848 57.4954 44.0421 57.5414ZM43.1588 64.1913C43.1189 64.1913 43.0602 64.2144 42.9821 64.2608C42.9034 64.307 42.8442 64.3876 42.8052 64.5028C42.9232 64.3876 43.0113 64.3299 43.0705 64.3299C43.1294 64.3299 43.1588 64.2837 43.1588 64.1913ZM42.5993 64.9877C42.5596 65.1039 42.5551 65.1325 42.5843 65.0745C42.6138 65.017 42.6579 65 42.7168 65.0228C42.6383 65.1149 42.5401 65.1842 42.4223 65.2304C42.3637 65.2537 42.3144 65.277 42.2753 65.2996C42.2753 65.2078 42.334 65.1265 42.452 65.0569C42.5696 64.9877 42.6774 64.9074 42.7757 64.815C42.8349 64.8378 42.8246 64.8727 42.7465 64.9189C42.7068 64.9417 42.6579 64.9651 42.5993 64.9877ZM41.2149 64.7108C41.2542 64.7339 41.2834 64.7575 41.3033 64.7801C41.3227 64.8034 41.3425 64.8268 41.3624 64.8494V64.9189C41.4213 64.9651 41.5339 64.8958 41.701 64.7108C41.8677 64.5264 42 64.3876 42.0984 64.2952C42.1573 64.2952 42.2062 64.2837 42.2459 64.2608C42.3438 64.2608 42.3536 64.2377 42.2753 64.1913C42.0788 64.2377 41.8969 64.3186 41.7303 64.4335C41.5632 64.5497 41.3916 64.6416 41.2149 64.7108ZM41.0384 65.9577C40.94 66.0041 40.8271 66.0676 40.6997 66.1484C40.5717 66.229 40.4494 66.2925 40.3316 66.3387C40.4294 66.4544 40.513 66.4775 40.5817 66.408C40.6504 66.3387 40.6748 66.3505 40.6556 66.4426C40.6946 66.2348 40.7682 66.1254 40.8764 66.1133C40.9842 66.1023 41.0384 66.0501 41.0384 65.9577ZM44.3073 63.1523L44.1304 63.1176C44.0321 63.2333 43.9781 63.3026 43.9687 63.3254C43.9584 63.3488 43.9537 63.3834 43.9537 63.4291C43.7181 63.476 43.4924 63.6198 43.2764 63.8625C43.0602 64.1047 42.815 64.2837 42.5401 64.3991C42.4418 64.492 42.3782 64.5783 42.3487 64.6589C42.3195 64.74 42.2649 64.7575 42.1867 64.7108C42.0103 64.8727 41.8336 64.9877 41.6569 65.0569C41.48 65.1265 41.2932 65.2422 41.0971 65.4035L41.274 65.4382C41.2149 65.5074 41.1268 65.577 41.0088 65.646C40.8912 65.7153 40.7732 65.7845 40.6556 65.8538C40.5376 65.9233 40.4345 65.9981 40.3461 66.0792C40.258 66.1602 40.2138 66.2468 40.2138 66.3387C40.3118 66.2468 40.4345 66.1484 40.5817 66.044C40.729 65.9404 40.8809 65.8423 41.0384 65.7499C41.1366 65.7042 41.2394 65.6111 41.3476 65.4731C41.4554 65.3343 41.5487 65.2188 41.6272 65.1265C41.7254 65.1726 41.7401 65.2078 41.6714 65.2304C41.6022 65.2537 41.5879 65.2188 41.6272 65.1265C41.7254 65.1726 41.8434 65.1438 41.9808 65.0401C42.118 64.9357 42.2356 64.8958 42.334 64.9189C42.2753 64.9189 42.1867 64.9651 42.0692 65.0569C42.0103 65.1039 41.961 65.1611 41.9217 65.2304C42.0199 65.1611 42.1671 65.0866 42.3637 65.005C42.5596 64.9247 42.7068 64.7575 42.8052 64.5028C42.6479 64.5497 42.5451 64.6363 42.4962 64.7628C42.4469 64.8898 42.3929 64.8958 42.334 64.7801C42.6086 64.5264 42.879 64.2897 43.1439 64.0701C43.4091 63.851 43.6789 63.6371 43.9537 63.4291C44.0321 63.3834 44.1159 63.3202 44.2043 63.2388C44.2924 63.158 44.3855 63.0601 44.484 62.9442C44.5429 62.9678 44.5916 62.9562 44.6313 62.9101C44.6505 62.8872 44.6605 62.8639 44.6605 62.8405C44.7587 62.7946 44.8669 62.76 44.9845 62.7366C45.1025 62.714 45.1708 62.5981 45.1908 62.3903C45.0141 62.4598 44.8468 62.5579 44.6902 62.6847C44.5329 62.8119 44.4051 62.9678 44.3073 63.1523ZM40.3903 68.3475C40.1938 68.5787 39.9091 68.6479 39.5363 68.5551C39.6344 68.5092 39.7766 68.4921 39.9633 68.5034C40.1496 68.5152 40.2919 68.4632 40.3903 68.3475ZM39.4187 66.3387C39.4968 66.3387 39.5461 66.3274 39.5659 66.3041C39.5851 66.281 39.5954 66.2581 39.5954 66.2348C39.87 66.0734 40.1056 65.8884 40.302 65.6806C40.4983 65.4731 40.685 65.3114 40.8615 65.1957C40.2919 65.4269 39.8113 65.8079 39.4187 66.3387ZM39.9488 66.7889C39.8504 66.9739 39.6982 67.1353 39.4921 67.2736C39.2862 67.4124 39.0847 67.5976 38.8886 67.8277C38.9865 67.5976 39.1487 67.4069 39.3745 67.2565C39.6001 67.1067 39.7915 66.9506 39.9488 66.7889ZM38.5352 67.1004C38.6329 66.9855 38.746 66.8929 38.8736 66.8236C39.0013 66.7543 39.1338 66.6391 39.2714 66.4775L39.0651 66.4426C38.9865 66.6276 38.8835 66.737 38.7561 66.7716C38.628 66.8063 38.5546 66.9162 38.5352 67.1004ZM38.5352 58.7885C38.6329 58.7192 38.746 58.6269 38.8736 58.5112C39.0013 58.396 39.0749 58.3036 39.0947 58.2343C38.9964 58.2805 38.9131 58.3382 38.8444 58.4072C38.7753 58.4765 38.6722 58.6038 38.5352 58.7885ZM39.0947 67.3777C38.9964 67.447 38.8933 67.4934 38.7853 67.5163C38.6771 67.5396 38.6037 67.632 38.5646 67.7934C38.5252 67.7708 38.4955 67.7472 38.4763 67.7238C38.4366 67.6779 38.4861 67.6669 38.6235 67.6895C38.6235 67.5743 38.6677 67.4819 38.7561 67.4124C38.8444 67.3431 38.9573 67.3316 39.0947 67.3777ZM38.3583 70.1829C38.4564 70.2065 38.5006 70.2412 38.491 70.2868C38.4806 70.3338 38.4955 70.3104 38.5352 70.2176C38.5352 70.0334 38.5646 69.9581 38.6235 69.9924C38.6826 70.0273 38.7119 69.9872 38.7119 69.8715C38.6135 69.8715 38.5303 69.8946 38.4616 69.9405C38.3924 69.9872 38.329 69.9987 38.2701 69.9754C38.2701 69.8599 38.3534 69.808 38.5205 69.8195C38.6869 69.8316 38.8194 69.8142 38.918 69.7678V69.9061C38.918 69.9294 38.9078 69.9987 38.8886 70.1137C38.8491 70.1603 38.8591 70.143 38.918 70.062C38.9767 69.9814 38.9964 69.9987 38.9767 70.1137L38.8295 70.2176C38.8295 70.2868 38.8393 70.2989 38.8591 70.2525C38.8591 70.2299 38.8685 70.1829 38.8886 70.1137L38.7119 70.0793C38.6722 70.1488 38.6722 70.195 38.7119 70.2176C38.7509 70.2412 38.7217 70.3104 38.6235 70.4256C38.5838 70.3104 38.5693 70.2818 38.5794 70.3388C38.589 70.3968 38.5546 70.4141 38.4763 70.3907C38.4564 70.576 38.3879 70.6799 38.2701 70.703C38.1523 70.7256 38.0444 70.7607 37.9462 70.8066C37.8871 70.7145 37.8822 70.6568 37.9313 70.6334C37.9801 70.6106 38.0149 70.5642 38.0345 70.4947C38.1126 70.518 38.1865 70.4894 38.2554 70.4083C38.3239 70.3278 38.3583 70.2525 38.3583 70.1829ZM37.3277 70.703C37.3668 70.7491 37.3668 70.7891 37.3277 70.8239C37.2883 70.8586 37.2394 70.893 37.1805 70.9278C37.1218 70.9625 37.0672 70.9969 37.0185 71.0317C36.9694 71.0664 36.9449 71.107 36.9449 71.1532C36.9253 71.1532 36.9154 71.1183 36.9154 71.0488C36.9154 71.0262 36.9253 70.9916 36.9449 70.9449C36.9054 70.9449 36.8612 70.9969 36.8124 71.101C36.7631 71.2052 36.66 71.1876 36.5031 71.0488C36.6798 70.9336 36.9547 70.8187 37.3277 70.703ZM36.179 70.1137C36.3361 70.0449 36.4686 69.9699 36.5768 69.8885C36.6843 69.808 36.778 69.7447 36.8565 69.6985C36.7191 69.6755 36.596 69.7101 36.4884 69.8022C36.3802 69.8946 36.2772 69.9987 36.179 70.1137ZM45.1025 63.1176C45.0041 63.0024 44.9156 63.0024 44.8372 63.1176C44.7587 63.2333 44.6703 63.3372 44.5722 63.4291H44.7636C44.8125 63.4291 44.8567 63.3947 44.8961 63.3254C44.8567 63.3947 44.7879 63.4527 44.6902 63.4984C44.6313 63.5219 44.582 63.5335 44.5429 63.5335C44.4051 63.418 44.3118 63.4123 44.2632 63.5159C44.2137 63.6198 44.1403 63.6602 44.0421 63.6371C44.0222 63.7529 44.0128 63.8224 44.0128 63.845V63.9832C43.9339 63.8683 43.8362 63.8625 43.7181 63.9664C43.6006 64.0701 43.5807 64.1798 43.6592 64.2952C43.5807 64.2952 43.5365 64.2897 43.5267 64.2779C43.5167 64.2666 43.512 64.2034 43.512 64.0877C43.2369 64.2952 42.9424 64.5379 42.6285 64.815C42.3144 65.0921 42.0199 65.3343 41.7452 65.5418C41.8235 65.5888 41.8726 65.5888 41.8925 65.5418C41.9117 65.4959 41.9511 65.5308 42.0103 65.646C41.9315 65.6691 41.8677 65.7153 41.8186 65.7845C41.7695 65.8538 41.7156 65.9233 41.6569 65.9921C41.598 66.0614 41.5241 66.1133 41.4358 66.1484C41.3476 66.1828 41.2444 66.1886 41.1268 66.1653C41.2444 66.1653 41.2689 66.1886 41.2002 66.2348C41.131 66.281 41.0775 66.2468 41.0384 66.1309L41.0088 66.2694H40.8615C40.7631 66.2694 40.7631 66.2752 40.8615 66.2867C40.9597 66.2985 40.9891 66.362 40.9501 66.4775C40.8321 66.4544 40.7586 66.4544 40.729 66.4775C40.6997 66.5003 40.6748 66.5352 40.6556 66.5814C40.6357 66.6276 40.6208 66.6675 40.6114 66.7024C40.6014 66.737 40.5572 66.7543 40.4789 66.7543C40.4001 66.7543 40.3803 66.7312 40.42 66.685L40.5083 66.5814C40.4097 66.5585 40.3461 66.5814 40.3169 66.6507C40.2874 66.7194 40.233 66.7312 40.1547 66.685C40.1743 66.7086 40.1938 66.7086 40.2138 66.685C40.233 66.685 40.233 66.6155 40.2138 66.4775C40.0371 66.5698 39.8848 66.6971 39.7574 66.8582C39.6293 67.0201 39.4968 67.0894 39.3598 67.0658L39.6248 66.9621C39.6442 66.9162 39.6639 66.8582 39.6835 66.7889C39.7426 66.6735 39.8015 66.6276 39.8604 66.6507C39.8604 66.5352 39.9142 66.4717 40.0224 66.4599C40.1302 66.4484 40.1447 66.3854 40.0664 66.2694C39.968 66.2694 39.8604 66.3505 39.7426 66.5119C39.6248 66.6735 39.4577 66.7312 39.242 66.685L39.1831 66.8582L39.0064 66.7889C38.9865 66.8816 38.9865 66.9046 39.0064 66.8582C39.0258 66.8123 39.0847 66.8123 39.1831 66.8582C39.0847 67.0434 38.9667 67.1647 38.8295 67.2216C38.692 67.2796 38.5742 67.3431 38.4763 67.4124C38.3779 67.2512 38.201 67.3431 37.9462 67.6895C38.0243 67.7128 38.0787 67.7015 38.1082 67.6546C38.1376 67.6084 38.201 67.5976 38.2996 67.6199C38.1818 67.7818 38.054 67.9146 37.9167 68.0185C37.7789 68.1221 37.637 68.221 37.4897 68.3129C37.3425 68.4053 37.2144 68.4979 37.1069 68.5902C36.9987 68.6826 36.9154 68.7978 36.8565 68.9363C36.7582 68.8901 36.6843 68.9308 36.6357 69.0575C36.5864 69.1848 36.4835 69.2255 36.3262 69.1785L36.3854 69.248C36.4046 69.2714 36.4146 69.3173 36.4146 69.3863C36.3753 69.364 36.3361 69.3863 36.297 69.4558C36.2575 69.5251 36.1888 69.5369 36.0909 69.4905C36.1299 69.3981 36.1498 69.2945 36.1498 69.1785V69.3519C36.0909 69.4443 36.0614 69.5136 36.0614 69.5598C36.0416 69.6062 36.0467 69.635 36.0761 69.6466C36.1056 69.6581 36.169 69.629 36.2678 69.5598C36.4046 69.4905 36.5618 69.3753 36.7387 69.2132C36.9154 69.052 37.0921 68.8841 37.2686 68.7114C37.4455 68.5383 37.6222 68.3709 37.7989 68.2092C37.9754 68.0476 38.1325 67.9091 38.2701 67.7934C38.2307 67.9783 38.1523 68.1048 38.0345 68.1741C37.9167 68.2436 37.8478 68.3013 37.8284 68.3475C37.8478 68.3013 37.9167 68.3013 38.0345 68.3475C38.1523 68.3942 38.2599 68.3822 38.3583 68.3129L38.5352 68.2436C38.5939 68.2436 38.6869 68.2557 38.815 68.278C38.9424 68.3013 39.055 68.3129 39.1536 68.3129C39.1536 68.221 39.1878 68.1631 39.2565 68.14C39.3252 68.1169 39.3892 68.0704 39.4479 68.0012C39.5461 68.0245 39.6639 68.0418 39.8015 68.0529C39.9387 68.0649 40.086 68.0476 40.2433 68.0012C40.2825 67.8857 40.3412 67.8277 40.42 67.8277C40.4983 67.8277 40.6063 67.8511 40.7439 67.8973C40.8419 67.8747 40.9302 67.8511 41.0088 67.8277C41.2051 67.7818 41.3329 67.7818 41.3916 67.8277C41.4898 67.6669 41.637 67.58 41.8336 67.5682C42.0293 67.5567 42.1966 67.6084 42.334 67.7238C42.4322 67.5396 42.6138 67.4528 42.879 67.4643C43.1439 67.4761 43.3842 67.4588 43.6006 67.4124C43.8554 67.3664 44.0814 67.3258 44.2777 67.2912C44.4738 67.2565 44.6902 67.2166 44.9258 67.1697C45.0237 67.1933 45.1068 67.2046 45.1759 67.2046C45.2446 67.2046 45.3084 67.2277 45.3673 67.2736C45.544 67.1817 45.7354 67.1473 45.9416 67.1697C46.148 67.1933 46.3394 67.1933 46.5161 67.1697C46.7318 67.2166 46.9474 67.245 47.1638 67.2565C47.3799 67.2686 47.5763 67.2512 47.753 67.2046C47.8119 67.2277 47.8605 67.2166 47.9002 67.1697C47.9194 67.1473 47.9295 67.1127 47.9295 67.0658C48.0276 67.0894 48.116 67.1004 48.1945 67.1004C48.3714 67.1473 48.5671 67.1586 48.7835 67.1353C48.9993 67.1127 49.1858 67.124 49.3431 67.1697C49.4212 67.1933 49.5242 67.2166 49.6525 67.2392C49.7799 67.2628 49.9124 67.2854 50.0496 67.3085H50.1676C50.1871 67.3085 50.256 67.3316 50.3738 67.3777C50.5507 67.4008 50.7419 67.4415 50.9479 67.499C51.1542 67.5567 51.3552 67.5976 51.5516 67.6199C51.8853 67.7128 52.2189 67.7934 52.5531 67.8626C52.8866 67.9322 53.1613 68.0476 53.3777 68.2092C54.1235 68.5325 54.8154 68.8382 55.4539 69.1268C56.0915 69.4157 56.6069 69.8484 57 70.4256C56.3521 70.0334 55.6895 69.6694 55.0119 69.3344C54.3348 69.0001 53.6133 68.7059 52.8476 68.4514L53.0243 68.659C52.769 68.6131 52.5531 68.5498 52.3764 68.4687C52.1999 68.3879 52.0618 68.3709 51.9641 68.4168C51.7872 68.3709 51.6299 68.33 51.4929 68.2956C51.3552 68.2609 51.2176 68.2436 51.0804 68.2436C51.0219 68.2898 50.9673 68.3013 50.9188 68.278C50.8695 68.2557 50.8305 68.2321 50.8008 68.2092C50.7714 68.1861 50.7665 68.1691 50.7863 68.1568C50.8053 68.1457 50.845 68.1631 50.9039 68.2092C50.8644 68.1861 50.8347 68.1631 50.8155 68.14C50.7955 68.1169 50.7763 68.1048 50.7566 68.1048H50.7272V68.14C50.6092 68.1631 50.4519 68.1631 50.256 68.14C50.0595 68.1169 49.8731 68.0938 49.6967 68.0704C49.5198 68.0476 49.3674 68.0418 49.2398 68.0529C49.1121 68.0649 49.0486 68.1284 49.0486 68.2436V68.0361C48.8719 68.1518 48.6804 68.1861 48.4745 68.14C48.2683 68.0938 48.1358 68.0938 48.0767 68.14C48.0959 68.0938 48.0421 68.0822 47.9145 68.1048C47.7869 68.1284 47.6939 68.1741 47.635 68.2436C47.5763 68.1518 47.5024 68.0998 47.4143 68.088C47.326 68.0765 47.2376 68.088 47.1493 68.1221C47.0607 68.1568 46.9672 68.1917 46.8693 68.2261C46.7707 68.2609 46.6825 68.267 46.6042 68.2436C46.4668 68.221 46.3244 68.2092 46.1772 68.2092C46.0299 68.2092 45.8682 68.278 45.6913 68.4168V68.2436C45.6127 68.221 45.5338 68.221 45.4557 68.2436C45.3771 68.267 45.3084 68.2321 45.2497 68.14C45.1708 68.14 45.1509 68.1631 45.1908 68.2092C45.21 68.2321 45.2297 68.267 45.2497 68.3129C45.0728 68.3593 44.9303 68.3942 44.8227 68.4168C44.7145 68.4401 44.5722 68.4748 44.3957 68.5207L44.5429 68.5551C44.5429 68.4863 44.5231 68.4514 44.484 68.4514C44.4642 68.4748 44.4347 68.4979 44.3957 68.5207C44.3957 68.4053 44.4249 68.3418 44.484 68.33C44.5429 68.3189 44.5916 68.278 44.6313 68.2092C44.4738 68.2557 44.3707 68.2898 44.3219 68.3129C44.2728 68.336 44.1992 68.3822 44.101 68.4514C44.0222 68.4286 43.9979 68.4168 44.0276 68.4168C44.057 68.4168 44.0519 68.3593 44.0128 68.2436L43.9537 68.3129C43.9145 68.3593 43.8752 68.3709 43.8362 68.3475C43.993 68.2321 44.1842 68.1741 44.4102 68.1741C44.6356 68.1741 44.8669 68.1518 45.1025 68.1048C44.945 68.0589 44.7636 68.0476 44.5575 68.0704C44.3515 68.0938 44.1695 68.0822 44.0128 68.0361C44.0128 67.9206 44.0321 67.8973 44.0717 67.9665C44.1108 68.0361 44.1499 68.013 44.1893 67.8973C44.0321 67.9665 43.9245 68.0361 43.8654 68.1048C43.8065 68.1741 43.6889 68.1861 43.512 68.14C43.6102 68.0704 43.6691 68.0589 43.6889 68.1048C43.7081 68.1518 43.767 68.1284 43.8654 68.0361C43.6492 67.9665 43.4136 67.9726 43.1588 68.0529C42.9034 68.1342 42.6678 68.1518 42.452 68.1048C42.7856 67.9665 43.1537 67.8857 43.5562 67.8626C43.9584 67.8395 44.3266 67.8167 44.6605 67.7934C44.6998 67.7015 44.7145 67.6496 44.7047 67.6378C44.6947 67.6262 44.6407 67.6199 44.5429 67.6199C44.582 67.6199 44.6164 67.6262 44.6458 67.6378C44.6755 67.6496 44.7094 67.6546 44.7489 67.6546C44.7879 67.6779 44.8176 67.6895 44.8372 67.6895C44.6211 67.5281 44.3707 67.4819 44.0863 67.5507C43.8016 67.6199 43.5218 67.6779 43.2469 67.7238L43.1588 67.6895C43.1189 67.6199 43.0408 67.6084 42.9232 67.6546C42.8641 67.7015 42.815 67.7472 42.7757 67.7934L42.6579 67.7238C42.5794 67.6779 42.5696 67.7015 42.6285 67.7934C42.5696 67.7472 42.4712 67.7414 42.334 67.7758C42.1966 67.8107 42.0884 67.8167 42.0103 67.7934C41.8336 67.8395 41.6517 67.8571 41.4654 67.8453C41.2785 67.8338 41.1366 67.8857 41.0384 68.0012C40.8615 68.0476 40.7486 68.0822 40.6997 68.1048C40.6504 68.1284 40.5474 68.1631 40.3903 68.2092C40.2919 68.1631 40.2087 68.1691 40.1402 68.2261C40.0713 68.284 39.9878 68.2898 39.8899 68.2436H39.7723L39.7132 68.4514C39.6735 68.4514 39.6393 68.4462 39.6101 68.4341C39.5807 68.4228 39.5461 68.4168 39.507 68.4168H39.4187C39.2612 68.4401 39.0847 68.4805 38.8886 68.5383C38.692 68.596 38.5448 68.7059 38.447 68.8671C38.3482 68.7519 38.2701 68.7059 38.2115 68.7283C38.1523 68.7519 38.1126 68.8555 38.0934 69.0405C37.877 68.9943 37.6711 69.0174 37.475 69.1092C37.2784 69.2021 37.102 69.2601 36.9449 69.2824C36.9054 69.3981 36.9449 69.4333 37.0627 69.3863C37.1805 69.3404 37.2394 69.2945 37.2394 69.248C37.6711 69.2021 38.0591 69.104 38.4024 68.9536C38.746 68.8036 39.1242 68.6713 39.5363 68.5551C39.0258 68.7403 38.5546 68.925 38.1227 69.1092C37.6907 69.2945 37.2686 69.4905 36.8565 69.6985C36.8565 69.8599 36.9199 69.8775 37.048 69.7502C37.1754 69.6235 37.2686 69.5716 37.3277 69.5946C37.3469 69.6175 37.3766 69.6408 37.4161 69.6634C37.475 69.7327 37.5042 69.7796 37.5042 69.8022C37.5042 69.7327 37.5192 69.6581 37.5488 69.5771C37.5781 69.4965 37.6222 69.4676 37.6811 69.4905C37.6613 69.6524 37.6222 69.7277 37.5633 69.7154C37.5042 69.7043 37.4257 69.7211 37.3277 69.7678C37.2294 69.7678 37.151 69.7907 37.0921 69.8366C37.033 69.8835 36.9547 69.9405 36.8565 70.01C36.7387 70.1257 36.6158 70.1777 36.4884 70.1656C36.3604 70.1546 36.2479 70.1716 36.1498 70.2176C36.1103 70.2412 36.0806 70.2758 36.0614 70.3217C36.0025 70.3907 35.9731 70.4836 35.9731 70.5991V70.3907C35.9142 70.3684 35.8356 70.4141 35.7375 70.5295C35.6978 70.5991 35.6587 70.6568 35.6197 70.703C35.6786 70.8187 35.7767 70.847 35.9142 70.7891C36.0514 70.7318 36.169 70.6799 36.2678 70.6334L36.4146 70.703C36.3162 70.703 36.2575 70.7256 36.2381 70.7717C36.218 70.8187 36.2087 70.8586 36.2087 70.893C36.2087 70.9278 36.1939 70.9509 36.1645 70.9625C36.1348 70.9743 36.0806 70.9683 36.0025 70.9449C36.1005 70.9916 36.1397 70.9682 36.1203 70.8759C36.1005 70.784 36.1397 70.7607 36.2381 70.8066C36.0806 70.7607 35.9974 70.8066 35.988 70.9449C35.9775 71.0837 35.9434 71.1532 35.8847 71.1532C35.9434 71.2456 36.0364 71.2456 36.1645 71.1532C36.2921 71.0609 36.3753 70.9567 36.4146 70.841C36.4737 70.9567 36.5179 70.9916 36.5473 70.9449C36.5768 70.899 36.606 70.847 36.6357 70.7891C36.6651 70.7318 36.7042 70.6914 36.7535 70.6678C36.8023 70.6452 36.8758 70.6914 36.9743 70.8066C36.9547 70.83 36.9253 70.841 36.8862 70.841C36.8072 70.841 36.7484 70.8066 36.7093 70.7371C36.7682 70.853 36.7874 70.9105 36.7682 70.9105C36.7484 70.9336 36.7287 70.9336 36.7093 70.9105C36.6698 70.8879 36.6158 70.893 36.5473 70.9278C36.4784 70.9625 36.4146 71.0029 36.3559 71.0488C36.2772 71.1183 36.2087 71.1761 36.1498 71.222C36.1103 71.3841 36.0514 71.4762 35.9731 71.4991C35.8943 71.5222 35.7274 71.545 35.4722 71.5686C35.4722 71.6143 35.4329 71.6838 35.3546 71.7762L35.2663 71.8803C35.2074 71.8803 35.1779 71.8454 35.1779 71.7762V71.6722C35.0793 71.7644 34.9816 71.8454 34.8834 71.9149C34.785 71.9842 34.7069 72.0648 34.6478 72.1574C34.5494 72.2264 34.4417 72.2553 34.3239 72.2437C34.2061 72.2319 34.1369 72.2839 34.1177 72.3996C34.0193 72.3765 33.9854 72.3996 34.0146 72.4691C34.0443 72.5384 34.0001 72.5494 33.8821 72.5035C33.941 72.5266 33.9555 72.5326 33.9263 72.5211C33.8968 72.509 33.8478 72.509 33.779 72.5211C33.7099 72.5326 33.6365 72.561 33.5584 72.6074C33.4794 72.6533 33.4301 72.7226 33.4109 72.8157C33.313 72.8614 33.2246 72.9133 33.1461 72.9713C33.0678 73.0288 33.0089 72.9999 32.9692 72.8845C32.9692 72.8614 32.9596 72.838 32.9397 72.8157C32.8808 72.7462 32.8322 72.7116 32.7925 72.7116C32.7534 72.7806 32.6994 72.7979 32.6307 72.7638C32.562 72.7286 32.5127 72.6769 32.4835 72.6074C32.4538 72.5384 32.4442 72.4515 32.4538 72.3476C32.4638 72.2437 32.5178 72.1574 32.616 72.0881C32.5767 72.2495 32.6358 72.3823 32.7925 72.4864C32.9498 72.5903 33.0774 72.5494 33.1753 72.3652L33.0573 72.2957C33.0573 72.2495 33.0774 72.2437 33.1164 72.2784C33.1561 72.3132 33.1952 72.2839 33.2342 72.192C33.1363 72.0761 33.0774 72.0472 33.0573 72.1049C33.0383 72.1627 32.9792 72.192 32.8808 72.192C32.8616 72.0761 32.8123 71.9895 32.7336 71.9323C32.6553 71.8743 32.5818 71.8163 32.5127 71.7593C32.4442 71.7011 32.3904 71.6379 32.3507 71.5686C32.3115 71.4991 32.3213 71.3952 32.3804 71.2571C32.2822 71.2571 32.2479 71.2862 32.2771 71.3432C32.3066 71.4012 32.2822 71.3728 32.2037 71.2571L32.4393 71.1183C32.3021 70.9798 32.1791 70.853 32.071 70.7371C31.9634 70.6219 31.9781 70.4836 32.1151 70.3217C32.1151 70.2525 32.174 70.2123 32.292 70.2008C32.4096 70.1892 32.5178 70.1488 32.616 70.0793C32.6749 69.9872 32.7385 69.9294 32.8072 69.9061C32.8763 69.8835 32.9301 69.8366 32.9692 69.7678C32.9692 69.6755 32.9596 69.6694 32.9397 69.7502C32.9205 69.8316 32.9301 69.8366 32.9692 69.7678C33.1461 69.629 33.3228 69.485 33.4993 69.3344C33.676 69.1848 33.8527 69.0289 34.0294 68.8671V68.7283C34.0486 68.6364 34.1568 68.5551 34.3533 68.4863C34.5494 68.4168 34.7362 68.3013 34.9129 68.14C34.9323 68.0704 34.9865 67.9665 35.0748 67.8277C35.1632 67.6895 35.2366 67.6435 35.2957 67.6895L35.443 67.5858C35.7176 67.3316 35.9681 67.1004 36.1939 66.8929C36.4193 66.685 36.6506 66.5003 36.8862 66.3387C37.0038 66.2925 37.0772 66.2232 37.1069 66.1309C37.1363 66.039 37.1999 65.9462 37.2983 65.8538H37.3866C37.4455 65.8538 37.475 65.8192 37.475 65.7499C37.5732 65.7499 37.637 65.721 37.6664 65.6631C37.6957 65.6061 37.7496 65.5192 37.8284 65.4035C38.0051 65.2881 38.2115 65.1611 38.447 65.0228C38.6826 64.884 38.8886 64.7455 39.0651 64.6069C39.6735 64.1682 40.302 63.6891 40.9501 63.1696C41.598 62.65 42.2503 62.1305 42.9083 61.611C43.566 61.0915 44.2235 60.584 44.8814 60.0873C45.5389 59.5911 46.2015 59.1469 46.8693 58.7538C47.203 58.5458 47.5513 58.2747 47.9145 57.9397C48.2782 57.6051 48.6363 57.3336 48.9899 57.126C49.2645 56.9184 49.5198 56.7335 49.7551 56.5718C49.9907 56.4105 50.1971 56.2719 50.3738 56.1562C50.4717 56.0639 50.5699 55.9542 50.6683 55.8269C50.7665 55.7004 50.9135 55.6136 51.11 55.5674C51.2475 55.452 51.4141 55.3197 51.6107 55.1691C51.8068 55.019 51.9982 54.8745 52.185 54.7362C52.3713 54.5976 52.5281 54.4649 52.6562 54.3376C52.7836 54.2111 52.8476 54.1245 52.8476 54.0781C52.8668 53.9627 52.8476 53.9049 52.7885 53.9049H53.0539C52.5236 53.7897 52.0083 53.7955 51.5074 53.922C51.007 54.0492 50.5108 54.1471 50.0206 54.2164C50.0396 54.1012 50.1036 54.0492 50.2118 54.0608C50.3194 54.0726 50.3836 54.0206 50.4035 53.9049C50.3636 53.9049 50.3151 53.9396 50.256 54.0088C50.2361 54.0322 50.2263 54.0553 50.2263 54.0781C50.1676 53.9862 50.0744 53.9453 49.9468 53.9569C49.8189 53.9689 49.7061 53.974 49.6083 53.974L49.5494 54.1127C49.5294 54.1361 49.5095 54.1361 49.4903 54.1127C49.3727 54.2051 49.2989 54.2633 49.2694 54.2857C49.2398 54.3093 49.1764 54.3439 49.0782 54.3898V54.2164C48.9798 54.3783 48.8078 54.4822 48.5628 54.5281C48.317 54.5748 48.1258 54.5748 47.9884 54.5281C47.9489 54.6207 47.9295 54.6787 47.9295 54.7013V54.9093C47.8703 54.9093 47.8213 54.8634 47.7822 54.7706C47.7624 54.7246 47.753 54.6787 47.753 54.6323C47.6939 54.6323 47.6249 54.6842 47.5466 54.7879C47.4681 54.8918 47.4777 54.9671 47.5763 55.0133C47.4777 55.0825 47.3893 55.1518 47.311 55.2211C47.2325 55.2903 47.1439 55.3247 47.0462 55.3247C47.0852 55.1864 47.1388 55.1114 47.2079 55.0998C47.2767 55.0885 47.3403 55.0363 47.3992 54.944C47.3403 55.0363 47.2717 55.0825 47.1934 55.0825C47.1145 55.0825 47.0261 55.1405 46.9282 55.2555L47.0462 55.3247C46.9083 55.4635 46.7367 55.5908 46.5308 55.7057C46.3244 55.8219 46.1038 55.9369 45.8682 56.0523C45.6326 56.1678 45.4066 56.2948 45.1908 56.433C44.9744 56.5718 44.7879 56.7335 44.6313 56.9184C44.6313 56.8953 44.6407 56.8718 44.6605 56.8489C44.6797 56.8261 44.7292 56.814 44.808 56.814C44.7094 56.8607 44.6112 56.9302 44.5133 57.0221C44.4149 57.1145 44.3366 57.1837 44.2777 57.2299C44.2382 57.2299 44.2137 57.2184 44.2043 57.1953C44.194 57.1722 44.1793 57.1493 44.1601 57.126C44.1403 57.1029 44.1304 57.0683 44.1304 57.0221C44.0717 57.0221 43.9879 57.0798 43.8803 57.1953C43.7721 57.311 43.6789 57.3915 43.6006 57.4375C43.6789 57.3915 43.7623 57.3682 43.8507 57.3682C43.939 57.3682 44.0321 57.311 44.1304 57.1953C44.0321 57.3571 43.8752 57.5067 43.6592 57.6453C43.4433 57.7841 43.2469 57.8762 43.0705 57.9224C43.0506 57.9916 43.0602 58.0386 43.0997 58.0609C43.139 58.0842 43.178 58.0386 43.2177 57.9224C43.178 58.1304 43.1044 58.2461 42.9966 58.269C42.8884 58.292 42.7856 58.3267 42.6876 58.3726C42.6479 58.4193 42.6285 58.4592 42.6285 58.4938V58.7538C42.6285 58.7077 42.6185 58.673 42.5993 58.6497C42.5596 58.6038 42.5109 58.6151 42.452 58.6846L42.5109 58.7538C42.55 58.8003 42.5303 58.8462 42.452 58.8921L42.334 58.9614C42.2947 58.985 42.2503 59.0134 42.2015 59.048C42.1524 59.0829 42.1082 59.1233 42.0692 59.1692C41.9117 59.2849 41.7597 59.429 41.6127 59.6022C41.4654 59.7756 41.3033 59.943 41.1268 60.1044C41.0284 60.2662 40.9353 60.4163 40.847 60.5546C40.7586 60.6934 40.6748 60.7973 40.5965 60.8666L40.3903 61.0395C40.2919 61.1088 40.2379 61.1841 40.2285 61.2646C40.2185 61.3457 40.2138 61.4438 40.2138 61.559C39.9974 61.7669 39.7964 61.9809 39.6101 62.2C39.4234 62.4197 39.281 62.6212 39.1831 62.8062C39.1632 62.8749 39.1432 62.9158 39.1242 62.9269C39.1041 62.9392 39.0258 62.9334 38.8886 62.9101H38.9475C38.9865 62.9101 39.0064 62.8749 39.0064 62.8062C38.8685 62.6448 38.8194 62.4889 38.8591 62.3383C38.8982 62.1885 38.9078 62.0093 38.8886 61.8017C38.8491 61.9174 38.7902 61.9749 38.7119 61.9749C38.7509 62.0906 38.7509 62.1599 38.7119 62.1825C38.6722 62.2058 38.6427 62.252 38.6235 62.321C38.5448 62.2982 38.5252 62.2691 38.5646 62.2344C38.6037 62.2 38.5939 62.1599 38.5352 62.1132C38.5352 61.9978 38.5057 61.8941 38.447 61.8017C38.3879 61.7099 38.3386 61.6057 38.2996 61.4898L38.3583 61.3515C38.319 61.0516 38.2505 60.7915 38.1523 60.5719C38.054 60.3528 37.9754 60.1393 37.9167 59.9312C37.8184 59.8622 37.7106 59.7578 37.5928 59.6195C37.475 59.4809 37.5042 59.3311 37.6811 59.1692C37.7202 59.2162 37.7644 59.2272 37.8137 59.2039C37.8625 59.181 37.9116 59.1519 37.9609 59.1173C38.0096 59.0829 38.054 59.054 38.0934 59.0309C38.1325 59.0081 38.1619 59.0309 38.1818 59.0999C38.1423 59.0081 38.1619 58.9157 38.2407 58.8229C38.28 58.7769 38.329 58.7538 38.3879 58.7538C38.4861 58.7077 38.5595 58.6384 38.6088 58.5458C38.6577 58.4539 38.7311 58.3616 38.8295 58.269C38.8295 58.1994 38.854 58.1598 38.9033 58.1475C38.9522 58.1362 39.0358 58.0727 39.1536 57.957C39.232 57.9806 39.3105 57.9454 39.3892 57.8533L39.507 57.7148L39.6248 57.7494C39.7226 57.6802 39.7766 57.634 39.7868 57.6109C39.7964 57.5883 39.8207 57.5188 39.8604 57.4028L39.9782 57.4375C40.1938 57.1837 40.5032 56.9473 40.9059 56.7277C41.3079 56.5083 41.5879 56.3176 41.7452 56.1562C41.8235 56.0867 41.8824 56.0177 41.9217 55.9482C41.9411 55.9025 41.961 55.8678 41.9808 55.8442C42 55.729 42.0397 55.6658 42.0984 55.654C42.1573 55.6427 42.2356 55.6136 42.334 55.5674C42.4322 55.406 42.6037 55.2035 42.8494 54.9613C43.0948 54.7189 43.3545 54.4711 43.63 54.2164C43.9047 53.9627 44.1793 53.6969 44.4546 53.4198C44.7292 53.1427 44.945 52.889 45.1025 52.6578C45.2007 52.5426 45.2591 52.4503 45.279 52.381C45.2984 52.3115 45.2888 52.2196 45.2497 52.1039C45.3865 52.1272 45.4704 52.133 45.4999 52.1212C45.5295 52.1099 45.5929 52.0693 45.6913 52C45.6913 52.1157 45.7158 52.1907 45.7649 52.2251C45.8136 52.2595 45.8582 52.3233 45.8974 52.4154C45.9956 52.5313 46.0547 52.6641 46.0741 52.8137C46.0935 52.9643 46.1721 53.0508 46.3097 53.0737C46.4079 53.0737 46.5161 53.0508 46.6337 53.0044C46.7515 52.9582 46.859 52.9126 46.9578 52.8656C47.409 52.7271 47.9047 52.5885 48.4448 52.4503C48.9847 52.3115 49.5443 52.2025 50.1237 52.1212C50.7024 52.0404 51.2914 52 51.8902 52C52.4888 52 53.0729 52.0811 53.6425 52.2427C53.8587 52.2889 54.0204 52.3408 54.1286 52.3983C54.2362 52.456 54.3098 52.5775 54.3495 52.7617C54.4084 52.8774 54.4718 52.9467 54.5407 52.9695C54.6097 52.9929 54.6733 53.0621 54.7324 53.1776L54.7029 53.3854C54.7618 53.5011 54.806 53.547 54.8354 53.5239C54.8647 53.5011 54.8596 53.5932 54.8205 53.8013C54.8596 53.8934 54.8843 53.9511 54.8946 53.974C54.9037 53.9973 54.9088 54.0666 54.9088 54.182L54.8794 54.4937L54.9678 54.7362C54.9285 54.8285 54.8892 54.8865 54.8502 54.9093C54.8105 54.9324 54.7913 54.9784 54.7913 55.0479C54.634 55.4635 54.379 55.8219 54.0254 56.1216C53.6722 56.422 53.348 56.6757 53.0539 56.8833C53.0341 56.999 53.0288 57.0221 53.039 56.9526C53.0488 56.8833 53.0729 56.8261 53.1124 56.7796C53.0729 56.9413 53.0046 57.0683 52.9065 57.1606C52.8081 57.2532 52.6952 57.3456 52.5678 57.4375C52.4398 57.5301 52.3072 57.6282 52.1702 57.7321C52.0326 57.8358 51.9052 57.969 51.7872 58.1304V58.3382C51.6888 58.292 51.6004 58.2863 51.5223 58.3207C51.4438 58.3555 51.3648 58.3726 51.2867 58.3726C51.2667 58.4419 51.2575 58.5232 51.2575 58.6151V58.7538C51.1587 58.8003 51.046 58.8229 50.9188 58.8229C50.7906 58.8229 50.7272 58.8695 50.7272 58.9614C50.7272 58.8695 50.6977 58.8347 50.6388 58.8578C50.5799 58.8806 50.5016 58.8921 50.4035 58.8921C50.3836 58.985 50.4128 59.0081 50.4918 58.9614C50.5699 58.9157 50.6484 58.9157 50.7272 58.9614C50.6092 59.2162 50.457 59.3943 50.2707 59.4983C50.084 59.6022 49.9417 59.7352 49.8439 59.8966C49.765 59.874 49.6864 59.8853 49.6083 59.9312L49.4903 60.0005C49.2741 60.1623 49.1121 60.2775 49.0044 60.3471C48.8962 60.4163 48.7146 60.4743 48.4596 60.52C48.4596 60.5895 48.4495 60.6472 48.4301 60.6934C48.3714 60.8091 48.3125 60.855 48.2534 60.8317C48.2726 60.7858 48.3023 60.7572 48.3415 60.7454C48.3808 60.7338 48.3612 60.7278 48.2831 60.7278C48.1843 60.8435 48.052 60.9765 47.8855 61.1261C47.7182 61.2764 47.5466 61.4325 47.3701 61.5937C47.3302 61.5711 47.311 61.5365 47.311 61.4898C47.2717 61.4208 47.3008 61.3859 47.3992 61.3859C47.3008 61.4787 47.2419 61.5365 47.2227 61.559C47.203 61.5826 47.1934 61.6519 47.1934 61.7669C47.1537 61.8135 47.0997 61.8421 47.0312 61.8537C46.9623 61.8655 46.9083 61.8479 46.8693 61.8017C46.6727 62.0557 46.4518 62.2864 46.2066 62.4942C45.9608 62.7023 45.76 62.818 45.6029 62.8405C45.4853 62.9334 45.3821 62.962 45.2939 62.9269C45.2056 62.8925 45.1415 62.9562 45.1025 63.1176Z" fill="white"/>
<path d="M19.0068 37.2834C19.1993 39.1165 20.9067 40.3185 23.11 40.3185C25.3269 40.3185 26.8414 39.1323 26.8414 37.499C26.8414 36.0509 25.8916 35.2499 23.4954 34.6493L20.9067 34.0177C17.2441 33.1395 15.4404 31.0598 15.4404 27.809C15.4404 23.7113 18.6075 21 23.0412 21C27.6679 21 30.5732 23.6651 30.642 27.6856H26.7451C26.6076 25.8065 25.1344 24.6667 23.0548 24.6667C21.003 24.6667 19.6265 25.7603 19.6265 27.4085C19.6265 28.7797 20.5903 29.55 22.8757 30.1356L25.2858 30.7055C29.2648 31.6604 31 33.5707 31 36.9601C31 41.2734 27.8745 44 22.9447 44C18.1666 44 15.1235 41.4581 15 37.2834H19.0068Z" fill="white"/>
<path d="M33 44V22H37.1873V32.0317H37.3121L44.8279 22H49.4868L42.0823 31.7575L50 44H44.9943L39.0595 34.8068L37.1873 37.2764V44H33Z" fill="white"/>
<path d="M52 22H56V44H52V22Z" fill="white"/>
<path d="M59 44V22H62.5028L71.8718 36.3311H71.9829V22H76V44H72.5251L63.1422 29.5922H63.0173V44H59Z" fill="white"/>
</svg>
