<svg width="20" height="20" viewBox="0 0 20 20" fill="none" xmlns="http://www.w3.org/2000/svg">
<g clip-path="url(#clip0_4309_7372)">
<path d="M19.0003 4.99993H1.00034C0.834575 4.99993 0.117546 5.09369 0.000335626 4.99993C-0.116875 4.90616 0.000335626 5.13253 0.000335626 4.99993C0.000335626 4.86732 -0.116875 4.09369 0.000335626 3.99993C0.117546 3.90616 0.834575 3.99993 1.00034 3.99993H19.0003C19.1661 3.99993 19.8831 3.90616 20.0003 3.99993C20.1175 4.09369 20.0003 4.86732 20.0003 4.99993C20.0003 5.13253 20.1175 4.90616 20.0003 4.99993C19.8831 5.09369 19.1661 4.99993 19.0003 4.99993Z" fill="white"/>
<path d="M19.0003 10.9999H1.00034C0.834575 10.9999 0.117546 11.0937 0.000335626 10.9999C-0.116875 10.9062 0.000335626 11.1325 0.000335626 10.9999C0.000335626 10.8673 -0.116875 10.0937 0.000335626 9.99993C0.117546 9.90616 0.834575 9.99993 1.00034 9.99993H19.0003C19.1661 9.99993 19.8831 9.90616 20.0003 9.99993C20.1175 10.0937 20.0003 10.8673 20.0003 10.9999C20.0003 11.1325 20.1175 10.9062 20.0003 10.9999C19.8831 11.0937 19.1661 10.9999 19.0003 10.9999Z" fill="white"/>
<path d="M19.0003 17.9999H1.00034C0.834575 17.9999 0.117546 18.0937 0.000335626 17.9999C-0.116875 17.9062 0.000335626 18.1325 0.000335626 17.9999C0.000335626 17.8673 -0.116875 17.0937 0.000335626 16.9999C0.117546 16.9062 0.834575 16.9999 1.00034 16.9999H19.0003C19.1661 16.9999 19.8831 16.9062 20.0003 16.9999C20.1175 17.0937 20.0003 17.8673 20.0003 17.9999C20.0003 18.1325 20.1175 17.9062 20.0003 17.9999C19.8831 18.0937 19.1661 17.9999 19.0003 17.9999Z" fill="white"/>
</g>
<defs>
<clipPath id="clip0_4309_7372">
<rect width="20" height="20" fill="white"/>
</clipPath>
</defs>
</svg>
