<svg width="22" height="22" viewBox="0 0 22 22" fill="none" xmlns="http://www.w3.org/2000/svg">
<path d="M21.748 21.7572C21.5904 21.9124 21.3781 21.9996 21.1568 22C20.9326 21.9991 20.7172 21.9122 20.5551 21.7572L15.9943 17.1862C14.0735 18.7994 11.604 19.6089 9.10082 19.4458C6.59765 19.2827 4.25409 18.1595 2.55893 16.3106C0.863765 14.4617 -0.0521193 12.0298 0.0022927 9.52208C0.0567047 7.01435 1.07721 4.62444 2.85098 2.85079C4.62474 1.07714 7.0148 0.056701 9.5227 0.00229255C12.0306 -0.0521159 14.4627 0.86371 16.3117 2.55876C18.1607 4.25382 19.2839 6.59722 19.4471 9.10023C19.6102 11.6032 18.8007 14.0726 17.1873 15.9933L21.748 20.5537C21.8278 20.6323 21.8912 20.726 21.9345 20.8293C21.9777 20.9326 22 21.0435 22 21.1555C22 21.2675 21.9777 21.3783 21.9345 21.4816C21.8912 21.5849 21.8278 21.6786 21.748 21.7572ZM9.75494 17.7773C11.3419 17.7773 12.8931 17.3068 14.2126 16.4252C15.5321 15.5436 16.5605 14.2906 17.1677 12.8246C17.775 11.3586 17.9339 9.74542 17.6243 8.1891C17.3147 6.63279 16.5506 5.20322 15.4284 4.08118C14.3063 2.95914 12.8767 2.19502 11.3203 1.88545C9.76384 1.57587 8.15058 1.73476 6.68447 2.342C5.21835 2.94925 3.96525 3.97758 3.08361 5.29696C2.20197 6.61634 1.7314 8.16751 1.7314 9.75432C1.73419 11.8813 2.58042 13.9204 4.08452 15.4244C5.58863 16.9284 7.62782 17.7746 9.75494 17.7773Z" fill="white"/>
</svg>
