<svg width="58" height="60" viewBox="0 0 58 60" fill="none" xmlns="http://www.w3.org/2000/svg">
<path fill-rule="evenodd" clip-rule="evenodd" d="M58 30C58 46.5685 45.0162 60 29 60C12.9838 60 0 46.5685 0 30C0 13.4315 12.9838 0 29 0C45.0162 0 58 13.4315 58 30ZM19.0816 26.867C16.1887 28.161 13.2163 29.4905 10.4984 31.0243L10.4982 31.0245C9.07893 32.0891 10.9655 32.8421 12.7352 33.5484C13.0165 33.6607 13.2949 33.7718 13.5566 33.8828C13.7743 33.9513 13.9958 34.0236 14.2202 34.0969C16.1884 34.7393 18.3831 35.4558 20.2939 34.3781C23.4328 32.5308 26.3951 30.3951 29.3551 28.261C30.3248 27.5618 31.2943 26.8628 32.2697 26.1742C32.3155 26.1442 32.3671 26.1099 32.4236 26.0724C33.2546 25.5205 35.123 24.2798 34.4318 25.9898C32.7972 27.8212 31.0463 29.4424 29.2859 31.0724C28.0995 32.171 26.9088 33.2735 25.7464 34.4472C24.7339 35.2899 23.6827 36.9846 24.8163 38.1647C27.4248 40.0356 30.074 41.861 32.7217 43.6855C33.5868 44.2815 34.4517 44.8775 35.3149 45.4749C36.7736 46.668 39.0533 45.7028 39.374 43.8385C39.5164 42.9818 39.6594 42.1251 39.8025 41.2684C40.5939 36.5278 41.3856 31.7855 42.085 27.0295C42.18 26.2839 42.2877 25.5383 42.3955 24.7923C42.6568 22.9834 42.9184 21.1723 43 19.3537C42.7894 17.539 40.6419 17.9381 39.4466 18.3461C33.3035 20.741 27.2217 23.3133 21.164 25.931C20.4777 26.2425 19.782 26.5537 19.0816 26.867Z" fill="black"/>
</svg>
