<svg width="14" height="14" viewBox="0 0 14 14" fill="none" xmlns="http://www.w3.org/2000/svg">
<path fill-rule="evenodd" clip-rule="evenodd" d="M9.72488 0.550316C8.42379 0 7 0 7 0C5.57621 0 4.27512 0.550315 4.27512 0.550315C3.01882 1.08169 2.05025 2.05025 2.05025 2.05025C1.08169 3.01882 0.550316 4.27512 0.550316 4.27512C0 5.57621 0 7 0 7C0 8.42379 0.550316 9.72488 0.550316 9.72488C1.08168 10.9812 2.05025 11.9497 2.05025 11.9497C2.12469 12.0242 2.20082 12.096 2.27795 12.1653C2.30616 12.1967 2.33821 12.225 2.37363 12.2494C3.27659 13.0273 4.27512 13.4497 4.27512 13.4497C5.57621 14 7 14 7 14C8.42378 14 9.72488 13.4497 9.72488 13.4497C10.5214 13.1128 11.2023 12.6001 11.5939 12.27C11.6509 12.2366 11.7003 12.1935 11.7406 12.1434C11.8752 12.0243 11.9497 11.9497 11.9497 11.9497C12.9183 10.9812 13.4497 9.72488 13.4497 9.72488C14 8.42378 14 7 14 7C14 5.57621 13.4497 4.27512 13.4497 4.27512C12.9183 3.01882 11.9497 2.05025 11.9497 2.05025C10.9812 1.08169 9.72488 0.550316 9.72488 0.550316ZM4.69464 12.4578C4.17596 12.2385 3.7151 11.9308 3.37916 11.6733C3.94697 10.8191 4.74656 10.3283 4.74656 10.3283C5.78341 9.6919 7 9.69231 7 9.69231C8.21659 9.69231 9.25344 10.3283 9.25344 10.3283C9.90622 10.729 10.3663 11.3074 10.6176 11.6809C9.94685 12.1865 9.30536 12.4578 9.30536 12.4578C8.2054 12.9231 7 12.9231 7 12.9231C5.7946 12.9231 4.69464 12.4578 4.69464 12.4578ZM4.18321 9.4105C4.18321 9.4105 4.50775 9.21139 5.0226 9.01245C4.91727 8.93324 4.81425 8.84479 4.7155 8.74604C4.7155 8.74604 3.76923 7.79977 3.76923 6.46154C3.76923 6.46154 3.76923 5.12331 4.7155 4.17704C4.7155 4.17704 5.66177 3.23077 7 3.23077C7 3.23077 8.33823 3.23077 9.2845 4.17704C9.2845 4.17704 10.2308 5.12331 10.2308 6.46154C10.2308 6.46154 10.2308 7.79977 9.2845 8.74604C9.2845 8.74604 9.17371 8.85682 8.97434 9.00259C9.2541 9.10754 9.54055 9.24094 9.8168 9.4105C9.8168 9.4105 10.7193 9.96444 11.418 10.9357C11.6944 10.6138 12.1583 10.0135 12.4578 9.30536C12.4578 9.30536 12.9231 8.2054 12.9231 7C12.9231 7 12.9231 5.7946 12.4578 4.69464C12.4578 4.69464 12.0083 3.63179 11.1882 2.81175C11.1882 2.81175 10.3682 1.99171 9.30536 1.54217C9.30536 1.54217 8.2054 1.07692 7 1.07692C7 1.07692 5.7946 1.07692 4.69464 1.54217C4.69464 1.54217 3.63179 1.99171 2.81175 2.81175C2.81175 2.81175 1.99171 3.63179 1.54217 4.69464C1.54217 4.69464 1.07692 5.7946 1.07692 7C1.07692 7 1.07692 8.2054 1.54217 9.30536C1.54217 9.30536 1.90944 10.1737 2.5856 10.9462C2.9156 10.4849 3.45295 9.85873 4.18321 9.4105ZM8.523 7.98454C7.89215 8.61539 7 8.61539 7 8.61539C6.10785 8.61539 5.477 7.98454 5.477 7.98454C4.84615 7.35369 4.84615 6.46154 4.84615 6.46154C4.84615 5.56939 5.477 4.93854 5.477 4.93854C6.10785 4.30769 7 4.30769 7 4.30769C7.89215 4.30769 8.523 4.93854 8.523 4.93854C9.15385 5.56939 9.15385 6.46154 9.15385 6.46154C9.15385 7.35369 8.523 7.98454 8.523 7.98454Z" fill="#141414"/>
</svg>
