<svg width="23" height="23" viewBox="0 0 23 23" fill="none" xmlns="http://www.w3.org/2000/svg">
<path fill-rule="evenodd" clip-rule="evenodd" d="M15.9766 0.90409C13.8391 0 11.5 0 11.5 0C9.16092 0 7.02341 0.90409 7.02341 0.90409C4.95949 1.77705 3.36827 3.36827 3.36827 3.36827C1.77706 4.95949 0.904091 7.02341 0.904091 7.02341C0 9.16092 0 11.5 0 11.5C0 13.8391 0.904091 15.9766 0.904091 15.9766C1.77705 18.0405 3.36827 19.6317 3.36827 19.6317C3.49056 19.754 3.61563 19.8721 3.74235 19.9858C3.7887 20.0375 3.84135 20.084 3.89953 20.124C5.38296 21.4021 7.02341 22.0959 7.02341 22.0959C9.16092 23 11.5 23 11.5 23C13.8391 23 15.9766 22.0959 15.9766 22.0959C17.2852 21.5424 18.4037 20.7002 19.0472 20.1579C19.1407 20.1029 19.222 20.0321 19.2882 19.9498C19.5093 19.7542 19.6317 19.6317 19.6317 19.6317C21.2229 18.0405 22.0959 15.9766 22.0959 15.9766C23 13.8391 23 11.5 23 11.5C23 9.16092 22.0959 7.02341 22.0959 7.02341C21.2229 4.95949 19.6317 3.36827 19.6317 3.36827C18.0405 1.77705 15.9766 0.90409 15.9766 0.90409ZM7.71262 20.4664C6.8605 20.106 6.10338 19.6007 5.55148 19.1776C6.48431 17.7743 7.79793 16.9679 7.79793 16.9679C9.50132 15.9224 11.5 15.9231 11.5 15.9231C13.4987 15.9231 15.2021 16.9679 15.2021 16.9679C16.2745 17.6262 17.0304 18.5764 17.4432 19.1901C16.3413 20.0207 15.2874 20.4664 15.2874 20.4664C13.4803 21.2308 11.5 21.2308 11.5 21.2308C9.5197 21.2308 7.71262 20.4664 7.71262 20.4664ZM6.87241 15.4601C6.87241 15.4601 7.40559 15.133 8.25141 14.8062C8.07838 14.676 7.90913 14.5307 7.74689 14.3685C7.74689 14.3685 6.19231 12.8139 6.19231 10.6154C6.19231 10.6154 6.19231 8.41687 7.74689 6.86228C7.74689 6.86228 9.30148 5.30769 11.5 5.30769C11.5 5.30769 13.6985 5.30769 15.2531 6.86228C15.2531 6.86228 16.8077 8.41687 16.8077 10.6154C16.8077 10.6154 16.8077 12.8139 15.2531 14.3685C15.2531 14.3685 15.0711 14.5505 14.7436 14.79C15.2032 14.9624 15.6738 15.1815 16.1276 15.4601C16.1276 15.4601 17.6102 16.3702 18.7582 17.9657C19.2122 17.437 19.9744 16.4507 20.4664 15.2874C20.4664 15.2874 21.2308 13.4803 21.2308 11.5C21.2308 11.5 21.2308 9.5197 20.4664 7.71262C20.4664 7.71262 19.7279 5.96652 18.3807 4.61931C18.3807 4.61931 17.0335 3.2721 15.2874 2.53356C15.2874 2.53356 13.4803 1.76923 11.5 1.76923C11.5 1.76923 9.5197 1.76923 7.71262 2.53356C7.71262 2.53356 5.96652 3.2721 4.61931 4.61931C4.61931 4.61931 3.2721 5.96651 2.53356 7.71262C2.53356 7.71262 1.76923 9.51969 1.76923 11.5C1.76923 11.5 1.76923 13.4803 2.53356 15.2874C2.53356 15.2874 3.13693 16.7139 4.24777 17.983C4.78991 17.2252 5.6727 16.1965 6.87241 15.4601ZM14.0021 13.1175C12.9657 14.1538 11.5 14.1538 11.5 14.1538C10.0343 14.1538 8.99793 13.1175 8.99793 13.1175C7.96154 12.0811 7.96154 10.6154 7.96154 10.6154C7.96154 9.1497 8.99793 8.11331 8.99793 8.11331C10.0343 7.07692 11.5 7.07692 11.5 7.07692C12.9657 7.07692 14.0021 8.11331 14.0021 8.11331C15.0385 9.1497 15.0385 10.6154 15.0385 10.6154C15.0385 12.0811 14.0021 13.1175 14.0021 13.1175Z" fill="white"/>
</svg>
