<svg width="39" height="40" viewBox="0 0 39 40" fill="none" xmlns="http://www.w3.org/2000/svg">
<path d="M19.5 39.5C30.2696 39.5 39 30.7696 39 20C39 9.23045 30.2696 0.5 19.5 0.5C8.73045 0.5 0 9.23045 0 20C0 30.7696 8.73045 39.5 19.5 39.5Z" fill="#141414"/>
<path fill-rule="evenodd" clip-rule="evenodd" d="M20.5482 30.3024H20.5434C18.6268 30.3017 16.7435 29.8231 15.0708 28.9151L9 30.5L10.6247 24.5941C9.62249 22.8657 9.09515 20.9051 9.09601 18.8964C9.09853 12.6125 14.2359 7.5 20.548 7.5C23.6116 7.50132 26.4869 8.68823 28.649 10.8425C30.8111 12.9967 32.0012 15.8601 32 18.9054C31.9975 25.1879 26.8622 30.2998 20.5482 30.3024ZM15.3142 26.9705L15.6611 27.1763C17.1197 28.0415 18.7916 28.4993 20.4963 28.5H20.5002C25.7363 28.5 29.9979 24.2398 30 19.0034C30.001 16.4659 29.0138 14.08 27.2202 12.285C25.4266 10.4899 23.0414 9.50088 20.5039 9.5C15.2638 9.5 11.0021 13.7598 11 18.9957C10.9993 20.7901 11.5015 22.5377 12.4525 24.0496L12.6784 24.409L11.7187 27.9133L15.3142 26.9705ZM25.5527 21.4091C25.7586 21.5074 25.8976 21.5738 25.957 21.6716C26.0308 21.7932 26.0308 22.3769 25.7849 23.0579C25.5388 23.7389 24.3593 24.3604 23.792 24.4441C23.2833 24.5192 22.6396 24.5505 21.9324 24.3285C21.5035 24.1942 20.9536 24.0148 20.2492 23.7144C17.4813 22.5344 15.6108 19.8855 15.2573 19.3849C15.2325 19.3498 15.2152 19.3253 15.2056 19.3125L15.2032 19.3094C15.0469 19.1036 14 17.7243 14 16.2968C14 14.954 14.668 14.2501 14.9755 13.9262C14.9966 13.904 15.016 13.8835 15.0333 13.8648C15.304 13.573 15.6238 13.5 15.8207 13.5C16.0175 13.5 16.2145 13.5018 16.3865 13.5103C16.4078 13.5114 16.4298 13.5113 16.4527 13.5111C16.6247 13.5101 16.8392 13.5089 17.0508 14.0108C17.1322 14.2039 17.2513 14.4902 17.377 14.7922C17.631 15.4029 17.9117 16.0777 17.9611 16.1754C18.0349 16.3213 18.0841 16.4915 17.9857 16.6861C17.9709 16.7153 17.9573 16.7428 17.9442 16.7692C17.8703 16.9182 17.8159 17.0278 17.6905 17.1724C17.6412 17.2293 17.5902 17.2906 17.5392 17.3519C17.4376 17.474 17.336 17.5962 17.2476 17.6832C17.0998 17.8285 16.9459 17.9862 17.1182 18.2781C17.2904 18.57 17.8829 19.5246 18.7606 20.2976C19.7041 21.1286 20.5242 21.4798 20.9398 21.6578C21.021 21.6926 21.0867 21.7207 21.135 21.7446C21.4301 21.8905 21.6023 21.8661 21.7746 21.6716C21.9468 21.4771 22.5126 20.8203 22.7094 20.5285C22.9062 20.2368 23.1031 20.2854 23.3737 20.3826C23.6444 20.48 25.0959 21.1852 25.3912 21.3311C25.4488 21.3596 25.5027 21.3853 25.5527 21.4091Z" fill="#F3F3F3"/>
</svg>
