<svg width="58" height="60" viewBox="0 0 58 60" fill="none" xmlns="http://www.w3.org/2000/svg">
<g clip-path="url(#clip0_4096_1547)">
<path d="M0 30C0 13.4315 12.9837 0 29 0C45.0163 0 58 13.4315 58 30C58 46.5685 45.0163 60 29 60C12.9837 60 0 46.5685 0 30Z" fill="black"/>
<path d="M44.3522 22.5915C43.9957 21.1778 42.9452 20.0645 41.6113 19.6867C39.194 19 29.5 19 29.5 19C29.5 19 19.806 19 17.3885 19.6867C16.0546 20.0645 15.0042 21.1778 14.6477 22.5915C14 25.1538 14 30.5 14 30.5C14 30.5 14 35.846 14.6477 38.4085C15.0042 39.8222 16.0546 40.9355 17.3885 41.3135C19.806 42 29.5 42 29.5 42C29.5 42 39.194 42 41.6113 41.3135C42.9452 40.9355 43.9957 39.8222 44.3522 38.4085C45 35.846 45 30.5 45 30.5C45 30.5 45 25.1538 44.3522 22.5915Z" fill="#F3F3F3"/>
<path d="M26 36V26L34 31.0002L26 36Z" fill="black"/>
</g>
<defs>
<clipPath id="clip0_4096_1547">
<rect width="58" height="60" fill="white"/>
</clipPath>
</defs>
</svg>
