<svg width="52" height="52" viewBox="0 0 52 52" fill="none" xmlns="http://www.w3.org/2000/svg">
<path d="M20.5625 30.3594V14.8906H23.1875V30.3594H20.5625ZM14.1406 23.9375V21.3125H29.6094V23.9375H14.1406Z" fill="black" fill-opacity="0.2"/>
<path fill-rule="evenodd" clip-rule="evenodd" d="M36 39C32.2229 42.0534 27.2352 44 22 44C9.84971 44 0 34.1503 0 22C0 9.84971 9.84971 0 22 0C34.1503 0 44 9.84971 44 22C44 27.2352 42.0534 32.2229 39 36C38.953 36.0581 39.0476 35.9423 39 36C38.0557 37.1442 37.1539 38.0674 36 39ZM39 22C39 31.5466 31.5466 39 22 39C12.4534 39 5 31.5466 5 22C5 12.4534 12.4534 5 22 5C31.5466 5 39 12.4534 39 22Z" fill="black" fill-opacity="0.2"/>
<path d="M48.238 51.3173L39 42.0793C40.1931 41.0793 41.0793 40.1931 42.0793 39L51.3173 48.238C52.2276 49.1484 52.2276 50.407 51.3173 51.3173C50.407 52.2276 49.1484 52.2276 48.238 51.3173Z" fill="black" fill-opacity="0.2"/>
</svg>
