<svg width="40" height="40" viewBox="0 0 40 40" fill="none" xmlns="http://www.w3.org/2000/svg">
<path d="M15.996 23.7074V11.5199H18.0642V23.7074H15.996ZM10.9363 18.6477V16.5795H23.1238V18.6477H10.9363Z" fill="black" fill-opacity="0.2"/>
<path fill-rule="evenodd" clip-rule="evenodd" d="M27.6923 30C24.7869 32.3488 20.9502 33.8462 16.9231 33.8462C7.5767 33.8462 0 26.2695 0 16.9231C0 7.5767 7.5767 0 16.9231 0C26.2695 0 33.8462 7.5767 33.8462 16.9231C33.8462 20.9502 32.3488 24.7869 30 27.6923C29.9639 27.737 30.0366 27.6479 30 27.6923C29.2736 28.5724 28.5799 29.2826 27.6923 30ZM30 16.9231C30 24.2666 24.2666 30 16.9231 30C9.57955 30 3.84615 24.2666 3.84615 16.9231C3.84615 9.57955 9.57955 3.84615 16.9231 3.84615C24.2666 3.84615 30 9.57955 30 16.9231Z" fill="black" fill-opacity="0.2"/>
<path d="M37.1062 39.4749L30 32.3687C30.9177 31.5995 31.5995 30.9177 32.3687 30L39.4749 37.1062C40.175 37.8064 40.175 38.7746 39.4749 39.4749C38.7746 40.175 37.8064 40.175 37.1062 39.4749Z" fill="black" fill-opacity="0.2"/>
</svg>
